<svg width="208" height="132" xmlns="http://www.w3.org/2000/svg" xmlns:xlink="http://www.w3.org/1999/xlink" overflow="hidden"><defs><clipPath id="clip0"><rect x="0" y="0" width="208" height="132"/></clipPath></defs><g clip-path="url(#clip0)"><rect x="0" y="0" width="208" height="131.562" fill="#FFFFFF"/><text font-family="Cambria Math,Cambria Math_MSFontService,sans-serif" font-weight="400" font-size="14.6297" transform="matrix(1 0 0 0.996682 21.6091 39)">𝑺</text><text font-family="Cambria Math,Cambria Math_MSFontService,sans-serif" font-weight="400" font-size="14.6297" transform="matrix(1 0 0 0.996682 124.105 39)">𝑫</text><path d="M27.7273 3.00077C29.1132 3.36625 30.1776 4.15535 30.9205 5.36807 31.6633 6.5808 32.0347 8.0439 32.0347 9.75738 32.0347 11.4756 31.6645 12.9387 30.924 14.1467 30.1836 15.3547 29.118 16.1414 27.7273 16.5069L27.5564 15.9586C28.6528 15.5932 29.468 14.8717 30.002 13.7943 30.536 12.7168 30.803 11.3474 30.803 9.68618 30.803 8.08187 30.5372 6.7493 30.0056 5.68846 29.474 4.62762 28.6505 3.91446 27.535 3.54898ZM18.4698 3.00077 18.662 3.54898C17.5513 3.91446 16.729 4.62762 16.195 5.68846 15.6611 6.7493 15.3941 8.08187 15.3941 9.68618 15.3941 11.3474 15.6611 12.7168 16.195 13.7943 16.729 14.8717 17.5442 15.5932 18.6407 15.9586L18.4698 16.5069C17.0791 16.1414 16.0135 15.3547 15.273 14.1467 14.5326 12.9387 14.1624 11.4756 14.1624 9.75738 14.1624 8.0439 14.5338 6.5808 15.2766 5.36807 16.0194 4.15535 17.0838 3.36625 18.4698 3.00077Z" fill-rule="evenodd" transform="matrix(1.00333 0 0 1 122.19 24.8434)"/><text font-family="Cambria Math,Cambria Math_MSFontService,sans-serif" font-weight="400" font-size="14.6297" transform="matrix(1 0 0 0.996682 141.205 39)">𝑺</text><text font-family="Cambria Math,Cambria Math_MSFontService,sans-serif" font-weight="400" font-size="14.6297" transform="matrix(1 0 0 0.996682 116.866 115)">∀</text><text font-family="Cambria Math,Cambria Math_MSFontService,sans-serif" font-weight="400" font-size="14.6297" transform="matrix(1 0 0 0.996682 126.04 115)">𝑿</text><text font-family="Cambria Math,Cambria Math_MSFontService,sans-serif" font-weight="400" font-size="14.6297" transform="matrix(1 0 0 0.996682 18.7076 86)">∀</text><text font-family="MS Mincho,MS Mincho_MSFontService,sans-serif" font-weight="400" font-size="14.6297" transform="matrix(1 0 0 0.996682 27.8816 86)">関数</text><text font-family="Cambria Math,Cambria Math_MSFontService,sans-serif" font-weight="400" font-size="14.6297" transform="matrix(1 0 0 0.996682 57.2385 86)">𝒇</text><text font-family="Cambria Math,Cambria Math_MSFontService,sans-serif" font-weight="400" font-size="14.6297" transform="matrix(1 0 0 0.996682 74.4152 25)">𝒊</text><text font-family="Cambria Math,Cambria Math_MSFontService,sans-serif" font-weight="400" font-size="14.6297" transform="matrix(1 0 0 0.996682 132.631 70)">∃</text><text font-family="Cambria Math,Cambria Math_MSFontService,sans-serif" font-weight="400" font-size="14.6297" transform="matrix(1 0 0 0.996682 141.305 70)">!</text><text font-family="MS Mincho,MS Mincho_MSFontService,sans-serif" font-weight="400" font-size="14.6297" transform="matrix(1 0 0 0.996682 147.923 70)">連続</text><text font-family="Cambria Math,Cambria Math_MSFontService,sans-serif" font-weight="400" font-size="14.6297" transform="matrix(1 0 0 0.996682 177.28 70)"></text><text font-family="Cambria Math,Cambria Math_MSFontService,sans-serif" font-weight="400" font-size="14.6297" transform="matrix(1 0 0 0.996682 180.449 70)"></text><text font-family="Cambria Math,Cambria Math_MSFontService,sans-serif" font-weight="400" font-size="14.6297" transform="matrix(1 0 0 0.996682 183.618 70)">𝒇</text><path d="M8.29351-8.55067 0-8.55067 0-9.30787 8.29351-9.30787Z" transform="matrix(1 0 0 0.996682 183.632 66)"/><text fill="#000000" fill-opacity="0" font-family="Arial,Arial_MSFontService,sans-serif" font-size="0.757202" y="-8.64532">ഥ</text><path d="M35.5 33.7205 119.179 33.7205 119.179 35.0505 35.5 35.0505ZM111.509 29.1562 120.503 34.3855 111.509 39.6148C111.19 39.7999 110.782 39.6927 110.596 39.3755 110.411 39.0583 110.518 38.6511 110.836 38.466L118.843 33.8111 118.843 34.9599 110.836 30.305C110.518 30.1199 110.411 29.7128 110.596 29.3955 110.782 29.0783 111.19 28.9711 111.509 29.1562Z" fill="#172C51"/><path d="M31.9024 39.8351 112.849 100.835 112.044 101.896 31.0976 40.896ZM109.492 92.5839 113.502 102.162 103.164 100.926C102.798 100.883 102.537 100.552 102.581 100.187 102.624 99.8223 102.957 99.5621 103.322 99.6059L112.526 100.706 111.83 101.622 108.261 93.0961C108.119 92.7572 108.28 92.3678 108.62 92.2263 108.96 92.0849 109.35 92.245 109.492 92.5839Z" fill="#172C51"/><path d="M129.167 43.3556 129.167 48.6755 127.833 48.6755 127.833 43.3556ZM129.167 52.6654 129.167 57.9853 127.833 57.9853 127.833 52.6654ZM129.167 61.9753 129.167 67.2952 127.833 67.2952 127.833 61.9753ZM129.167 71.2851 129.167 76.605 127.833 76.605 127.833 71.2851ZM129.167 80.5949 129.167 85.9148 127.833 85.9148 127.833 80.5949ZM129.167 89.9047 129.167 95.2246 127.833 95.2246 127.833 89.9047ZM133.747 91.205 128.5 100.17 123.253 91.205C123.068 90.8878 123.175 90.4806 123.493 90.2956 123.812 90.1105 124.22 90.2177 124.406 90.5349L129.076 98.5147 127.924 98.5147 132.594 90.5349C132.78 90.2177 133.188 90.1105 133.507 90.2956 133.825 90.4806 133.932 90.8878 133.747 91.205Z" fill="#172C51"/></g></svg>