<svg width="170" height="189" xmlns="http://www.w3.org/2000/svg" xmlns:xlink="http://www.w3.org/1999/xlink" overflow="hidden"><g><rect x="0" y="0" width="170" height="189" fill="#FFFFFF"/><text font-family="Cambria Math,Cambria Math_MSFontService,sans-serif" font-weight="400" font-size="14.6667" transform="translate(19.7485 96)">𝑼</text><text font-family="Cambria Math,Cambria Math_MSFontService,sans-serif" font-weight="400" font-size="14.6667" transform="translate(33.6751 96)">×</text><text font-family="Cambria Math,Cambria Math_MSFontService,sans-serif" font-weight="400" font-size="14.6667" transform="translate(47.4351 96)">𝑽</text><text font-family="Cambria Math,Cambria Math_MSFontService,sans-serif" font-weight="400" font-size="14.6667" transform="translate(132.37 97)">𝑻</text><text font-family="Cambria Math,Cambria Math_MSFontService,sans-serif" font-weight="400" font-size="14.6667" transform="translate(132.37 174)">𝑻</text><text font-family="Cambria Math,Cambria Math_MSFontService,sans-serif" font-weight="400" font-size="14.6667" transform="translate(79.8107 150)">𝒃</text><text font-family="Cambria Math,Cambria Math_MSFontService,sans-serif" font-weight="400" font-size="14.6667" transform="translate(78.0641 89)">𝒃</text><text font-family="Calibri,Calibri_MSFontService,sans-serif" font-weight="700" font-size="14.6667" transform="translate(86.8975 89)">'</text><text font-family="Cambria Math,Cambria Math_MSFontService,sans-serif" font-weight="400" font-size="14.6667" transform="translate(141.535 127)">𝒋′</text><path d="M59.5001 92.8334 125.18 92.8334 125.18 94.1667 59.5001 94.1667ZM117.516 88.2575 126.503 93.5001 117.516 98.7426C117.198 98.9281 116.79 98.8207 116.604 98.5026 116.419 98.1846 116.526 97.7764 116.844 97.5909L124.844 92.9242 124.844 94.0759 116.844 89.4092C116.526 89.2237 116.419 88.8155 116.604 88.4975 116.79 88.1794 117.198 88.072 117.516 88.2575Z" fill="#172C51"/><path d="M0.666667 0 0.666667 51.68-0.666667 51.68-0.666667 0ZM5.24252 44.0159 0 53.0031-5.24252 44.0159C-5.42804 43.6979-5.32061 43.2897-5.00258 43.1041-4.68455 42.9186-4.27633 43.026-4.09081 43.3441L0.575853 51.3441-0.575853 51.3441 4.09081 43.3441C4.27633 43.026 4.68455 42.9186 5.00258 43.1041 5.32061 43.2897 5.42804 43.6979 5.24252 44.0159Z" fill="#172C51" transform="matrix(-1 0 0 1 135.5 103.5)"/><text font-family="Cambria Math,Cambria Math_MSFontService,sans-serif" font-weight="400" font-size="14.6667" transform="translate(132.37 27)">𝑻</text><path d="M40.899 97.966 122.841 159.176 122.043 160.244 40.1011 99.0342ZM119.44 150.923 123.503 160.502 113.165 159.324C112.799 159.282 112.536 158.952 112.578 158.586 112.62 158.22 112.95 157.957 113.316 157.999L122.518 159.048 121.829 159.97 118.212 151.444C118.069 151.105 118.227 150.714 118.566 150.57 118.905 150.426 119.296 150.584 119.44 150.923Z" fill="#172C51"/><path d="M0.39897-0.534105 82.3408 60.6755 81.5429 61.7437-0.39897 0.534105ZM78.9397 52.4234 83.0025 62.0019 72.6649 60.8235C72.2991 60.7818 72.0364 60.4515 72.0781 60.0856 72.1198 59.7198 72.4501 59.4571 72.8159 59.4988L82.018 60.5477 81.3287 61.4704 77.7123 52.944C77.5685 52.605 77.7267 52.2137 78.0657 52.0699 78.4046 51.9262 78.796 52.0844 78.9397 52.4234Z" fill="#172C51" transform="matrix(1 0 0 -1 42.5001 83.5001)"/><text font-family="Cambria Math,Cambria Math_MSFontService,sans-serif" font-weight="400" font-size="14.6667" transform="translate(79.8107 46)">𝒃</text><text font-family="Cambria Math,Cambria Math_MSFontService,sans-serif" font-weight="400" font-size="14.6667" transform="translate(143.471 59)">𝒋</text><path d="M0.666667 0 0.666667 51.68-0.666667 51.68-0.666667 0ZM5.24252 44.0159 0 53.0031-5.24252 44.0159C-5.42804 43.6979-5.32061 43.2897-5.00258 43.1041-4.68455 42.9186-4.27633 43.026-4.09081 43.3441L0.575853 51.3441-0.575853 51.3441 4.09081 43.3441C4.27633 43.026 4.68455 42.9186 5.00258 43.1041 5.32061 43.2897 5.42804 43.6979 5.24252 44.0159Z" fill="#172C51" transform="matrix(-1 0 0 1 135.5 31.5001)"/></g></svg>