<svg width="340" height="132" xmlns="http://www.w3.org/2000/svg" xmlns:xlink="http://www.w3.org/1999/xlink" overflow="hidden"><defs><clipPath id="clip0"><rect x="0" y="0" width="340" height="132"/></clipPath></defs><g clip-path="url(#clip0)"><rect x="0" y="0" width="340" height="131.732" fill="#FFFFFF"/><text font-family="Cambria Math,Cambria Math_MSFontService,sans-serif" font-weight="400" font-size="14.6297" transform="matrix(1 0 0 0.99797 16.0914 35)">𝝅</text><text font-family="Cambria Math,Cambria Math_MSFontService,sans-serif" font-weight="400" font-size="10.6797" transform="matrix(1 0 0 0.99797 26.0865 38)">𝟏</text><path d="M62.0346 3.00465C63.4223 3.3706 64.4881 4.16072 65.2319 5.37501 65.9757 6.5893 66.3476 8.0543 66.3476 9.76999 66.3476 11.4904 65.9769 12.9554 65.2354 14.165 64.494 15.3745 63.4271 16.1623 62.0346 16.5282L61.8635 15.9793C62.9613 15.6133 63.7776 14.8909 64.3123 13.8121 64.8469 12.7332 65.1143 11.3621 65.1143 9.6987 65.1143 8.09232 64.8481 6.75802 64.3158 5.69581 63.7835 4.6336 62.9589 3.91952 61.8421 3.55357ZM24.5018 3.00465 24.6943 3.55357C23.5822 3.91952 22.7588 4.6336 22.2241 5.69581 21.6894 6.75802 21.4221 8.09232 21.4221 9.6987 21.4221 11.3621 21.6894 12.7332 22.2241 13.8121 22.7588 14.8909 23.575 15.6133 24.6729 15.9793L24.5018 16.5282C23.1093 16.1623 22.0423 15.3745 21.3009 14.165 20.5595 12.9554 20.1888 11.4904 20.1888 9.76999 20.1888 8.0543 20.5607 6.5893 21.3045 5.37501 22.0483 4.16072 23.114 3.3706 24.5018 3.00465Z" fill-rule="evenodd" transform="matrix(1.00203 0 0 1 14.0791 21.3392)"/><text font-family="Cambria Math,Cambria Math_MSFontService,sans-serif" font-weight="400" font-size="14.6297" transform="matrix(1 0 0 0.99797 39.1068 35)">𝑼</text><text font-family="Cambria Math,Cambria Math_MSFontService,sans-serif" font-weight="400" font-size="14.6297" transform="matrix(1 0 0 0.99797 53.0267 35)">∩</text><text font-family="Cambria Math,Cambria Math_MSFontService,sans-serif" font-weight="400" font-size="14.6297" transform="matrix(1 0 0 0.99797 66.2802 35)">𝑽</text><text font-family="Cambria Math,Cambria Math_MSFontService,sans-serif" font-weight="400" font-size="14.6297" transform="matrix(1 0 0 0.99797 141.865 34)">𝝅</text><text font-family="Cambria Math,Cambria Math_MSFontService,sans-serif" font-weight="400" font-size="10.6797" transform="matrix(1 0 0 0.99797 151.861 37)">𝟏</text><path d="M36.007 3.00465C37.3947 3.3706 38.4605 4.16072 39.2043 5.37501 39.9481 6.5893 40.32 8.0543 40.32 9.76999 40.32 11.4904 39.9492 12.9554 39.2078 14.165 38.4664 15.3745 37.3995 16.1623 36.007 16.5282L35.8359 15.9793C36.9337 15.6133 37.75 14.8909 38.2846 13.8121 38.8193 12.7332 39.0866 11.3621 39.0866 9.6987 39.0866 8.09232 38.8205 6.75802 38.2882 5.69581 37.7559 4.6336 36.9313 3.91952 35.8145 3.55357ZM24.4286 3.00465 24.6211 3.55357C23.509 3.91952 22.6856 4.6336 22.151 5.69581 21.6163 6.75802 21.3489 8.09232 21.3489 9.6987 21.3489 11.3621 21.6163 12.7332 22.151 13.8121 22.6856 14.8909 23.5019 15.6133 24.5997 15.9793L24.4286 16.5282C23.0361 16.1623 21.9692 15.3745 21.2278 14.165 20.4864 12.9554 20.1156 11.4904 20.1156 9.76999 20.1156 8.0543 20.4875 6.5893 21.2313 5.37501 21.9751 4.16072 23.0409 3.3706 24.4286 3.00465Z" fill-rule="evenodd" transform="matrix(1.00203 0 0 1 139.926 19.9583)"/><text font-family="Cambria Math,Cambria Math_MSFontService,sans-serif" font-weight="400" font-size="14.6297" transform="matrix(1 0 0 0.99797 164.881 34)">𝑼</text><text font-family="Cambria Math,Cambria Math_MSFontService,sans-serif" font-weight="400" font-size="14.6297" transform="matrix(1 0 0 0.99797 102.637 24)">𝒊</text><text font-family="Cambria Math,Cambria Math_MSFontService,sans-serif" font-weight="400" font-size="10.6797" transform="matrix(1 0 0 0.99797 108.134 27)">∗</text><path d="M0-0.664987 49.5799-0.664987 49.5799 0.664987 0 0.664987ZM41.9351-5.22931 50.8997 0 41.9351 5.22931C41.6179 5.41437 41.2107 5.30721 41.0256 4.98998 40.8406 4.67275 40.9477 4.26556 41.265 4.08051L49.2448-0.574402 49.2448 0.574402 41.265-4.08051C40.9477-4.26556 40.8406-4.67275 41.0256-4.98998 41.2107-5.30721 41.6179-5.41437 41.9351-5.22931Z" fill="#172C51" transform="matrix(1.00203 0 0 -1 86.5 31.4361)"/><path d="M0-0.664987 50.5777-0.664987 50.5777 0.664987 0 0.664987ZM42.9329-5.22931 51.8974 0 42.9329 5.22931C42.6157 5.41437 42.2085 5.30721 42.0234 4.98998 41.8384 4.67275 41.9455 4.26556 42.2628 4.08051L50.2426-0.574402 50.2426 0.574402 42.2628-4.08051C41.9455-4.26556 41.8384-4.67275 42.0234-4.98998 42.2085-5.30721 42.6157-5.41437 42.9329-5.22931Z" fill="#172C51" transform="matrix(1.00203 0 0 -1 82.5 104.288)"/><path d="M0-0.664987 50.5778-0.664987 50.5778 0.664987 0 0.664987ZM42.933-5.22931 51.8975 0 42.933 5.22931C42.6158 5.41437 42.2086 5.30721 42.0235 4.98998 41.8385 4.67275 41.9456 4.26556 42.2629 4.08051L50.2427-0.574402 50.2427 0.574402 42.2629-4.08051C41.9456-4.26556 41.8385-4.67275 42.0235-4.98998 42.2086-5.30721 42.6158-5.41437 42.933-5.22931Z" fill="#172C51" transform="matrix(6.13569e-17 1 1.00203 -6.12323e-17 142.5 41.4157)"/><path d="M0-0.664987 51.5759-0.664987 51.5759 0.664987 0 0.664987ZM43.9309-5.22931 52.8955 0 43.9309 5.22931C43.6137 5.41437 43.2065 5.30721 43.0214 4.98998 42.8364 4.67275 42.9435 4.26556 43.2608 4.08051L51.2406-0.574402 51.2406 0.574402 43.2608-4.08051C42.9435-4.26556 42.8364-4.67275 43.0214-4.98998 43.2065-5.30721 43.6137-5.41437 43.9309-5.22931Z" fill="#172C51" transform="matrix(6.13569e-17 1 1.00203 -6.12323e-17 56.5 40.4178)"/><text font-family="Cambria Math,Cambria Math_MSFontService,sans-serif" font-weight="400" font-size="14.6297" transform="matrix(1 0 0 0.99797 37.6934 68)">𝒋</text><text font-family="Cambria Math,Cambria Math_MSFontService,sans-serif" font-weight="400" font-size="10.6797" transform="matrix(1 0 0 0.99797 43.3573 71)">∗</text><text font-family="Cambria Math,Cambria Math_MSFontService,sans-serif" font-weight="400" font-size="14.6297" transform="matrix(1 0 0 0.99797 141.865 106)">𝝅</text><text font-family="Cambria Math,Cambria Math_MSFontService,sans-serif" font-weight="400" font-size="10.6797" transform="matrix(1 0 0 0.99797 151.861 109)">𝟏</text><path d="M35.5082 3.00465C36.896 3.3706 37.9618 4.16072 38.7055 5.37501 39.4493 6.5893 39.8212 8.0543 39.8212 9.76999 39.8212 11.4904 39.4505 12.9554 38.7091 14.165 37.9677 15.3745 36.9007 16.1623 35.5082 16.5282L35.3371 15.9793C36.435 15.6133 37.2512 14.8909 37.7859 13.8121 38.3206 12.7332 38.5879 11.3621 38.5879 9.6987 38.5879 8.09232 38.3218 6.75802 37.7895 5.69581 37.2572 4.6336 36.4326 3.91952 35.3157 3.55357ZM24.4286 3.00465 24.6211 3.55357C23.509 3.91952 22.6856 4.6336 22.151 5.69581 21.6163 6.75802 21.3489 8.09232 21.3489 9.6987 21.3489 11.3621 21.6163 12.7332 22.151 13.8121 22.6856 14.8909 23.5019 15.6133 24.5997 15.9793L24.4286 16.5282C23.0361 16.1623 21.9692 15.3745 21.2278 14.165 20.4864 12.9554 20.1156 11.4904 20.1156 9.76999 20.1156 8.0543 20.4875 6.5893 21.2313 5.37501 21.9751 4.16072 23.0409 3.3706 24.4286 3.00465Z" fill-rule="evenodd" transform="matrix(1.00203 0 0 1 139.926 92.508)"/><text font-family="Cambria Math,Cambria Math_MSFontService,sans-serif" font-weight="400" font-size="14.6297" transform="matrix(1 0 0 0.99797 164.881 106)">𝑿</text><text font-family="Cambria Math,Cambria Math_MSFontService,sans-serif" font-weight="400" font-size="14.6297" transform="matrix(1 0 0 0.99797 36.7019 107)">𝝅</text><text font-family="Cambria Math,Cambria Math_MSFontService,sans-serif" font-weight="400" font-size="10.6797" transform="matrix(1 0 0 0.99797 46.6969 110)">𝟏</text><path d="M34.8432 3.00465C36.231 3.3706 37.2968 4.16072 38.0405 5.37501 38.7843 6.5893 39.1562 8.0543 39.1562 9.76999 39.1562 11.4904 38.7855 12.9554 38.0441 14.165 37.3027 15.3745 36.2357 16.1623 34.8432 16.5282L34.6721 15.9793C35.77 15.6133 36.5862 14.8909 37.1209 13.8121 37.6556 12.7332 37.9229 11.3621 37.9229 9.6987 37.9229 8.09232 37.6568 6.75802 37.1245 5.69581 36.5922 4.6336 35.7676 3.91952 34.6507 3.55357ZM24.4286 3.00465 24.6211 3.55357C23.509 3.91952 22.6856 4.6336 22.151 5.69581 21.6163 6.75802 21.3489 8.09232 21.3489 9.6987 21.3489 11.3621 21.6163 12.7332 22.151 13.8121 22.6856 14.8909 23.5019 15.6133 24.5997 15.9793L24.4286 16.5282C23.0361 16.1623 21.9692 15.3745 21.2278 14.165 20.4864 12.9554 20.1156 11.4904 20.1156 9.76999 20.1156 8.0543 20.4875 6.5893 21.2313 5.37501 21.9751 4.16072 23.0409 3.3706 24.4286 3.00465Z" fill-rule="evenodd" transform="matrix(1.00203 0 0 1 34.7628 93.4132)"/><text font-family="Cambria Math,Cambria Math_MSFontService,sans-serif" font-weight="400" font-size="14.6297" transform="matrix(1 0 0 0.99797 59.7172 107)">𝑽</text><text font-family="Cambria Math,Cambria Math_MSFontService,sans-serif" font-weight="400" font-size="14.6297" transform="matrix(1 0 0 0.99797 98.8099 119)">𝒊′</text><text font-family="Cambria Math,Cambria Math_MSFontService,sans-serif" font-weight="400" font-size="10.6797" transform="matrix(1 0 0 0.99797 108.139 122)">∗</text><text font-family="Cambria Math,Cambria Math_MSFontService,sans-serif" font-weight="400" font-size="14.6297" transform="matrix(1 0 0 0.99797 148.638 68)">𝒋′</text><text font-family="Cambria Math,Cambria Math_MSFontService,sans-serif" font-weight="400" font-size="10.6797" transform="matrix(1 0 0 0.99797 158.133 71)">∗</text></g></svg>