<svg width="340" height="170" xmlns="http://www.w3.org/2000/svg" xmlns:xlink="http://www.w3.org/1999/xlink" overflow="hidden"><defs><clipPath id="clip0"><rect x="0" y="0" width="340" height="170"/></clipPath></defs><g clip-path="url(#clip0)"><rect x="0" y="0" width="340" height="170.083" fill="#FFFFFF"/><text font-family="Cambria Math,Cambria Math_MSFontService,sans-serif" font-weight="400" font-size="14.6667" transform="matrix(1 0 0 1.00049 11.501 26)">𝑼</text><text font-family="Cambria Math,Cambria Math_MSFontService,sans-serif" font-weight="400" font-size="14.6667" transform="matrix(1 0 0 1.00049 25.4209 26)">∩</text><text font-family="Cambria Math,Cambria Math_MSFontService,sans-serif" font-weight="400" font-size="14.6667" transform="matrix(1 0 0 1.00049 38.6744 26)">𝑽</text><text font-family="Cambria Math,Cambria Math_MSFontService,sans-serif" font-weight="400" font-size="14.6667" transform="matrix(1 0 0 1.00049 113.957 26)">𝑼</text><text font-family="Cambria Math,Cambria Math_MSFontService,sans-serif" font-weight="400" font-size="14.6667" transform="matrix(1 0 0 1.00049 108.879 102)">𝑿</text><text font-family="Cambria Math,Cambria Math_MSFontService,sans-serif" font-weight="400" font-size="14.6667" transform="matrix(1 0 0 1.00049 74.8036 19)">𝒊</text><text font-family="Cambria Math,Cambria Math_MSFontService,sans-serif" font-weight="400" font-size="14.6667" transform="matrix(1 0 0 1.00049 122.434 60)">𝒋′</text><path d="M0-0.66634 49.6808-0.66634 49.6808 0.66634 0 0.66634ZM42.0203-5.23995 51.0031 0 42.0203 5.23995C41.7024 5.42538 41.2944 5.31801 41.109 5.00013 40.9236 4.68225 41.0309 4.27424 41.3488 4.08881L49.3449-0.57557 49.3449 0.57557 41.3488-4.08881C41.0309-4.27424 40.9236-4.68225 41.109-5.00013 41.2944-5.31801 41.7024-5.42538 42.0203-5.23995Z" fill="#172C51" transform="matrix(1 0 0 -1.00049 58.5 26.513)"/><path d="M58.5 26.513C55.7385 26.513 53.5 24.0494 53.5 21.0103 53.5 17.9712 55.7385 15.5076 58.5 15.5076" stroke="#172C51" stroke-width="1.33268" stroke-miterlimit="8" fill="none" fill-rule="evenodd"/><path d="M0-0.66634 50.6806-0.66634 50.6806 0.66634 0 0.66634ZM43.0202-5.23995 52.003 0 43.0202 5.23995C42.7024 5.42538 42.2943 5.31801 42.1089 5.00013 41.9235 4.68225 42.0309 4.27424 42.3487 4.08881L50.3448-0.57557 50.3448 0.57557 42.3487-4.08881C42.0309-4.27424 41.9235-4.68225 42.1089-5.00013 42.2943-5.31801 42.7024-5.42538 43.0202-5.23995Z" fill="#172C51" transform="matrix(1 0 0 -1.00049 52.5 97.5478)"/><path d="M52.5 97.5478C49.7385 97.5478 47.5 95.3082 47.5 92.5453 47.5 89.7825 49.7385 87.5429 52.5 87.5429" stroke="#172C51" stroke-width="1.33268" stroke-miterlimit="8" fill="none" fill-rule="evenodd"/><path d="M0-0.66634 49.6808-0.66634 49.6808 0.66634 0 0.66634ZM42.0203-5.23995 51.0031 0 42.0203 5.23995C41.7024 5.42538 41.2944 5.31801 41.109 5.00013 40.9236 4.68225 41.0309 4.27424 41.3488 4.08881L49.3449-0.57557 49.3449 0.57557 41.3488-4.08881C41.0309-4.27424 40.9236-4.68225 41.109-5.00013 41.2944-5.31801 41.7024-5.42538 42.0203-5.23995Z" fill="#172C51" transform="matrix(6.12323e-17 1.00049 1 -6.12624e-17 114.5 36.5178)"/><path d="M114.5 36.5179C114.5 33.7551 116.962 31.5155 120 31.5155 123.038 31.5155 125.5 33.7551 125.5 36.5179" stroke="#172C51" stroke-width="1.33333" stroke-miterlimit="8" fill="none" fill-rule="evenodd"/><text font-family="Cambria Math,Cambria Math_MSFontService,sans-serif" font-weight="400" font-size="14.6667" transform="matrix(1 0 0 1.00049 25.454 97)">𝑽</text><path d="M0-0.66634 45.6808-0.66634 45.6808 0.66634 0 0.66634ZM38.0203-5.23995 47.003 0 38.0203 5.23995C37.7024 5.42538 37.2944 5.31801 37.1089 5.00013 36.9235 4.68225 37.0309 4.27424 37.3488 4.08881L45.3448-0.57557 45.3448 0.57557 37.3488-4.08881C37.0309-4.27424 36.9235-4.68225 37.1089-5.00013 37.2944-5.31801 37.7024-5.42538 38.0203-5.23995Z" fill="#172C51" transform="matrix(6.12323e-17 1.00049 1 -6.12624e-17 28.5 36.5179)"/><path d="M28.5 36.5179C28.5 33.7551 30.9624 31.5155 34 31.5155 37.0376 31.5155 39.5 33.7551 39.5 36.5179" stroke="#172C51" stroke-width="1.33333" stroke-miterlimit="8" fill="none" fill-rule="evenodd"/><text font-family="Cambria Math,Cambria Math_MSFontService,sans-serif" font-weight="400" font-size="14.6667" transform="matrix(1 0 0 1.00049 15.5977 60)">𝒋</text><text font-family="Cambria Math,Cambria Math_MSFontService,sans-serif" font-weight="400" font-size="14.6667" transform="matrix(1 0 0 1.00049 72.7597 113)">𝒊</text><text font-family="Cambria Math,Cambria Math_MSFontService,sans-serif" font-weight="400" font-size="14.6667" transform="matrix(1 0 0 1.00049 78.257 113)">′</text><text font-family="Cambria Math,Cambria Math_MSFontService,sans-serif" font-weight="400" font-size="14.6667" transform="matrix(1 0 0 1.00049 170.633 155)">∀</text><text font-family="Cambria Math,Cambria Math_MSFontService,sans-serif" font-weight="400" font-size="14.6667" transform="matrix(1 0 0 1.00049 179.795 155)">𝒀</text><path d="M122.936 104.047 126.965 107.54 126.092 108.548 122.064 105.055ZM129.986 110.16 134.014 113.653 133.142 114.661 129.113 111.168ZM137.036 116.273 141.064 119.766 140.191 120.773 136.163 117.28ZM144.085 122.385 148.114 125.878 147.241 126.886 143.212 123.393ZM151.135 128.498 155.163 131.991 154.29 132.999 150.262 129.506ZM158.185 134.611 162.213 138.104 161.34 139.111 157.312 135.618ZM165.234 140.723 166.939 142.202 166.067 143.21 164.361 141.731ZM164.146 133.725 167.502 143.572 157.282 141.648C156.921 141.58 156.683 141.232 156.751 140.87 156.819 140.508 157.167 140.27 157.529 140.338L166.626 142.051 165.872 142.921 162.885 134.155C162.766 133.807 162.952 133.428 163.3 133.309 163.649 133.19 164.027 133.376 164.146 133.725Z" fill="#172C51"/><path d="M129.012 29.088 138.486 40.4766 146.728 52.3676 153.829 64.7862 159.903 77.7794 165.059 91.3943 169.412 105.679 173.073 120.681 175.901 135.143 174.593 135.399 171.768 120.952 171.775 120.983 168.122 106.013 168.132 106.05 163.791 91.8042 163.805 91.8461 158.665 78.2753 158.685 78.3215 152.634 65.3759 152.659 65.4246 145.585 53.0548 145.616 53.1036 137.407 41.2604 137.443 41.307 127.988 29.9409ZM178.919 126.744 175.501 136.57 168.634 128.756C168.391 128.48 168.418 128.058 168.694 127.815 168.971 127.572 169.392 127.599 169.635 127.876L175.747 134.831 174.617 135.052 177.66 126.305C177.781 125.958 178.161 125.774 178.509 125.895 178.856 126.016 179.04 126.396 178.919 126.744Z" fill="#172C51"/><path d="M0.53478-0.397516 10.8114 13.4276 19.7479 27.8568 27.4479 42.9253 34.0327 58.6907 39.6239 75.2115 44.3438 92.5463 48.3146 110.755 51.4295 128.586 50.1167 128.815 47.0042 110.998 47.0095 111.025 43.0454 92.8469 43.0535 92.88 38.3434 75.5811 38.3551 75.6196 32.7777 59.1399 32.794 59.183 26.228 43.4625 26.2495 43.5089 18.5736 28.4876 18.6005 28.5353 9.69326 14.1533 9.72498 14.2-0.53478 0.397516ZM54.6166 120.253 51.0006 130.003 44.2931 122.056C44.0557 121.775 44.0913 121.354 44.3725 121.117 44.6537 120.88 45.0741 120.915 45.3115 121.196L51.2823 128.271 50.1483 128.469 53.3671 119.789C53.4951 119.444 53.8785 119.268 54.2236 119.396 54.5686 119.524 54.7446 119.908 54.6166 120.253Z" fill="#172C51" transform="matrix(1.83697e-16 1.00049 1 -1.83787e-16 33.5 101.55)"/><text font-family="Cambria Math,Cambria Math_MSFontService,sans-serif" font-weight="400" font-size="14.6667" transform="matrix(1 0 0 1.00049 64.6833 144)">∀</text><text font-family="Cambria Math,Cambria Math_MSFontService,sans-serif" font-weight="400" font-size="14.6667" transform="matrix(1 0 0 1.00049 73.8455 144)">𝒈</text><text font-family="Cambria Math,Cambria Math_MSFontService,sans-serif" font-weight="400" font-size="14.6667" transform="matrix(1 0 0 1.00049 160.143 75)">∀</text><text font-family="Cambria Math,Cambria Math_MSFontService,sans-serif" font-weight="400" font-size="14.6667" transform="matrix(1 0 0 1.00049 169.305 75)">𝒇</text><text font-family="Cambria Math,Cambria Math_MSFontService,sans-serif" font-weight="400" font-size="14.6667" transform="matrix(1 0 0 1.00049 111.787 129)">∃</text><text font-family="Cambria Math,Cambria Math_MSFontService,sans-serif" font-weight="400" font-size="14.6667" transform="matrix(1 0 0 1.00049 120.45 129)">!</text><text font-family="Cambria Math,Cambria Math_MSFontService,sans-serif" font-weight="400" font-size="14.6667" transform="matrix(1 0 0 1.00049 127.06 129)">𝒉</text><path d="M31.5902 3.01836C32.9843 3.38598 34.055 4.17971 34.8022 5.39954 35.5493 6.61938 35.9229 8.09106 35.9229 9.81458 35.9229 11.5429 35.5505 13.0146 34.8057 14.2296 34.0609 15.4447 32.9891 16.236 31.5902 16.6036L31.4184 16.0522C32.5212 15.6846 33.3412 14.9589 33.8783 13.8751 34.4154 12.7914 34.684 11.414 34.684 9.74297 34.684 8.12925 34.4166 6.78887 33.8819 5.72181 33.3472 4.65475 32.5188 3.93741 31.3969 3.56979ZM7.56079 3.01836 7.75415 3.56979C6.63697 3.93741 5.80982 4.65475 5.27271 5.72181 4.7356 6.78887 4.46704 8.12925 4.46704 9.74297 4.46704 11.414 4.7356 12.7914 5.27271 13.8751 5.80982 14.9589 6.62981 15.6846 7.73267 16.0522L7.56079 16.6036C6.16192 16.236 5.09009 15.4447 4.3453 14.2296 3.60051 13.0146 3.22811 11.5429 3.22811 9.81458 3.22811 8.09106 3.6017 6.61938 4.34888 5.39954 5.09606 4.17971 6.1667 3.38598 7.56079 3.01836Z" fill-rule="evenodd" transform="matrix(1 0 0 1.00049 285.624 70.0219)"/><text font-family="Cambria Math,Cambria Math_MSFontService,sans-serif" font-weight="400" font-size="14.6667" transform="matrix(1 0 0 1.00049 293.647 84)">𝟎</text><text font-family="Cambria Math,Cambria Math_MSFontService,sans-serif" font-weight="400" font-size="14.6667" transform="matrix(1 0 0 1.00049 302.476 84)">.</text><text font-family="Cambria Math,Cambria Math_MSFontService,sans-serif" font-weight="400" font-size="14.6667" transform="matrix(1 0 0 1.00049 307.92 84)">𝟑</text></g></svg>