<svg width="378" height="132" xmlns="http://www.w3.org/2000/svg" xmlns:xlink="http://www.w3.org/1999/xlink" overflow="hidden"><defs><clipPath id="clip0"><rect x="0" y="0" width="378" height="132"/></clipPath></defs><g clip-path="url(#clip0)"><rect x="0" y="0" width="378" height="131.668" fill="#FFFFFF"/><text font-family="Cambria Math,Cambria Math_MSFontService,sans-serif" font-weight="400" font-size="14.6297" transform="matrix(1 0 0 0.997481 65.3959 39)">π‘Ό</text><text font-family="Cambria Math,Cambria Math_MSFontService,sans-serif" font-weight="400" font-size="14.6297" transform="matrix(1 0 0 0.997481 79.3226 39)">Γ—</text><text font-family="Cambria Math,Cambria Math_MSFontService,sans-serif" font-weight="400" font-size="14.6297" transform="matrix(1 0 0 0.997481 93.0826 39)">π‘Ύ</text><text font-family="Cambria Math,Cambria Math_MSFontService,sans-serif" font-weight="400" font-size="14.6297" transform="matrix(1 0 0 0.997481 200.469 39)">π‘»</text><text font-family="Cambria Math,Cambria Math_MSFontService,sans-serif" font-weight="400" font-size="14.6297" transform="matrix(1 0 0 0.997481 193.403 116)">β€</text><text font-family="Cambria Math,Cambria Math_MSFontService,sans-serif" font-weight="400" font-size="14.6297" transform="matrix(1 0 0 0.997481 202.569 116)">π‘Ύ</text><text font-family="Cambria Math,Cambria Math_MSFontService,sans-serif" font-weight="400" font-size="14.6297" transform="matrix(1 0 0 0.997481 78.5451 85)">β€</text><text font-family="MS Mincho,MS Mincho_MSFontService,sans-serif" font-weight="400" font-size="14.6297" transform="matrix(1 0 0 0.997481 87.7118 85)">ε</text><text font-family="MS Mincho,MS Mincho_MSFontService,sans-serif" font-weight="400" font-size="14.6297" transform="matrix(1 0 0 0.997481 102.378 85)">η·ε½Ά</text><text font-family="Cambria Math,Cambria Math_MSFontService,sans-serif" font-weight="400" font-size="14.6297" transform="matrix(1 0 0 0.997481 131.712 85)"></text><text font-family="Cambria Math,Cambria Math_MSFontService,sans-serif" font-weight="400" font-size="14.6297" transform="matrix(1 0 0 0.997481 134.878 85)">π’‡</text><text font-family="Cambria Math,Cambria Math_MSFontService,sans-serif" font-weight="400" font-size="14.6297" transform="matrix(1 0 0 0.997481 150.566 26)">π’ƒ</text><text font-family="Cambria Math,Cambria Math_MSFontService,sans-serif" font-weight="400" font-size="14.6297" transform="matrix(1 0 0 0.997481 209.155 70)">βƒ</text><text font-family="Cambria Math,Cambria Math_MSFontService,sans-serif" font-weight="400" font-size="14.6297" transform="matrix(1 0 0 0.997481 217.821 70)">!</text><text font-family="MS Mincho,MS Mincho_MSFontService,sans-serif" font-weight="400" font-size="14.6297" transform="matrix(1 0 0 0.997481 224.435 70)">η·ε½Ά</text><text font-family="Cambria Math,Cambria Math_MSFontService,sans-serif" font-weight="400" font-size="14.6297" transform="matrix(1 0 0 0.997481 253.768 70)"></text><text font-family="Cambria Math,Cambria Math_MSFontService,sans-serif" font-weight="400" font-size="14.6297" transform="matrix(1 0 0 0.997481 256.935 70)"></text><text font-family="Cambria Math,Cambria Math_MSFontService,sans-serif" font-weight="400" font-size="14.6297" transform="matrix(1 0 0 0.997481 260.101 70)">π’‡</text><path d="M8.29351-8.55067 0-8.55067 0-9.30788 8.29351-9.30788Z" transform="matrix(1 0 0 0.997481 260.115 67)"/><text fill="#000000" fill-opacity="0" font-family="Arial,Arial_MSFontService,sans-serif" font-size="0.757203" y="-8.64532">ΰ΄¥</text><path d="M111.5 34.7456 195.18 34.7456 195.18 36.0756 111.5 36.0756ZM187.516 30.1813 196.503 35.4106 187.516 40.6399C187.198 40.825 186.79 40.7178 186.604 40.4006 186.419 40.0834 186.526 39.6762 186.844 39.4911L194.844 34.8362 194.844 35.985 186.844 31.3301C186.526 31.1451 186.419 30.7379 186.604 30.4207 186.79 30.1034 187.198 29.9963 187.516 30.1813Z" fill="#172C51"/><path d="M107.899 40.8628 189.841 101.918 189.043 102.984 107.101 41.9283ZM186.44 93.6868 190.503 103.241 180.165 102.066C179.799 102.024 179.536 101.695 179.578 101.33 179.62 100.965 179.95 100.703 180.316 100.744L189.518 101.791 188.829 102.711 185.212 94.2062C185.069 93.868 185.227 93.4777 185.566 93.3343 185.905 93.1909 186.296 93.3487 186.44 93.6868Z" fill="#172C51"/><path d="M206.167 44.388 206.167 49.7079 204.833 49.7079 204.833 44.388ZM206.167 53.6978 206.167 59.0177 204.833 59.0177 204.833 53.6978ZM206.167 63.0076 206.167 68.3275 204.833 68.3275 204.833 63.0076ZM206.167 72.3174 206.167 77.6373 204.833 77.6373 204.833 72.3174ZM206.167 81.6273 206.167 86.9472 204.833 86.9472 204.833 81.6273ZM206.167 90.9371 206.167 96.257 204.833 96.257 204.833 90.9371ZM210.743 92.2829 205.5 101.247 200.258 92.2829C200.072 91.9657 200.179 91.5585 200.497 91.3735 200.816 91.1884 201.224 91.2956 201.409 91.6128L206.076 99.5927 204.924 99.5927 209.591 91.6128C209.776 91.2956 210.185 91.1884 210.503 91.3735 210.821 91.5585 210.928 91.9657 210.743 92.2829Z" fill="#172C51"/><path d="M31.5247 3.00317C32.9118 3.36894 33.9771 4.15868 34.7205 5.37238 35.4639 6.58607 35.8356 8.05035 35.8356 9.7652 35.8356 11.4848 35.4651 12.9491 34.724 14.158 33.983 15.367 32.9165 16.1543 31.5247 16.5201L31.3537 15.9714C32.451 15.6057 33.2669 14.8836 33.8013 13.8053 34.3357 12.727 34.6029 11.3565 34.6029 9.69395 34.6029 8.08835 34.3369 6.75471 33.8049 5.69302 33.2728 4.63133 32.4486 3.9176 31.3323 3.55183ZM7.52857 3.00317 7.72096 3.55183C6.60939 3.9176 5.78641 4.63133 5.252 5.69302 4.71759 6.75471 4.45039 8.08835 4.45039 9.69395 4.45039 11.3565 4.71759 12.727 5.252 13.8053 5.78641 14.8836 6.60227 15.6057 7.69958 15.9714L7.52857 16.5201C6.13674 16.1543 5.0703 15.367 4.32926 14.158 3.58821 12.9491 3.21769 11.4848 3.21769 9.7652 3.21769 8.05035 3.5894 6.58607 4.33282 5.37238 5.07624 4.15868 6.14149 3.36894 7.52857 3.00317Z" fill-rule="evenodd" transform="matrix(1.00253 0 0 1 334.161 55.6585)"/><text font-family="Cambria Math,Cambria Math_MSFontService,sans-serif" font-weight="400" font-size="14.6297" transform="matrix(1 0 0 0.997481 342.187 70)">π</text><text font-family="Cambria Math,Cambria Math_MSFontService,sans-serif" font-weight="400" font-size="14.6297" transform="matrix(1 0 0 0.997481 351.021 70)">.</text><text font-family="Cambria Math,Cambria Math_MSFontService,sans-serif" font-weight="400" font-size="14.6297" transform="matrix(1 0 0 0.997481 356.467 70)">π</text></g></svg>