<svg width="340" height="123" xmlns="http://www.w3.org/2000/svg" xmlns:xlink="http://www.w3.org/1999/xlink" overflow="hidden"><defs><clipPath id="clip0"><rect x="0" y="0" width="340" height="123"/></clipPath></defs><g clip-path="url(#clip0)"><rect x="0" y="0" width="340" height="123.227" fill="#FFFFFF"/><text font-family="Cambria Math,Cambria Math_MSFontService,sans-serif" font-weight="400" font-size="14.6866" transform="matrix(1 0 0 1.00185 11.501 29)">𝑼</text><text font-family="Cambria Math,Cambria Math_MSFontService,sans-serif" font-weight="400" font-size="14.6866" transform="matrix(1 0 0 1.00185 25.4209 29)">∩</text><text font-family="Cambria Math,Cambria Math_MSFontService,sans-serif" font-weight="400" font-size="14.6866" transform="matrix(1 0 0 1.00185 38.6744 29)">𝑽</text><text font-family="Cambria Math,Cambria Math_MSFontService,sans-serif" font-weight="400" font-size="14.6866" transform="matrix(1 0 0 1.00185 113.957 29)">𝑼</text><text font-family="Cambria Math,Cambria Math_MSFontService,sans-serif" font-weight="400" font-size="14.6866" transform="matrix(1 0 0 1.00185 108.879 105)">𝑿</text><text font-family="Cambria Math,Cambria Math_MSFontService,sans-serif" font-weight="400" font-size="14.6866" transform="matrix(1 0 0 1.00185 74.8036 22)">𝒊</text><text font-family="Cambria Math,Cambria Math_MSFontService,sans-serif" font-weight="400" font-size="14.6866" transform="matrix(1 0 0 1.00185 122.434 63)">𝒋′</text><path d="M0-0.66634 49.6808-0.66634 49.6808 0.66634 0 0.66634ZM42.0203-5.23995 51.0031 0 42.0203 5.23995C41.7024 5.42538 41.2944 5.31801 41.109 5.00013 40.9236 4.68225 41.0309 4.27424 41.3488 4.08881L49.3449-0.57557 49.3449 0.57557 41.3488-4.08881C41.0309-4.27424 40.9236-4.68225 41.109-5.00013 41.2944-5.31801 41.7024-5.42538 42.0203-5.23995Z" fill="#172C51" transform="matrix(1 0 0 -1.00185 58.5 29.5545)"/><path d="M58.5 29.5545C55.7385 29.5545 53.5 27.0876 53.5 24.0443 53.5 21.0011 55.7385 18.5342 58.5 18.5342" stroke="#172C51" stroke-width="1.33268" stroke-miterlimit="8" fill="none" fill-rule="evenodd"/><path d="M0-0.66634 50.6806-0.66634 50.6806 0.66634 0 0.66634ZM43.0202-5.23995 52.003 0 43.0202 5.23995C42.7024 5.42538 42.2943 5.31801 42.1089 5.00013 41.9235 4.68225 42.0309 4.27424 42.3487 4.08881L50.3448-0.57557 50.3448 0.57557 42.3487-4.08881C42.0309-4.27424 41.9235-4.68225 42.1089-5.00013 42.2943-5.31801 42.7024-5.42538 43.0202-5.23995Z" fill="#172C51" transform="matrix(1 0 0 -1.00185 52.5 100.686)"/><path d="M52.5 100.686C49.7385 100.686 47.5 98.443 47.5 95.6765 47.5 92.9099 49.7385 90.6672 52.5 90.6672" stroke="#172C51" stroke-width="1.33268" stroke-miterlimit="8" fill="none" fill-rule="evenodd"/><path d="M0-0.66634 50.6807-0.66634 50.6807 0.66634 0 0.66634ZM43.0203-5.23995 52.0031 0 43.0203 5.23995C42.7025 5.42538 42.2944 5.31801 42.109 5.00013 41.9236 4.68225 42.031 4.27424 42.3488 4.08881L50.3449-0.57557 50.3449 0.57557 42.3488-4.08881C42.031-4.27424 41.9236-4.68225 42.109-5.00013 42.2944-5.31801 42.7025-5.42538 43.0203-5.23995Z" fill="#172C51" transform="matrix(6.12323e-17 1.00185 1 -6.13455e-17 114.5 38.5711)"/><path d="M114.5 38.5711C114.5 35.8046 116.962 33.5619 120 33.5619 123.038 33.5619 125.5 35.8046 125.5 38.5711" stroke="#172C51" stroke-width="1.33514" stroke-miterlimit="8" fill="none" fill-rule="evenodd"/><text font-family="Cambria Math,Cambria Math_MSFontService,sans-serif" font-weight="400" font-size="14.6866" transform="matrix(1 0 0 1.00185 25.454 100)">𝑽</text><path d="M0-0.66634 45.6808-0.66634 45.6808 0.66634 0 0.66634ZM38.0203-5.23995 47.003 0 38.0203 5.23995C37.7024 5.42538 37.2944 5.31801 37.1089 5.00013 36.9235 4.68225 37.0309 4.27424 37.3488 4.08881L45.3448-0.57557 45.3448 0.57557 37.3488-4.08881C37.0309-4.27424 36.9235-4.68225 37.1089-5.00013 37.2944-5.31801 37.7024-5.42538 38.0203-5.23995Z" fill="#172C51" transform="matrix(6.12323e-17 1.00185 1 -6.13455e-17 28.5 39.573)"/><path d="M28.5 39.573C28.5 36.8064 30.9624 34.5638 34 34.5638 37.0376 34.5638 39.5 36.8064 39.5 39.573" stroke="#172C51" stroke-width="1.33514" stroke-miterlimit="8" fill="none" fill-rule="evenodd"/><text font-family="Cambria Math,Cambria Math_MSFontService,sans-serif" font-weight="400" font-size="14.6866" transform="matrix(1 0 0 1.00185 15.5977 63)">𝒋</text><text font-family="Cambria Math,Cambria Math_MSFontService,sans-serif" font-weight="400" font-size="14.6866" transform="matrix(1 0 0 1.00185 72.7597 116)">𝒊</text><text font-family="Cambria Math,Cambria Math_MSFontService,sans-serif" font-weight="400" font-size="14.6866" transform="matrix(1 0 0 1.00185 78.257 116)">′</text></g></svg>