<svg width="491" height="113" xmlns="http://www.w3.org/2000/svg" xmlns:xlink="http://www.w3.org/1999/xlink" overflow="hidden"><g><rect x="0" y="0" width="491" height="112.744" fill="#FFFFFF"/><path d="M16.5 37.4152C16.5 34.1089 19.1863 31.4287 22.5001 31.4287L46.4999 31.4287C49.8137 31.4287 52.5 34.1089 52.5 37.4152L52.5 76.3267C52.5 79.6329 49.8137 82.3132 46.4999 82.3132L22.5001 82.3132C19.1863 82.3132 16.5 79.6329 16.5 76.3267Z" stroke="#172C51" stroke-width="1.33243" stroke-miterlimit="8" fill="#F2F2F2" fill-rule="evenodd"/><text font-family="Cambria Math,Cambria Math_MSFontService,sans-serif" font-weight="400" font-size="14.6235" transform="matrix(1 0 0 0.997736 25.0055 62)">𝒙</text><text font-family="Cambria Math,Cambria Math_MSFontService,sans-serif" font-weight="400" font-size="10.6752" transform="matrix(1 0 0 0.997736 33.4998 65)">𝟎</text><path d="M126.5 37.4152C126.5 34.1089 129.186 31.4287 132.5 31.4287L156.5 31.4287C159.814 31.4287 162.5 34.1089 162.5 37.4152L162.5 76.3267C162.5 79.6329 159.814 82.3132 156.5 82.3132L132.5 82.3132C129.186 82.3132 126.5 79.6329 126.5 76.3267Z" stroke="#172C51" stroke-width="1.33243" stroke-miterlimit="8" fill="#F2F2F2" fill-rule="evenodd"/><text font-family="Cambria Math,Cambria Math_MSFontService,sans-serif" font-weight="400" font-size="14.6235" transform="matrix(1 0 0 0.997736 134.485 62)">𝒙</text><text font-family="Cambria Math,Cambria Math_MSFontService,sans-serif" font-weight="400" font-size="10.6752" transform="matrix(1 0 0 0.997736 142.979 65)">𝟏</text><path d="M250.5 37.4152C250.5 34.1089 253.186 31.4287 256.5 31.4287L280.5 31.4287C283.814 31.4287 286.5 34.1089 286.5 37.4152L286.5 76.3267C286.5 79.6329 283.814 82.3132 280.5 82.3132L256.5 82.3132C253.186 82.3132 250.5 79.6329 250.5 76.3267Z" stroke="#172C51" stroke-width="1.33243" stroke-miterlimit="8" fill="#F2F2F2" fill-rule="evenodd"/><text font-family="Cambria Math,Cambria Math_MSFontService,sans-serif" font-weight="400" font-size="14.6235" transform="matrix(1 0 0 0.997736 258.444 62)">𝒙</text><text font-family="Cambria Math,Cambria Math_MSFontService,sans-serif" font-weight="400" font-size="10.6752" transform="matrix(1 0 0 0.997736 266.939 65)">𝟐</text><path d="M440.5 37.4152C440.5 34.1089 443.186 31.4287 446.5 31.4287L470.5 31.4287C473.814 31.4287 476.5 34.1089 476.5 37.4152L476.5 76.3267C476.5 79.6329 473.814 82.3132 470.5 82.3132L446.5 82.3132C443.186 82.3132 440.5 79.6329 440.5 76.3267Z" stroke="#172C51" stroke-width="1.33243" stroke-miterlimit="8" fill="#F2F2F2" fill-rule="evenodd"/><text font-family="Cambria Math,Cambria Math_MSFontService,sans-serif" font-weight="400" font-size="14.6235" transform="matrix(1 0 0 0.997736 448.733 62)">𝒙</text><text font-family="Cambria Math,Cambria Math_MSFontService,sans-serif" font-weight="400" font-size="10.6752" transform="matrix(1 0 0 0.997736 457.227 65)">𝑳</text><path d="M53.5 51.7164 120.386 51.7165 120.386 53.0459 53.5 53.0458ZM119.054 48.393 127.048 52.3812 119.054 56.3695Z"/><path d="M59.1621 61.6938 126.048 61.6939 126.048 63.0233 59.1621 63.0232ZM60.4946 66.3468 52.5 62.3585 60.4946 58.3703Z"/><text font-family="Cambria Math,Cambria Math_MSFontService,sans-serif" font-weight="400" font-size="14.6235" transform="matrix(1 0 0 0.997736 60.2639 43)">𝒑</text><path d="M59.2297 3.00267C60.6166 3.36838 61.6816 4.15798 62.4249 5.37147 63.1682 6.58497 63.5399 8.049 63.5399 9.76356 63.5399 11.4829 63.1694 12.9469 62.4285 14.1556 61.6876 15.3644 60.6213 16.1516 59.2297 16.5173L59.0587 15.9688C60.1559 15.6031 60.9716 14.8811 61.5059 13.803 62.0402 12.7249 62.3074 11.3546 62.3074 9.69232 62.3074 8.08699 62.0414 6.75357 61.5095 5.69206 60.9775 4.63055 60.1535 3.91694 59.0374 3.55123ZM22.8483 3.00267 23.0406 3.55123C21.9293 3.91694 21.1064 4.63055 20.5721 5.69206 20.0378 6.75357 19.7706 8.08699 19.7706 9.69232 19.7706 11.3546 20.0378 12.7249 20.5721 13.803 21.1064 14.8811 21.9221 15.6031 23.0193 15.9688L22.8483 16.5173C21.4567 16.1516 20.3904 15.3644 19.6495 14.1556 18.9086 12.9469 18.5381 11.4829 18.5381 9.76356 18.5381 8.049 18.9098 6.58497 19.6531 5.37147 20.3964 4.15798 21.4614 3.36838 22.8483 3.00267Z" fill-rule="evenodd" transform="matrix(1.00227 0 0 1 52.1294 29.2889)"/><text font-family="Cambria Math,Cambria Math_MSFontService,sans-serif" font-weight="400" font-size="14.6235" transform="matrix(1 0 0 0.997736 75.5069 43)">𝒙</text><text font-family="Cambria Math,Cambria Math_MSFontService,sans-serif" font-weight="400" font-size="10.6752" transform="matrix(1 0 0 0.997736 84.0011 46)">𝟏</text><text font-family="Cambria Math,Cambria Math_MSFontService,sans-serif" font-weight="400" font-size="14.6235" transform="matrix(1 0 0 0.997736 90.9364 43)">|</text><text font-family="Cambria Math,Cambria Math_MSFontService,sans-serif" font-weight="400" font-size="14.6235" transform="matrix(1 0 0 0.997736 95.5999 43)">𝒙</text><text font-family="Cambria Math,Cambria Math_MSFontService,sans-serif" font-weight="400" font-size="10.6752" transform="matrix(1 0 0 0.997736 104.094 46)">𝟎</text><text font-family="Cambria Math,Cambria Math_MSFontService,sans-serif" font-weight="400" font-size="14.6235" transform="matrix(1 0 0 0.997736 58.1768 78)">𝒑</text><text font-family="Cambria Math,Cambria Math_MSFontService,sans-serif" font-weight="400" font-size="10.6752" transform="matrix(1 0 0 0.997736 67.3373 81)">𝝓</text><path d="M63.6035 3.00267C64.9903 3.36838 66.0554 4.15798 66.7987 5.37147 67.542 6.58497 67.9136 8.049 67.9136 9.76356 67.9136 11.4829 67.5432 12.9469 66.8023 14.1556 66.0613 15.3644 64.9951 16.1516 63.6035 16.5173L63.4325 15.9688C64.5296 15.6031 65.3454 14.8811 65.8797 13.803 66.414 12.7249 66.6811 11.3546 66.6811 9.69232 66.6811 8.08699 66.4152 6.75357 65.8832 5.69206 65.3513 4.63055 64.5273 3.91694 63.4111 3.55123ZM27.222 3.00267 27.4144 3.55123C26.303 3.91694 25.4802 4.63055 24.9459 5.69206 24.4115 6.75357 24.1444 8.08699 24.1444 9.69232 24.1444 11.3546 24.4115 12.7249 24.9459 13.803 25.4802 14.8811 26.2959 15.6031 27.393 15.9688L27.222 16.5173C25.8304 16.1516 24.7642 15.3644 24.0233 14.1556 23.2823 12.9469 22.9119 11.4829 22.9119 9.76356 22.9119 8.049 23.2835 6.58497 24.0268 5.37147 24.7701 4.15798 25.8352 3.36838 27.222 3.00267Z" fill-rule="evenodd" transform="matrix(1.00227 0 0 1 54.426 64.102)"/><text font-family="Cambria Math,Cambria Math_MSFontService,sans-serif" font-weight="400" font-size="14.6235" transform="matrix(1 0 0 0.997736 82.1872 78)">𝒙</text><text font-family="Cambria Math,Cambria Math_MSFontService,sans-serif" font-weight="400" font-size="10.6752" transform="matrix(1 0 0 0.997736 90.6814 81)">𝟎</text><text font-family="Cambria Math,Cambria Math_MSFontService,sans-serif" font-weight="400" font-size="14.6235" transform="matrix(1 0 0 0.997736 97.6167 78)">|</text><text font-family="Cambria Math,Cambria Math_MSFontService,sans-serif" font-weight="400" font-size="14.6235" transform="matrix(1 0 0 0.997736 102.28 78)">𝒙</text><text font-family="Cambria Math,Cambria Math_MSFontService,sans-serif" font-weight="400" font-size="10.6752" transform="matrix(1 0 0 0.997736 110.774 81)">𝟏</text><path d="M162.5 51.7164 243.656 51.7165 243.656 53.0459 162.5 53.0458ZM242.323 48.393 250.318 52.3812 242.323 56.3695Z"/><path d="M170.162 61.6938 251.318 61.6939 251.318 63.0233 170.162 63.0232ZM171.495 66.3468 163.5 62.3585 171.495 58.3703Z"/><text font-family="Cambria Math,Cambria Math_MSFontService,sans-serif" font-weight="400" font-size="14.6235" transform="matrix(1 0 0 0.997736 178.031 43)">𝒑</text><path d="M68.1168 3.00267C69.5037 3.36838 70.5688 4.15798 71.312 5.37147 72.0554 6.58497 72.427 8.049 72.427 9.76356 72.427 11.4829 72.0565 12.9469 71.3156 14.1556 70.5747 15.3644 69.5084 16.1516 68.1168 16.5173L67.9459 15.9688C69.043 15.6031 69.8587 14.8811 70.393 13.803 70.9273 12.7249 71.1945 11.3546 71.1945 9.69232 71.1945 8.08699 70.9285 6.75357 70.3966 5.69206 69.8646 4.63055 69.0406 3.91694 67.9245 3.55123ZM31.7354 3.00267 31.9278 3.55123C30.8164 3.91694 29.9935 4.63055 29.4592 5.69206 28.9249 6.75357 28.6577 8.08699 28.6577 9.69232 28.6577 11.3546 28.9249 12.7249 29.4592 13.803 29.9935 14.8811 30.8093 15.6031 31.9064 15.9688L31.7354 16.5173C30.3438 16.1516 29.2775 15.3644 28.5366 14.1556 27.7957 12.9469 27.4252 11.4829 27.4252 9.76356 27.4252 8.049 27.7969 6.58497 28.5402 5.37147 29.2835 4.15798 30.3486 3.36838 31.7354 3.00267Z" fill-rule="evenodd" transform="matrix(1.00227 0 0 1 160.989 29.2889)"/><text font-family="Cambria Math,Cambria Math_MSFontService,sans-serif" font-weight="400" font-size="14.6235" transform="matrix(1 0 0 0.997736 193.274 43)">𝒙</text><text font-family="Cambria Math,Cambria Math_MSFontService,sans-serif" font-weight="400" font-size="10.6752" transform="matrix(1 0 0 0.997736 201.768 46)">𝟐</text><text font-family="Cambria Math,Cambria Math_MSFontService,sans-serif" font-weight="400" font-size="14.6235" transform="matrix(1 0 0 0.997736 208.703 43)">|</text><text font-family="Cambria Math,Cambria Math_MSFontService,sans-serif" font-weight="400" font-size="14.6235" transform="matrix(1 0 0 0.997736 213.367 43)">𝒙</text><text font-family="Cambria Math,Cambria Math_MSFontService,sans-serif" font-weight="400" font-size="10.6752" transform="matrix(1 0 0 0.997736 221.861 46)">𝟏</text><text font-family="Cambria Math,Cambria Math_MSFontService,sans-serif" font-weight="400" font-size="14.6235" transform="matrix(1 0 0 0.997736 176.389 78)">𝒑</text><text font-family="Cambria Math,Cambria Math_MSFontService,sans-serif" font-weight="400" font-size="10.6752" transform="matrix(1 0 0 0.997736 185.549 81)">𝝓</text><path d="M72.4906 3.00267C73.8774 3.36838 74.9425 4.15798 75.6858 5.37147 76.4291 6.58497 76.8008 8.049 76.8008 9.76356 76.8008 11.4829 76.4303 12.9469 75.6894 14.1556 74.9485 15.3644 73.8822 16.1516 72.4906 16.5173L72.3196 15.9688C73.4168 15.6031 74.2325 14.8811 74.7668 13.803 75.3011 12.7249 75.5683 11.3546 75.5683 9.69232 75.5683 8.08699 75.3023 6.75357 74.7704 5.69206 74.2384 4.63055 73.4144 3.91694 72.2982 3.55123ZM36.1092 3.00267 36.3015 3.55123C35.1901 3.91694 34.3673 4.63055 33.833 5.69206 33.2987 6.75357 33.0315 8.08699 33.0315 9.69232 33.0315 11.3546 33.2987 12.7249 33.833 13.803 34.3673 14.8811 35.183 15.6031 36.2801 15.9688L36.1092 16.5173C34.7176 16.1516 33.6513 15.3644 32.9104 14.1556 32.1695 12.9469 31.799 11.4829 31.799 9.76356 31.799 8.049 32.1707 6.58497 32.9139 5.37147 33.6572 4.15798 34.7223 3.36838 36.1092 3.00267Z" fill-rule="evenodd" transform="matrix(1.00227 0 0 1 163.731 64.102)"/><text font-family="Cambria Math,Cambria Math_MSFontService,sans-serif" font-weight="400" font-size="14.6235" transform="matrix(1 0 0 0.997736 200.399 78)">𝒙</text><text font-family="Cambria Math,Cambria Math_MSFontService,sans-serif" font-weight="400" font-size="10.6752" transform="matrix(1 0 0 0.997736 208.893 81)">𝟏</text><text font-family="Cambria Math,Cambria Math_MSFontService,sans-serif" font-weight="400" font-size="14.6235" transform="matrix(1 0 0 0.997736 215.829 78)">|</text><text font-family="Cambria Math,Cambria Math_MSFontService,sans-serif" font-weight="400" font-size="14.6235" transform="matrix(1 0 0 0.997736 220.492 78)">𝒙</text><text font-family="Cambria Math,Cambria Math_MSFontService,sans-serif" font-weight="400" font-size="10.6752" transform="matrix(1 0 0 0.997736 228.986 81)">𝟐</text><path d="M286.5 51.7164 308.294 51.7165 308.294 53.0459 286.5 53.0458ZM306.962 48.393 314.956 52.3812 306.962 56.3694Z"/><path d="M292.162 61.6938 313.956 61.6939 313.956 63.0233 292.162 63.0233ZM293.495 66.3468 285.5 62.3585 293.495 58.3703Z"/><path d="M352.5 51.7164 433.656 51.7165 433.656 53.0459 352.5 53.0458ZM432.324 48.393 440.318 52.3812 432.324 56.3695Z"/><path d="M358.162 61.6938 439.318 61.6939 439.318 63.0233 358.162 63.0232ZM359.495 66.3468 351.5 62.3585 359.495 58.3703Z"/><text font-family="Cambria Math,Cambria Math_MSFontService,sans-serif" font-weight="400" font-size="14.6235" transform="matrix(1 0 0 0.997736 359.658 43)">𝒑</text><path d="M74.8503 3.00267C76.2372 3.36838 77.3022 4.15798 78.0455 5.37147 78.7888 6.58497 79.1605 8.049 79.1605 9.76356 79.1605 11.4829 78.79 12.9469 78.0491 14.1556 77.3082 15.3644 76.2419 16.1516 74.8503 16.5173L74.6793 15.9688C75.7765 15.6031 76.5922 14.8811 77.1265 13.803 77.6608 12.7249 77.928 11.3546 77.928 9.69232 77.928 8.08699 77.662 6.75357 77.1301 5.69206 76.5981 4.63055 75.7741 3.91694 74.658 3.55123ZM25.0086 3.00267 25.2009 3.55123C24.0896 3.91694 23.2667 4.63055 22.7324 5.69206 22.1981 6.75357 21.9309 8.08699 21.9309 9.69232 21.9309 11.3546 22.1981 12.7249 22.7324 13.803 23.2667 14.8811 24.0824 15.6031 25.1796 15.9688L25.0086 16.5173C23.617 16.1516 22.5507 15.3644 21.8098 14.1556 21.0689 12.9469 20.6984 11.4829 20.6984 9.76356 20.6984 8.049 21.0701 6.58497 21.8134 5.37147 22.5567 4.15798 23.6217 3.36838 25.0086 3.00267Z" fill-rule="evenodd" transform="matrix(1.00227 0 0 1 349.359 29.2889)"/><text font-family="Cambria Math,Cambria Math_MSFontService,sans-serif" font-weight="400" font-size="14.6235" transform="matrix(1 0 0 0.997736 374.901 43)">𝒙</text><text font-family="Cambria Math,Cambria Math_MSFontService,sans-serif" font-weight="400" font-size="10.6752" transform="matrix(1 0 0 0.997736 383.396 46)">𝑳</text><text font-family="Cambria Math,Cambria Math_MSFontService,sans-serif" font-weight="400" font-size="14.6235" transform="matrix(1 0 0 0.997736 389.998 43)">|</text><text font-family="Cambria Math,Cambria Math_MSFontService,sans-serif" font-weight="400" font-size="14.6235" transform="matrix(1 0 0 0.997736 394.661 43)">𝒙</text><text font-family="Cambria Math,Cambria Math_MSFontService,sans-serif" font-weight="400" font-size="10.6752" transform="matrix(1 0 0 0.997736 403.155 46)">𝑳</text><text font-family="Cambria Math,Cambria Math_MSFontService,sans-serif" font-weight="400" font-size="10.6752" transform="matrix(1 0 0 0.997736 409.151 46)">−</text><text font-family="Cambria Math,Cambria Math_MSFontService,sans-serif" font-weight="400" font-size="10.6752" transform="matrix(1 0 0 0.997736 416.979 46)">𝟏</text><text font-family="Cambria Math,Cambria Math_MSFontService,sans-serif" font-weight="400" font-size="14.6235" transform="matrix(1 0 0 0.997736 358.017 78)">𝒑</text><text font-family="Cambria Math,Cambria Math_MSFontService,sans-serif" font-weight="400" font-size="10.6752" transform="matrix(1 0 0 0.997736 367.177 81)">𝝓</text><path d="M79.2241 3.00267C80.6109 3.36838 81.676 4.15798 82.4193 5.37147 83.1626 6.58497 83.5342 8.049 83.5342 9.76356 83.5342 11.4829 83.1638 12.9469 82.4229 14.1556 81.6819 15.3644 80.6157 16.1516 79.2241 16.5173L79.0531 15.9688C80.1502 15.6031 80.9659 14.8811 81.5003 13.803 82.0346 12.7249 82.3017 11.3546 82.3017 9.69232 82.3017 8.08699 82.0358 6.75357 81.5038 5.69206 80.9719 4.63055 80.1479 3.91694 79.0317 3.55123ZM29.3823 3.00267 29.5747 3.55123C28.4633 3.91694 27.6405 4.63055 27.1062 5.69206 26.5718 6.75357 26.3047 8.08699 26.3047 9.69232 26.3047 11.3546 26.5718 12.7249 27.1062 13.803 27.6405 14.8811 28.4562 15.6031 29.5533 15.9688L29.3823 16.5173C27.9907 16.1516 26.9245 15.3644 26.1836 14.1556 25.4426 12.9469 25.0722 11.4829 25.0722 9.76356 25.0722 8.049 25.4438 6.58497 26.1871 5.37147 26.9304 4.15798 27.9955 3.36838 29.3823 3.00267Z" fill-rule="evenodd" transform="matrix(1.00227 0 0 1 352.101 64.102)"/><text font-family="Cambria Math,Cambria Math_MSFontService,sans-serif" font-weight="400" font-size="14.6235" transform="matrix(1 0 0 0.997736 382.027 78)">𝒙</text><text font-family="Cambria Math,Cambria Math_MSFontService,sans-serif" font-weight="400" font-size="10.6752" transform="matrix(1 0 0 0.997736 390.521 81)">𝑳</text><text font-family="Cambria Math,Cambria Math_MSFontService,sans-serif" font-weight="400" font-size="10.6752" transform="matrix(1 0 0 0.997736 396.517 81)">−</text><text font-family="Cambria Math,Cambria Math_MSFontService,sans-serif" font-weight="400" font-size="10.6752" transform="matrix(1 0 0 0.997736 404.345 81)">𝟏</text><text font-family="Cambria Math,Cambria Math_MSFontService,sans-serif" font-weight="400" font-size="14.6235" transform="matrix(1 0 0 0.997736 411.281 78)">|</text><text font-family="Cambria Math,Cambria Math_MSFontService,sans-serif" font-weight="400" font-size="14.6235" transform="matrix(1 0 0 0.997736 415.944 78)">𝒙</text><text font-family="Cambria Math,Cambria Math_MSFontService,sans-serif" font-weight="400" font-size="10.6752" transform="matrix(1 0 0 0.997736 424.438 81)">𝑳</text><text font-family="Yu Gothic,Yu Gothic_MSFontService,sans-serif" font-weight="700" font-size="14.6235" transform="matrix(1 0 0 0.997736 322.95 61)">･･･</text></g></svg>