<svg width="435" height="302" xmlns="http://www.w3.org/2000/svg" xmlns:xlink="http://www.w3.org/1999/xlink" overflow="hidden"><defs><clipPath id="clip0"><rect x="0" y="0" width="435" height="302"/></clipPath></defs><g clip-path="url(#clip0)"><rect x="0" y="0" width="435" height="302.434" fill="#FFFFFF"/><text fill="#F4B183" font-family="Calibri,Calibri_MSFontService,sans-serif" font-weight="700" font-size="14.6505" transform="matrix(1 0 0 0.998132 70.0857 137)">EBM:</text><text fill="#F4B183" font-family="Calibri,Calibri_MSFontService,sans-serif" font-weight="700" font-size="14.6505" transform="matrix(1 0 0 0.998132 108.949 137)">Energy</text><text fill="#F4B183" font-family="Calibri,Calibri_MSFontService,sans-serif" font-weight="700" font-size="14.6505" transform="matrix(1 0 0 0.998132 150.481 137)">-</text><text fill="#F4B183" font-family="Calibri,Calibri_MSFontService,sans-serif" font-weight="700" font-size="14.6505" transform="matrix(1 0 0 0.998132 154.984 137)">Based Model</text><text fill="#0070C0" font-family="Calibri,Calibri_MSFontService,sans-serif" font-weight="700" font-size="14.6505" transform="matrix(1 0 0 0.998132 70.0857 154)">VAE:</text><text fill="#0070C0" font-family="Calibri,Calibri_MSFontService,sans-serif" font-weight="700" font-size="14.6505" transform="matrix(1 0 0 0.998132 105.446 154)">Variational</text><text fill="#0070C0" font-family="Calibri,Calibri_MSFontService,sans-serif" font-weight="700" font-size="14.6505" transform="matrix(1 0 0 0.998132 176 154)">Autoencoder</text><text fill="#00B050" font-family="Calibri,Calibri_MSFontService,sans-serif" font-weight="700" font-size="14.6505" transform="matrix(1 0 0 0.998132 70.0857 172)">NF:</text><text fill="#00B050" font-family="Calibri,Calibri_MSFontService,sans-serif" font-weight="700" font-size="14.6505" transform="matrix(1 0 0 0.998132 97.1064 172)">Normalizing</text><text fill="#00B050" font-family="Calibri,Calibri_MSFontService,sans-serif" font-weight="700" font-size="14.6505" transform="matrix(1 0 0 0.998132 173.999 172)">Flow</text><text fill="#0070C0" font-family="Calibri,Calibri_MSFontService,sans-serif" font-weight="700" font-size="14.6505" transform="matrix(1 0 0 0.998132 70.0857 190)">DPM: Diffusion Probabilistic Model</text><text fill="#00B050" font-family="Calibri,Calibri_MSFontService,sans-serif" font-weight="700" font-size="14.6505" transform="matrix(1 0 0 0.998132 70.0857 207)">NODE: Neural Ordinary Differential Equations</text><text fill="#F4B183" font-family="Calibri,Calibri_MSFontService,sans-serif" font-weight="700" font-size="14.6505" transform="matrix(1 0 0 0.998132 70.0857 225)">NCSN:</text><text fill="#F4B183" font-family="Calibri,Calibri_MSFontService,sans-serif" font-weight="700" font-size="14.6505" transform="matrix(1 0 0 0.998132 114.953 225)">Noise</text><text fill="#F4B183" font-family="Calibri,Calibri_MSFontService,sans-serif" font-weight="700" font-size="14.6505" transform="matrix(1 0 0 0.998132 152.649 225)">Conditional</text><text fill="#F4B183" font-family="Calibri,Calibri_MSFontService,sans-serif" font-weight="700" font-size="14.6505" transform="matrix(1 0 0 0.998132 226.372 225)">Score</text><text fill="#F4B183" font-family="Calibri,Calibri_MSFontService,sans-serif" font-weight="700" font-size="14.6505" transform="matrix(1 0 0 0.998132 263.234 225)">Network</text><text font-family="Calibri,Calibri_MSFontService,sans-serif" font-weight="700" font-size="14.6505" transform="matrix(1 0 0 0.998132 70.0857 242)">DDPM:</text><text font-family="Calibri,Calibri_MSFontService,sans-serif" font-weight="700" font-size="14.6505" transform="matrix(1 0 0 0.998132 119.79 242)">Denoising</text><text font-family="Calibri,Calibri_MSFontService,sans-serif" font-weight="700" font-size="14.6505" transform="matrix(1 0 0 0.998132 183.339 242)">Diffusion</text><text font-family="Calibri,Calibri_MSFontService,sans-serif" font-weight="700" font-size="14.6505" transform="matrix(1 0 0 0.998132 241.884 242)">Probabilistic</text><text font-family="Calibri,Calibri_MSFontService,sans-serif" font-weight="700" font-size="14.6505" transform="matrix(1 0 0 0.998132 320.778 242)">Model</text><text fill="#F4B183" font-family="Calibri,Calibri_MSFontService,sans-serif" font-weight="700" font-size="14.6505" transform="matrix(1 0 0 0.998132 70.0857 260)">Score</text><text fill="#F4B183" font-family="Calibri,Calibri_MSFontService,sans-serif" font-weight="700" font-size="14.6505" transform="matrix(1 0 0 0.998132 106.947 260)">SDE:</text><text fill="#F4B183" font-family="Calibri,Calibri_MSFontService,sans-serif" font-weight="700" font-size="14.6505" transform="matrix(1 0 0 0.998132 140.973 260)">Score</text><text fill="#F4B183" font-family="Calibri,Calibri_MSFontService,sans-serif" font-weight="700" font-size="14.6505" transform="matrix(1 0 0 0.998132 174.499 260)">-</text><text fill="#F4B183" font-family="Calibri,Calibri_MSFontService,sans-serif" font-weight="700" font-size="14.6505" transform="matrix(1 0 0 0.998132 179.003 260)">Based Generative Model through</text><text fill="#F4B183" font-family="Calibri,Calibri_MSFontService,sans-serif" font-weight="700" font-size="14.6505" transform="matrix(1 0 0 0.998132 143.475 278)">Stochastic</text><text fill="#F4B183" font-family="Calibri,Calibri_MSFontService,sans-serif" font-weight="700" font-size="14.6505" transform="matrix(1 0 0 0.998132 208.859 278)">Differntial</text><text fill="#F4B183" font-family="Calibri,Calibri_MSFontService,sans-serif" font-weight="700" font-size="14.6505" transform="matrix(1 0 0 0.998132 274.409 278)">Equations</text><text fill="#00B050" font-family="Calibri,Calibri_MSFontService,sans-serif" font-weight="700" font-size="14.6505" transform="matrix(1 0 0 0.998132 70.0857 295)">FM: Flow Matching</text><text font-family="Calibri,Calibri_MSFontService,sans-serif" font-weight="700" font-size="14.6505" transform="matrix(1 0 0 0.998132 26.9306 21)">1985</text><text font-family="Calibri,Calibri_MSFontService,sans-serif" font-weight="700" font-size="14.6505" transform="matrix(1 0 0 0.998132 26.9306 38)">/</text><text font-family="Calibri,Calibri_MSFontService,sans-serif" font-weight="700" font-size="14.6505" transform="matrix(1 0 0 0.998132 33.2687 38)">01</text><text font-family="Calibri,Calibri_MSFontService,sans-serif" font-weight="700" font-size="14.6505" transform="matrix(1 0 0 0.998132 70.0577 20)">2013</text><text font-family="Calibri,Calibri_MSFontService,sans-serif" font-weight="700" font-size="14.6505" transform="matrix(1 0 0 0.998132 70.0577 37)">/12</text><text font-family="Calibri,Calibri_MSFontService,sans-serif" font-weight="700" font-size="14.6505" transform="matrix(1 0 0 0.998132 114.892 20)">2014</text><text font-family="Calibri,Calibri_MSFontService,sans-serif" font-weight="700" font-size="14.6505" transform="matrix(1 0 0 0.998132 114.892 37)">/12</text><text font-family="Calibri,Calibri_MSFontService,sans-serif" font-weight="700" font-size="14.6505" transform="matrix(1 0 0 0.998132 159.726 20)">2015</text><text font-family="Calibri,Calibri_MSFontService,sans-serif" font-weight="700" font-size="14.6505" transform="matrix(1 0 0 0.998132 159.726 37)">/05</text><text font-family="Calibri,Calibri_MSFontService,sans-serif" font-weight="700" font-size="14.6505" transform="matrix(1 0 0 0.998132 204.561 20)">2018</text><text font-family="Calibri,Calibri_MSFontService,sans-serif" font-weight="700" font-size="14.6505" transform="matrix(1 0 0 0.998132 204.561 37)">/06</text><text font-family="Calibri,Calibri_MSFontService,sans-serif" font-weight="700" font-size="14.6505" transform="matrix(1 0 0 0.998132 247.794 20)">2019</text><text font-family="Calibri,Calibri_MSFontService,sans-serif" font-weight="700" font-size="14.6505" transform="matrix(1 0 0 0.998132 247.794 37)">/07</text><text font-family="Calibri,Calibri_MSFontService,sans-serif" font-weight="700" font-size="14.6505" transform="matrix(1 0 0 0.998132 293.429 20)">2020</text><text font-family="Calibri,Calibri_MSFontService,sans-serif" font-weight="700" font-size="14.6505" transform="matrix(1 0 0 0.998132 293.429 37)">/06</text><text font-family="Calibri,Calibri_MSFontService,sans-serif" font-weight="700" font-size="14.6505" transform="matrix(1 0 0 0.998132 338.263 20)">2020</text><text font-family="Calibri,Calibri_MSFontService,sans-serif" font-weight="700" font-size="14.6505" transform="matrix(1 0 0 0.998132 338.263 37)">/11</text><text font-family="Calibri,Calibri_MSFontService,sans-serif" font-weight="700" font-size="14.6505" transform="matrix(1 0 0 0.998132 383.098 20)">2022</text><text font-family="Calibri,Calibri_MSFontService,sans-serif" font-weight="700" font-size="14.6505" transform="matrix(1 0 0 0.998132 383.098 37)">/10</text><path d="M5.00005 51.9021 426.019 51.9021 426.019 53.8999 5.00005 53.8999ZM418.517 47.3766 428.005 52.901 418.517 58.4253C418.039 58.7033 417.426 58.5423 417.148 58.0658 416.869 57.5893 417.031 56.9776 417.508 56.6997L425.514 52.0382 425.514 53.7638 417.508 49.1023C417.031 48.8243 416.869 48.2127 417.148 47.7361 417.426 47.2596 418.039 47.0987 418.517 47.3766Z" fill="#172C51"/><path d="M34 52.402C34 48.2676 37.3579 44.916 41.5 44.916 45.6421 44.916 49 48.2676 49 52.402 49 56.5363 45.6421 59.8879 41.5 59.8879 37.3579 59.8879 34 56.5363 34 52.402Z" fill-rule="evenodd"/><path d="M79 52.402C79 48.2676 82.3578 44.916 86.5 44.916 90.6421 44.916 94 48.2676 94 52.402 94 56.5363 90.6421 59.8879 86.5 59.8879 82.3578 59.8879 79 56.5363 79 52.402Z" fill-rule="evenodd"/><path d="M123 52.402C123 48.2676 126.358 44.916 130.5 44.916 134.642 44.916 138 48.2676 138 52.402 138 56.5363 134.642 59.8879 130.5 59.8879 126.358 59.8879 123 56.5363 123 52.402Z" fill-rule="evenodd"/><path d="M168 52.402C168 48.2676 171.358 44.916 175.5 44.916 179.642 44.916 183 48.2676 183 52.402 183 56.5363 179.642 59.8879 175.5 59.8879 171.358 59.8879 168 56.5363 168 52.402Z" fill-rule="evenodd"/><path d="M212 52.402C212 48.2676 215.358 44.916 219.5 44.916 223.642 44.916 227 48.2676 227 52.402 227 56.5363 223.642 59.8879 219.5 59.8879 215.358 59.8879 212 56.5363 212 52.402Z" fill-rule="evenodd"/><path d="M258 52.402C258 48.2676 261.358 44.916 265.5 44.916 269.642 44.916 273 48.2676 273 52.402 273 56.5363 269.642 59.8879 265.5 59.8879 261.358 59.8879 258 56.5363 258 52.402Z" fill-rule="evenodd"/><path d="M303 52.402C303 48.2676 306.134 44.916 310 44.916 313.866 44.916 317 48.2676 317 52.402 317 56.5363 313.866 59.8879 310 59.8879 306.134 59.8879 303 56.5363 303 52.402Z" fill-rule="evenodd"/><path d="M347 52.402C347 48.2676 350.358 44.916 354.5 44.916 358.642 44.916 362 48.2676 362 52.402 362 56.5363 358.642 59.8879 354.5 59.8879 350.358 59.8879 347 56.5363 347 52.402Z" fill-rule="evenodd"/><path d="M392 52.402C392 48.2676 395.134 44.916 399 44.916 402.866 44.916 406 48.2676 406 52.402 406 56.5363 402.866 59.8879 399 59.8879 395.134 59.8879 392 56.5363 392 52.402Z" fill-rule="evenodd"/><text fill="#0070C0" font-family="Calibri,Calibri_MSFontService,sans-serif" font-weight="700" font-size="14.6505" transform="matrix(1 0 0 0.998132 72.0398 82)">VAE</text><text fill="#0070C0" font-family="Calibri,Calibri_MSFontService,sans-serif" font-weight="700" font-size="14.6505" transform="matrix(1 0 0 0.998132 160.045 82)">DPM</text><text fill="#0070C0" font-family="Calibri,Calibri_MSFontService,sans-serif" font-weight="700" font-size="14.6505" transform="matrix(1 0 0 0.998132 289.863 82)">DDPM</text><text fill="#F4B183" font-family="Calibri,Calibri_MSFontService,sans-serif" font-weight="700" font-size="14.6505" transform="matrix(1 0 0 0.998132 24.5795 76)">EBM</text><text fill="#F4B183" font-family="Calibri,Calibri_MSFontService,sans-serif" font-weight="700" font-size="14.6505" transform="matrix(1 0 0 0.998132 245.769 76)">NCSN</text><text fill="#F4B183" font-family="Calibri,Calibri_MSFontService,sans-serif" font-weight="700" font-size="14.6505" transform="matrix(1 0 0 0.998132 340.428 76)">Score</text><text fill="#F4B183" font-family="Calibri,Calibri_MSFontService,sans-serif" font-weight="700" font-size="14.6505" transform="matrix(1 0 0 0.998132 340.428 93)">SDE</text><text fill="#00B050" font-family="Calibri,Calibri_MSFontService,sans-serif" font-weight="700" font-size="14.6505" transform="matrix(1 0 0 0.998132 121.056 90)">NF</text><text fill="#00B050" font-family="Calibri,Calibri_MSFontService,sans-serif" font-weight="700" font-size="14.6505" transform="matrix(1 0 0 0.998132 200.886 90)">NODE</text><text fill="#00B050" font-family="Calibri,Calibri_MSFontService,sans-serif" font-weight="700" font-size="14.6505" transform="matrix(1 0 0 0.998132 390.282 90)">FM</text></g></svg>