<svg width="454" height="605" xmlns="http://www.w3.org/2000/svg" xmlns:xlink="http://www.w3.org/1999/xlink" overflow="hidden"><g><rect x="0" y="0" width="454" height="604.667" fill="#FFFFFF"/><path d="M66.5 31.4827C66.5 28.1708 69.1863 25.486 72.5 25.486L420.5 25.486C423.814 25.486 426.5 28.1708 426.5 31.4827L426.5 55.4693C426.5 58.7813 423.814 61.4661 420.5 61.4661L72.5 61.4661C69.1863 61.4661 66.5 58.7813 66.5 55.4693Z" stroke="#172C51" stroke-width="1.3348" stroke-miterlimit="8" fill="none" fill-rule="evenodd"/><text font-family="Yu Gothic,Yu Gothic_MSFontService,sans-serif" font-weight="700" font-size="14.6748" transform="matrix(1 0 0 0.999449 172.481 48)">深層生成モデルの概要</text><path d="M66.5 85.4531C66.5 82.1411 69.1863 79.4563 72.5001 79.4563L174.5 79.4563C177.814 79.4563 180.5 82.1411 180.5 85.4531L180.5 109.44C180.5 112.752 177.814 115.436 174.5 115.436L72.5001 115.436C69.1863 115.436 66.5 112.752 66.5 109.44Z" stroke="#172C51" stroke-width="1.3348" stroke-miterlimit="8" fill="#D9D9D9" fill-rule="evenodd"/><text font-family="Yu Gothic,Yu Gothic_MSFontService,sans-serif" font-weight="700" font-size="14.6748" transform="matrix(1 0 0 0.999449 108.271 93)">変分</text><text font-family="Yu Gothic,Yu Gothic_MSFontService,sans-serif" font-weight="700" font-size="14.6748" transform="matrix(1 0 0 0.999449 100.929 110)">ビュー</text><path d="M189.5 85.4531C189.5 82.1411 192.186 79.4563 195.5 79.4563L297.5 79.4563C300.814 79.4563 303.5 82.1411 303.5 85.4531L303.5 109.44C303.5 112.752 300.814 115.436 297.5 115.436L195.5 115.436C192.186 115.436 189.5 112.752 189.5 109.44Z" stroke="#172C51" stroke-width="1.3348" stroke-miterlimit="8" fill="#D9D9D9" fill-rule="evenodd"/><text font-family="Yu Gothic,Yu Gothic_MSFontService,sans-serif" font-weight="700" font-size="14.6748" transform="matrix(1 0 0 0.999449 202.292 93)">スコアベース</text><text font-family="Yu Gothic,Yu Gothic_MSFontService,sans-serif" font-weight="700" font-size="14.6748" transform="matrix(1 0 0 0.999449 224.316 110)">ビュー</text><path d="M313.5 85.4531C313.5 82.1411 316.186 79.4563 319.5 79.4563L421.5 79.4563C424.814 79.4563 427.5 82.1411 427.5 85.4531L427.5 109.44C427.5 112.752 424.814 115.436 421.5 115.436L319.5 115.436C316.186 115.436 313.5 112.752 313.5 109.44Z" stroke="#172C51" stroke-width="1.3348" stroke-miterlimit="8" fill="#D9D9D9" fill-rule="evenodd"/><text font-family="Yu Gothic,Yu Gothic_MSFontService,sans-serif" font-weight="700" font-size="14.6748" transform="matrix(1 0 0 0.999449 326.193 93)">フローベース</text><text font-family="Yu Gothic,Yu Gothic_MSFontService,sans-serif" font-weight="700" font-size="14.6748" transform="matrix(1 0 0 0.999449 348.217 110)">ビュー</text><path d="M66.5 147.252C66.5 144.032 69.1117 141.422 72.3334 141.422L174.667 141.422C177.888 141.422 180.5 144.032 180.5 147.252L180.5 170.573C180.5 173.793 177.888 176.403 174.667 176.403L72.3334 176.403C69.1117 176.403 66.5 173.793 66.5 170.573Z" stroke="#172C51" stroke-width="1.3348" stroke-miterlimit="8" fill="none" fill-rule="evenodd"/><text font-family="Calibri,Calibri_MSFontService,sans-serif" font-weight="700" font-size="14.6748" transform="matrix(1 0 0 0.999449 110.607 163)">VAE</text><path d="M189.5 147.252C189.5 144.032 192.112 141.422 195.333 141.422L297.667 141.422C300.888 141.422 303.5 144.032 303.5 147.252L303.5 170.573C303.5 173.793 300.888 176.403 297.667 176.403L195.333 176.403C192.112 176.403 189.5 173.793 189.5 170.573Z" stroke="#172C51" stroke-width="1.3348" stroke-miterlimit="8" fill="none" fill-rule="evenodd"/><text font-family="Calibri,Calibri_MSFontService,sans-serif" font-weight="700" font-size="14.6748" transform="matrix(1 0 0 0.999449 232.241 163)">EBM</text><text font-family="Yu Gothic,Yu Gothic_MSFontService,sans-serif" font-weight="700" font-size="14.6748" transform="matrix(1 0 0 0.999449 6.69073 102)">視点</text><text font-family="Yu Gothic,Yu Gothic_MSFontService,sans-serif" font-weight="700" font-size="14.6748" transform="matrix(1 0 0 0.999449 6.69073 163)">起源</text><path d="M313.5 147.252C313.5 144.032 316.112 141.422 319.333 141.422L421.667 141.422C424.888 141.422 427.5 144.032 427.5 147.252L427.5 170.573C427.5 173.793 424.888 176.403 421.667 176.403L319.333 176.403C316.112 176.403 313.5 173.793 313.5 170.573Z" stroke="#172C51" stroke-width="1.3348" stroke-miterlimit="8" fill="none" fill-rule="evenodd"/><text font-family="Calibri,Calibri_MSFontService,sans-serif" font-weight="700" font-size="14.6748" transform="matrix(1 0 0 0.999449 362.066 163)">NF</text><text font-family="Calibri,Calibri_MSFontService,sans-serif" font-weight="700" font-size="14.6748" transform="matrix(1 0 0 0.999449 75.6125 504)">VAE:</text><text font-family="Calibri,Calibri_MSFontService,sans-serif" font-weight="700" font-size="14.6748" transform="matrix(1 0 0 0.999449 110.985 504)">Variational</text><text font-family="Calibri,Calibri_MSFontService,sans-serif" font-weight="700" font-size="14.6748" transform="matrix(1 0 0 0.999449 181.563 504)">Autoencoder</text><text font-family="Calibri,Calibri_MSFontService,sans-serif" font-weight="700" font-size="14.6748" transform="matrix(1 0 0 0.999449 75.6125 521)">EBM:</text><text font-family="Calibri,Calibri_MSFontService,sans-serif" font-weight="700" font-size="14.6748" transform="matrix(1 0 0 0.999449 114.489 521)">Energy</text><text font-family="Calibri,Calibri_MSFontService,sans-serif" font-weight="700" font-size="14.6748" transform="matrix(1 0 0 0.999449 156.034 521)">-</text><text font-family="Calibri,Calibri_MSFontService,sans-serif" font-weight="700" font-size="14.6748" transform="matrix(1 0 0 0.999449 160.539 521)">Based Model</text><text font-family="Calibri,Calibri_MSFontService,sans-serif" font-weight="700" font-size="14.6748" transform="matrix(1 0 0 0.999449 75.6125 539)">NF:</text><text font-family="Calibri,Calibri_MSFontService,sans-serif" font-weight="700" font-size="14.6748" transform="matrix(1 0 0 0.999449 102.642 539)">Normalizing</text><text font-family="Calibri,Calibri_MSFontService,sans-serif" font-weight="700" font-size="14.6748" transform="matrix(1 0 0 0.999449 179.56 539)">Flow</text><text font-family="Calibri,Calibri_MSFontService,sans-serif" font-weight="700" font-size="14.6748" transform="matrix(1 0 0 0.999449 75.6125 557)">DDPM:</text><text font-family="Calibri,Calibri_MSFontService,sans-serif" font-weight="700" font-size="14.6748" transform="matrix(1 0 0 0.999449 125.334 557)">Denoising</text><text font-family="Calibri,Calibri_MSFontService,sans-serif" font-weight="700" font-size="14.6748" transform="matrix(1 0 0 0.999449 188.904 557)">Diffusion</text><text font-family="Calibri,Calibri_MSFontService,sans-serif" font-weight="700" font-size="14.6748" transform="matrix(1 0 0 0.999449 247.468 557)">Probabilistic</text><text font-family="Calibri,Calibri_MSFontService,sans-serif" font-weight="700" font-size="14.6748" transform="matrix(1 0 0 0.999449 326.389 557)">Model</text><text font-family="Calibri,Calibri_MSFontService,sans-serif" font-weight="700" font-size="14.6748" transform="matrix(1 0 0 0.999449 75.6125 574)">NCSN:</text><text font-family="Calibri,Calibri_MSFontService,sans-serif" font-weight="700" font-size="14.6748" transform="matrix(1 0 0 0.999449 120.495 574)">Noise</text><text font-family="Calibri,Calibri_MSFontService,sans-serif" font-weight="700" font-size="14.6748" transform="matrix(1 0 0 0.999449 158.203 574)">Conditional</text><text font-family="Calibri,Calibri_MSFontService,sans-serif" font-weight="700" font-size="14.6748" transform="matrix(1 0 0 0.999449 231.951 574)">Score</text><text font-family="Calibri,Calibri_MSFontService,sans-serif" font-weight="700" font-size="14.6748" transform="matrix(1 0 0 0.999449 268.825 574)">Network</text><text font-family="Calibri,Calibri_MSFontService,sans-serif" font-weight="700" font-size="14.6748" transform="matrix(1 0 0 0.999449 75.6125 592)">SDE:</text><text font-family="Calibri,Calibri_MSFontService,sans-serif" font-weight="700" font-size="14.6748" transform="matrix(1 0 0 0.999449 109.65 592)">Stochastic</text><text font-family="Calibri,Calibri_MSFontService,sans-serif" font-weight="700" font-size="14.6748" transform="matrix(1 0 0 0.999449 175.055 592)">Differntial</text><text font-family="Calibri,Calibri_MSFontService,sans-serif" font-weight="700" font-size="14.6748" transform="matrix(1 0 0 0.999449 240.628 592)">Equations</text><path d="M66.5 233.372C66.5 230.06 69.1863 227.375 72.5001 227.375L174.5 227.375C177.814 227.375 180.5 230.06 180.5 233.372L180.5 257.358C180.5 260.67 177.814 263.355 174.5 263.355L72.5001 263.355C69.1863 263.355 66.5 260.67 66.5 257.358Z" stroke="#172C51" stroke-width="1.3348" stroke-miterlimit="8" fill="none" fill-rule="evenodd"/><text font-family="Calibri,Calibri_MSFontService,sans-serif" font-weight="700" font-size="14.6748" transform="matrix(1 0 0 0.999449 103.432 250)">DDPM</text><path d="M189.5 233.372C189.5 230.06 192.186 227.375 195.5 227.375L297.5 227.375C300.814 227.375 303.5 230.06 303.5 233.372L303.5 257.358C303.5 260.67 300.814 263.355 297.5 263.355L195.5 263.355C192.186 263.355 189.5 260.67 189.5 257.358Z" stroke="#172C51" stroke-width="1.3348" stroke-miterlimit="8" fill="none" fill-rule="evenodd"/><text font-family="Calibri,Calibri_MSFontService,sans-serif" font-weight="700" font-size="14.6748" transform="matrix(1 0 0 0.999449 230.573 250)">SCSN</text><path d="M313.5 233.205C313.5 229.985 316.112 227.375 319.333 227.375L421.667 227.375C424.888 227.375 427.5 229.985 427.5 233.205L427.5 256.525C427.5 259.745 424.888 262.355 421.667 262.355L319.333 262.355C316.112 262.355 313.5 259.745 313.5 256.525Z" stroke="#172C51" stroke-width="1.3348" stroke-miterlimit="8" fill="none" fill-rule="evenodd"/><text font-family="Calibri,Calibri_MSFontService,sans-serif" font-weight="700" font-size="14.6748" transform="matrix(1 0 0 0.999449 342.881 241)">Gaussian</text><text font-family="Calibri,Calibri_MSFontService,sans-serif" font-weight="700" font-size="14.6748" transform="matrix(1 0 0 0.999449 325.109 257)">Flow</text><text font-family="Calibri,Calibri_MSFontService,sans-serif" font-weight="700" font-size="14.6748" transform="matrix(1 0 0 0.999449 357.644 257)">Matching</text><path d="M190.5 321.49C190.5 317.534 193.709 314.327 197.667 314.327L297.333 314.327C301.291 314.327 304.5 317.534 304.5 321.49L304.5 350.14C304.5 354.096 301.291 357.303 297.333 357.303L197.667 357.303C193.709 357.303 190.5 354.096 190.5 350.14Z" stroke="#172C51" stroke-width="1.3348" stroke-miterlimit="8" fill="none" fill-rule="evenodd"/><text font-family="Yu Gothic,Yu Gothic_MSFontService,sans-serif" font-weight="700" font-size="14.6748" transform="matrix(1 0 0 0.999449 195.395 332)">連続時間形式化</text><text font-family="Yu Gothic,Yu Gothic_MSFontService,sans-serif" font-weight="700" font-size="14.6748" transform="matrix(1 0 0 0.999449 205.653 349)">例</text><text font-family="Calibri,Calibri_MSFontService,sans-serif" font-weight="700" font-size="14.6748" transform="matrix(1 0 0 0.999449 220.336 349)">:</text><text font-family="Calibri,Calibri_MSFontService,sans-serif" font-weight="700" font-size="14.6748" transform="matrix(1 0 0 0.999449 227.678 349)">Score SDE</text><path d="M58.5 229.847C58.5 221.306 65.4278 214.382 73.9737 214.382L426.026 214.382C434.572 214.382 441.5 221.306 441.5 229.847L441.5 354.831C441.5 363.372 434.572 370.296 426.026 370.296L73.9737 370.296C65.4278 370.296 58.5 363.372 58.5 354.831Z" stroke="#172C51" stroke-width="1.3348" stroke-miterlimit="8" fill="none" fill-rule="evenodd"/><text font-family="Yu Gothic,Yu Gothic_MSFontService,sans-serif" font-weight="700" font-size="14.6748" transform="matrix(1 0 0 0.999449 6.69073 297)">拡散</text><text font-family="Yu Gothic,Yu Gothic_MSFontService,sans-serif" font-weight="700" font-size="14.6748" transform="matrix(1 0 0 0.999449 6.69073 314)">モデル</text><path d="M125.001 176.903 125.001 224.894 122.999 224.894 122.999 176.903ZM129.537 217.394 124 226.88 118.463 217.394C118.185 216.916 118.346 216.304 118.824 216.025 119.301 215.747 119.914 215.908 120.193 216.385L124.865 224.39 123.135 224.39 127.807 216.385C128.086 215.908 128.699 215.747 129.176 216.025 129.654 216.304 129.815 216.916 129.537 217.394Z" fill="#172C51"/><path d="M249.001 177.902 249.001 225.893 246.999 225.893 246.999 177.902ZM253.536 218.393 248 227.879 242.463 218.393C242.185 217.916 242.346 217.303 242.824 217.025 243.301 216.746 243.914 216.907 244.193 217.385L248.865 225.389 247.135 225.389 251.807 217.385C252.086 216.907 252.699 216.746 253.176 217.025 253.654 217.303 253.815 217.916 253.536 218.393Z" fill="#172C51"/><path d="M371.001 177.902 371.001 225.893 368.999 225.893 368.999 177.902ZM375.537 218.393 370 227.879 364.464 218.393C364.185 217.916 364.346 217.303 364.824 217.025 365.301 216.746 365.914 216.907 366.193 217.385L370.865 225.389 369.135 225.389 373.807 217.385C374.086 216.907 374.699 216.746 375.176 217.025 375.654 217.303 375.815 217.916 375.537 218.393Z" fill="#172C51"/><path d="M249.001 262.855 249.001 310.847 246.999 310.847 246.999 262.855ZM253.536 303.346 248 312.832 242.463 303.346C242.185 302.869 242.346 302.256 242.824 301.978 243.301 301.699 243.914 301.861 244.193 302.338L248.865 310.342 247.135 310.342 251.807 302.338C252.086 301.861 252.699 301.699 253.176 301.978 253.654 302.256 253.815 302.869 253.536 303.346Z" fill="#172C51"/><path d="M124.001 263.855 124.001 279.882 123.344 278.943 211.483 311.207 210.795 313.086 121.999 280.581 121.999 263.855ZM205.996 304.371 213.004 312.829 202.188 314.763C201.644 314.86 201.124 314.498 201.026 313.954 200.929 313.41 201.291 312.89 201.836 312.793L210.963 311.161 210.368 312.785 204.454 305.647C204.102 305.222 204.161 304.591 204.587 304.238 205.013 303.886 205.644 303.945 205.996 304.371Z" fill="#172C51"/><path d="M1.00055 0 1.00055 16.0275 0.34411 15.088 88.4345 47.3522 87.7463 49.2313-1.00055 16.7266-1.00055 0ZM82.9506 40.5162 89.9548 48.9746 79.1444 50.9081C78.6004 51.0054 78.0806 50.6433 77.9833 50.0994 77.886 49.5554 78.2481 49.0356 78.7921 48.9383L87.914 47.3068 87.3196 48.9298 81.4093 41.7925C81.0569 41.3669 81.1162 40.7362 81.5418 40.3838 81.9674 40.0313 82.5981 40.0906 82.9506 40.5162Z" fill="#172C51" transform="matrix(-1.00055 0 0 1 368 262.855)"/><text font-family="Calibri,Calibri_MSFontService,sans-serif" font-weight="700" font-size="14.6748" transform="matrix(1 0 0 0.999449 234.176 20)">1</text><text font-family="Yu Gothic,Yu Gothic_MSFontService,sans-serif" font-weight="700" font-size="14.6748" transform="matrix(1 0 0 0.999449 241.685 20)">章</text><text font-family="Calibri,Calibri_MSFontService,sans-serif" font-weight="700" font-size="14.6748" transform="matrix(1 0 0 0.999449 97.1365 203)">2</text><text font-family="Yu Gothic,Yu Gothic_MSFontService,sans-serif" font-weight="700" font-size="14.6748" transform="matrix(1 0 0 0.999449 104.645 203)">章</text><text font-family="Calibri,Calibri_MSFontService,sans-serif" font-weight="700" font-size="14.6748" transform="matrix(1 0 0 0.999449 221.718 204)">3</text><text font-family="Yu Gothic,Yu Gothic_MSFontService,sans-serif" font-weight="700" font-size="14.6748" transform="matrix(1 0 0 0.999449 229.227 204)">章</text><text font-family="Calibri,Calibri_MSFontService,sans-serif" font-weight="700" font-size="14.6748" transform="matrix(1 0 0 0.999449 344.52 206)">5</text><text font-family="Yu Gothic,Yu Gothic_MSFontService,sans-serif" font-weight="700" font-size="14.6748" transform="matrix(1 0 0 0.999449 352.029 206)">章</text><text font-family="Calibri,Calibri_MSFontService,sans-serif" font-weight="700" font-size="14.6748" transform="matrix(1 0 0 0.999449 161.207 342)">4</text><text font-family="Yu Gothic,Yu Gothic_MSFontService,sans-serif" font-weight="700" font-size="14.6748" transform="matrix(1 0 0 0.999449 168.715 342)">章</text><text font-family="Yu Gothic,Yu Gothic_MSFontService,sans-serif" font-weight="700" font-size="14.6748" transform="matrix(1 0 0 0.999449 214.291 397)">統合原理</text><text font-family="Calibri,Calibri_MSFontService,sans-serif" font-weight="700" font-size="14.6748" transform="matrix(1 0 0 0.999449 232.564 414)">6</text><text font-family="Yu Gothic,Yu Gothic_MSFontService,sans-serif" font-weight="700" font-size="14.6748" transform="matrix(1 0 0 0.999449 240.073 414)">章</text><text font-family="Yu Gothic,Yu Gothic_MSFontService,sans-serif" font-weight="700" font-size="14.6748" transform="matrix(1 0 0 0.999449 139.796 449)">・条件付き戦略</text><text font-family="Yu Gothic,Yu Gothic_MSFontService,sans-serif" font-weight="700" font-size="14.6748" transform="matrix(1 0 0 0.999449 139.796 467)">・フォッカー・プランク方程式</text></g></svg>