<svg width="491" height="113" xmlns="http://www.w3.org/2000/svg" xmlns:xlink="http://www.w3.org/1999/xlink" overflow="hidden"><g><rect x="0" y="0" width="491" height="112.744" fill="#FFFFFF"/><path d="M16.5 37.4152C16.5 34.1089 19.1863 31.4287 22.5001 31.4287L46.4998 31.4287C49.8136 31.4287 52.4999 34.1089 52.4999 37.4152L52.4999 76.3267C52.4999 79.6329 49.8136 82.3132 46.4998 82.3132L22.5001 82.3132C19.1863 82.3132 16.5 79.6329 16.5 76.3267Z" stroke="#172C51" stroke-width="1.33243" stroke-miterlimit="8" fill="#F2F2F2" fill-rule="evenodd"/><text font-family="Cambria Math,Cambria Math_MSFontService,sans-serif" font-weight="400" font-size="14.6235" transform="matrix(1 0 0 0.997736 28.4732 62)">𝒙</text><path d="M126.5 37.4152C126.5 34.1089 129.186 31.4287 132.5 31.4287L156.5 31.4287C159.814 31.4287 162.5 34.1089 162.5 37.4152L162.5 76.3267C162.5 79.6329 159.814 82.3132 156.5 82.3132L132.5 82.3132C129.186 82.3132 126.5 79.6329 126.5 76.3267Z" stroke="#172C51" stroke-width="1.33243" stroke-miterlimit="8" fill="#F2F2F2" fill-rule="evenodd"/><text font-family="Cambria Math,Cambria Math_MSFontService,sans-serif" font-weight="400" font-size="14.6235" transform="matrix(1 0 0 0.997736 134.985 62)">𝒛</text><text font-family="Cambria Math,Cambria Math_MSFontService,sans-serif" font-weight="400" font-size="10.6752" transform="matrix(1 0 0 0.997736 142.48 65)">𝟏</text><path d="M250.5 37.4152C250.5 34.1089 253.186 31.4287 256.5 31.4287L280.5 31.4287C283.814 31.4287 286.5 34.1089 286.5 37.4152L286.5 76.3267C286.5 79.6329 283.814 82.3132 280.5 82.3132L256.5 82.3132C253.186 82.3132 250.5 79.6329 250.5 76.3267Z" stroke="#172C51" stroke-width="1.33243" stroke-miterlimit="8" fill="#F2F2F2" fill-rule="evenodd"/><text font-family="Cambria Math,Cambria Math_MSFontService,sans-serif" font-weight="400" font-size="14.6235" transform="matrix(1 0 0 0.997736 258.944 62)">𝒛</text><text font-family="Cambria Math,Cambria Math_MSFontService,sans-serif" font-weight="400" font-size="10.6752" transform="matrix(1 0 0 0.997736 266.439 65)">𝟐</text><path d="M440.5 37.4152C440.5 34.1089 443.186 31.4287 446.5 31.4287L470.5 31.4287C473.814 31.4287 476.5 34.1089 476.5 37.4152L476.5 76.3267C476.5 79.6329 473.814 82.3132 470.5 82.3132L446.5 82.3132C443.186 82.3132 440.5 79.6329 440.5 76.3267Z" stroke="#172C51" stroke-width="1.33243" stroke-miterlimit="8" fill="#F2F2F2" fill-rule="evenodd"/><text font-family="Cambria Math,Cambria Math_MSFontService,sans-serif" font-weight="400" font-size="14.6235" transform="matrix(1 0 0 0.997736 449.233 62)">𝒛</text><text font-family="Cambria Math,Cambria Math_MSFontService,sans-serif" font-weight="400" font-size="10.6752" transform="matrix(1 0 0 0.997736 456.727 65)">𝑳</text><path d="M53.5 51.7164 120.386 51.7165 120.386 53.0459 53.5 53.0458ZM119.054 48.393 127.048 52.3812 119.054 56.3695Z"/><path d="M59.1621 61.6938 126.048 61.6939 126.048 63.0233 59.1621 63.0232ZM60.4946 66.3468 52.5 62.3585 60.4946 58.3703Z"/><text font-family="Cambria Math,Cambria Math_MSFontService,sans-serif" font-weight="400" font-size="14.6235" transform="matrix(1 0 0 0.997736 60.7636 43)">𝒒</text><text font-family="Cambria Math,Cambria Math_MSFontService,sans-serif" font-weight="400" font-size="10.6752" transform="matrix(1 0 0 0.997736 69.5909 46)">𝜽</text><path d="M58.7312 3.00267C60.118 3.36838 61.1831 4.15798 61.9264 5.37147 62.6697 6.58497 63.0413 8.049 63.0413 9.76356 63.0413 11.4829 62.6709 12.9469 61.93 14.1556 61.189 15.3644 60.1228 16.1516 58.7312 16.5173L58.5602 15.9688C59.6573 15.6031 60.4731 14.8811 61.0074 13.803 61.5417 12.7249 61.8089 11.3546 61.8089 9.69232 61.8089 8.08699 61.5429 6.75357 61.0109 5.69206 60.479 4.63055 59.655 3.91694 58.5388 3.55123ZM30.2664 3.00267 30.4588 3.55123C29.3474 3.91694 28.5245 4.63055 27.9902 5.69206 27.4559 6.75357 27.1887 8.08699 27.1887 9.69232 27.1887 11.3546 27.4559 12.7249 27.9902 13.803 28.5245 14.8811 29.3403 15.6031 30.4374 15.9688L30.2664 16.5173C28.8748 16.1516 27.8085 15.3644 27.0676 14.1556 26.3267 12.9469 25.9562 11.4829 25.9562 9.76356 25.9562 8.049 26.3279 6.58497 27.0712 5.37147 27.8145 4.15798 28.8796 3.36838 30.2664 3.00267Z" fill-rule="evenodd" transform="matrix(1.00227 0 0 1 52.1294 29.2889)"/><text font-family="Cambria Math,Cambria Math_MSFontService,sans-serif" font-weight="400" font-size="14.6235" transform="matrix(1 0 0 0.997736 82.9419 43)">𝒛</text><text font-family="Cambria Math,Cambria Math_MSFontService,sans-serif" font-weight="400" font-size="10.6752" transform="matrix(1 0 0 0.997736 90.4368 46)">𝟏</text><text font-family="Cambria Math,Cambria Math_MSFontService,sans-serif" font-weight="400" font-size="14.6235" transform="matrix(1 0 0 0.997736 97.3721 43)">|</text><text font-family="Cambria Math,Cambria Math_MSFontService,sans-serif" font-weight="400" font-size="14.6235" transform="matrix(1 0 0 0.997736 102.036 43)">𝒙</text><text font-family="Cambria Math,Cambria Math_MSFontService,sans-serif" font-weight="400" font-size="14.6235" transform="matrix(1 0 0 0.997736 62.1408 78)">𝒑</text><text font-family="Cambria Math,Cambria Math_MSFontService,sans-serif" font-weight="400" font-size="10.6752" transform="matrix(1 0 0 0.997736 71.3013 81)">𝝓</text><path d="M59.6418 3.00267C61.0287 3.36838 62.0938 4.15798 62.8371 5.37147 63.5803 6.58497 63.952 8.049 63.952 9.76356 63.952 11.4829 63.5815 12.9469 62.8406 14.1556 62.0997 15.3644 61.0334 16.1516 59.6418 16.5173L59.4709 15.9688C60.568 15.6031 61.3837 14.8811 61.918 13.803 62.4523 12.7249 62.7195 11.3546 62.7195 9.69232 62.7195 8.08699 62.4535 6.75357 61.9216 5.69206 61.3896 4.63055 60.5656 3.91694 59.4495 3.55123ZM31.177 3.00267 31.3694 3.55123C30.258 3.91694 29.4352 4.63055 28.9009 5.69206 28.3665 6.75357 28.0994 8.08699 28.0994 9.69232 28.0994 11.3546 28.3665 12.7249 28.9009 13.803 29.4352 14.8811 30.2509 15.6031 31.348 15.9688L31.177 16.5173C29.7854 16.1516 28.7192 15.3644 27.9783 14.1556 27.2373 12.9469 26.8669 11.4829 26.8669 9.76356 26.8669 8.049 27.2385 6.58497 27.9818 5.37147 28.7251 4.15798 29.7902 3.36838 31.177 3.00267Z" fill-rule="evenodd" transform="matrix(1.00227 0 0 1 54.426 64.102)"/><text font-family="Cambria Math,Cambria Math_MSFontService,sans-serif" font-weight="400" font-size="14.6235" transform="matrix(1 0 0 0.997736 86.1512 78)">𝒙</text><text font-family="Cambria Math,Cambria Math_MSFontService,sans-serif" font-weight="400" font-size="14.6235" transform="matrix(1 0 0 0.997736 94.6454 78)">|</text><text font-family="Cambria Math,Cambria Math_MSFontService,sans-serif" font-weight="400" font-size="14.6235" transform="matrix(1 0 0 0.997736 99.3089 78)">𝒛</text><text font-family="Cambria Math,Cambria Math_MSFontService,sans-serif" font-weight="400" font-size="10.6752" transform="matrix(1 0 0 0.997736 106.804 81)">𝟏</text><path d="M162.5 51.7164 243.656 51.7165 243.656 53.0459 162.5 53.0458ZM242.324 48.393 250.318 52.3812 242.324 56.3695Z"/><path d="M170.162 61.6938 251.318 61.6939 251.318 63.0233 170.162 63.0232ZM171.495 66.3468 163.5 62.3585 171.495 58.3703Z"/><text font-family="Cambria Math,Cambria Math_MSFontService,sans-serif" font-weight="400" font-size="14.6235" transform="matrix(1 0 0 0.997736 175.566 43)">𝒒</text><text font-family="Cambria Math,Cambria Math_MSFontService,sans-serif" font-weight="400" font-size="10.6752" transform="matrix(1 0 0 0.997736 184.393 46)">𝜽</text><path d="M70.5829 3.00267C71.9697 3.36838 73.0348 4.15798 73.7781 5.37147 74.5214 6.58497 74.8931 8.049 74.8931 9.76356 74.8931 11.4829 74.5226 12.9469 73.7817 14.1556 73.0408 15.3644 71.9745 16.1516 70.5829 16.5173L70.4119 15.9688C71.509 15.6031 72.3248 14.8811 72.8591 13.803 73.3934 12.7249 73.6606 11.3546 73.6606 9.69232 73.6606 8.08699 73.3946 6.75357 72.8626 5.69206 72.3307 4.63055 71.5067 3.91694 70.3905 3.55123ZM36.1956 3.00267 36.3879 3.55123C35.2766 3.91694 34.4537 4.63055 33.9194 5.69206 33.3851 6.75357 33.1179 8.08699 33.1179 9.69232 33.1179 11.3546 33.3851 12.7249 33.9194 13.803 34.4537 14.8811 35.2694 15.6031 36.3666 15.9688L36.1956 16.5173C34.804 16.1516 33.7377 15.3644 32.9968 14.1556 32.2559 12.9469 31.8854 11.4829 31.8854 9.76356 31.8854 8.049 32.2571 6.58497 33.0004 5.37147 33.7437 4.15798 34.8087 3.36838 36.1956 3.00267Z" fill-rule="evenodd" transform="matrix(1.00227 0 0 1 160.989 29.2889)"/><text font-family="Cambria Math,Cambria Math_MSFontService,sans-serif" font-weight="400" font-size="14.6235" transform="matrix(1 0 0 0.997736 197.744 43)">𝒛</text><text font-family="Cambria Math,Cambria Math_MSFontService,sans-serif" font-weight="400" font-size="10.6752" transform="matrix(1 0 0 0.997736 205.239 46)">𝟐</text><text font-family="Cambria Math,Cambria Math_MSFontService,sans-serif" font-weight="400" font-size="14.6235" transform="matrix(1 0 0 0.997736 212.174 43)">|</text><text font-family="Cambria Math,Cambria Math_MSFontService,sans-serif" font-weight="400" font-size="14.6235" transform="matrix(1 0 0 0.997736 216.838 43)">𝒛</text><text font-family="Cambria Math,Cambria Math_MSFontService,sans-serif" font-weight="400" font-size="10.6752" transform="matrix(1 0 0 0.997736 224.333 46)">𝟏</text><text font-family="Cambria Math,Cambria Math_MSFontService,sans-serif" font-weight="400" font-size="14.6235" transform="matrix(1 0 0 0.997736 177.388 78)">𝒑</text><text font-family="Cambria Math,Cambria Math_MSFontService,sans-serif" font-weight="400" font-size="10.6752" transform="matrix(1 0 0 0.997736 186.549 81)">𝝓</text><path d="M71.4935 3.00267C72.8804 3.36838 73.9455 4.15798 74.6888 5.37147 75.4321 6.58497 75.8037 8.049 75.8037 9.76356 75.8037 11.4829 75.4332 12.9469 74.6923 14.1556 73.9514 15.3644 72.8851 16.1516 71.4935 16.5173L71.3226 15.9688C72.4197 15.6031 73.2354 14.8811 73.7697 13.803 74.3041 12.7249 74.5712 11.3546 74.5712 9.69232 74.5712 8.08699 74.3052 6.75357 73.7733 5.69206 73.2414 4.63055 72.4173 3.91694 71.3012 3.55123ZM37.1062 3.00267 37.2986 3.55123C36.1872 3.91694 35.3643 4.63055 34.83 5.69206 34.2957 6.75357 34.0286 8.08699 34.0286 9.69232 34.0286 11.3546 34.2957 12.7249 34.83 13.803 35.3643 14.8811 36.1801 15.6031 37.2772 15.9688L37.1062 16.5173C35.7146 16.1516 34.6484 15.3644 33.9074 14.1556 33.1665 12.9469 32.7961 11.4829 32.7961 9.76356 32.7961 8.049 33.1677 6.58497 33.911 5.37147 34.6543 4.15798 35.7194 3.36838 37.1062 3.00267Z" fill-rule="evenodd" transform="matrix(1.00227 0 0 1 163.731 64.102)"/><text font-family="Cambria Math,Cambria Math_MSFontService,sans-serif" font-weight="400" font-size="14.6235" transform="matrix(1 0 0 0.997736 201.399 78)">𝒛</text><text font-family="Cambria Math,Cambria Math_MSFontService,sans-serif" font-weight="400" font-size="10.6752" transform="matrix(1 0 0 0.997736 208.894 81)">𝟏</text><text font-family="Cambria Math,Cambria Math_MSFontService,sans-serif" font-weight="400" font-size="14.6235" transform="matrix(1 0 0 0.997736 215.829 78)">|</text><text font-family="Cambria Math,Cambria Math_MSFontService,sans-serif" font-weight="400" font-size="14.6235" transform="matrix(1 0 0 0.997736 220.493 78)">𝒛</text><text font-family="Cambria Math,Cambria Math_MSFontService,sans-serif" font-weight="400" font-size="10.6752" transform="matrix(1 0 0 0.997736 227.987 81)">𝟐</text><path d="M286.5 51.7164 308.294 51.7165 308.294 53.0459 286.5 53.0458ZM306.962 48.393 314.956 52.3812 306.962 56.3694Z"/><path d="M292.162 61.6938 313.956 61.6939 313.956 63.0233 292.162 63.0233ZM293.495 66.3468 285.5 62.3585 293.495 58.3703Z"/><path d="M352.5 51.7164 433.656 51.7165 433.656 53.0459 352.5 53.0458ZM432.324 48.393 440.318 52.3812 432.324 56.3695Z"/><path d="M358.162 61.6938 439.318 61.6939 439.318 63.0233 358.162 63.0232ZM359.495 66.3468 351.5 62.3585 359.495 58.3703Z"/><text font-family="Cambria Math,Cambria Math_MSFontService,sans-serif" font-weight="400" font-size="14.6235" transform="matrix(1 0 0 0.997736 357.187 43)">𝒒</text><text font-family="Cambria Math,Cambria Math_MSFontService,sans-serif" font-weight="400" font-size="10.6752" transform="matrix(1 0 0 0.997736 366.014 46)">𝜽</text><path d="M77.3097 3.00267C78.6966 3.36838 79.7616 4.15798 80.5049 5.37147 81.2482 6.58497 81.6199 8.049 81.6199 9.76356 81.6199 11.4829 81.2494 12.9469 80.5085 14.1556 79.7676 15.3644 78.7013 16.1516 77.3097 16.5173L77.1387 15.9688C78.2359 15.6031 79.0516 14.8811 79.5859 13.803 80.1202 12.7249 80.3874 11.3546 80.3874 9.69232 80.3874 8.08699 80.1214 6.75357 79.5895 5.69206 79.0575 4.63055 78.2335 3.91694 77.1174 3.55123ZM29.4621 3.00267 29.6545 3.55123C28.5431 3.91694 27.7202 4.63055 27.1859 5.69206 26.6516 6.75357 26.3844 8.08699 26.3844 9.69232 26.3844 11.3546 26.6516 12.7249 27.1859 13.803 27.7202 14.8811 28.536 15.6031 29.6331 15.9688L29.4621 16.5173C28.0705 16.1516 27.0042 15.3644 26.2633 14.1556 25.5224 12.9469 25.152 11.4829 25.152 9.76356 25.152 8.049 25.5236 6.58497 26.2669 5.37147 27.0102 4.15798 28.0753 3.36838 29.4621 3.00267Z" fill-rule="evenodd" transform="matrix(1.00227 0 0 1 349.359 29.2889)"/><text font-family="Cambria Math,Cambria Math_MSFontService,sans-serif" font-weight="400" font-size="14.6235" transform="matrix(1 0 0 0.997736 379.365 43)">𝒛</text><text font-family="Cambria Math,Cambria Math_MSFontService,sans-serif" font-weight="400" font-size="10.6752" transform="matrix(1 0 0 0.997736 386.86 46)">𝑳</text><text font-family="Cambria Math,Cambria Math_MSFontService,sans-serif" font-weight="400" font-size="14.6235" transform="matrix(1 0 0 0.997736 393.462 43)">|</text><text font-family="Cambria Math,Cambria Math_MSFontService,sans-serif" font-weight="400" font-size="14.6235" transform="matrix(1 0 0 0.997736 398.126 43)">𝒛</text><text font-family="Cambria Math,Cambria Math_MSFontService,sans-serif" font-weight="400" font-size="10.6752" transform="matrix(1 0 0 0.997736 405.62 46)">𝑳</text><text font-family="Cambria Math,Cambria Math_MSFontService,sans-serif" font-weight="400" font-size="10.6752" transform="matrix(1 0 0 0.997736 411.616 46)">−</text><text font-family="Cambria Math,Cambria Math_MSFontService,sans-serif" font-weight="400" font-size="10.6752" transform="matrix(1 0 0 0.997736 419.444 46)">𝟏</text><text font-family="Cambria Math,Cambria Math_MSFontService,sans-serif" font-weight="400" font-size="14.6235" transform="matrix(1 0 0 0.997736 359.016 78)">𝒑</text><text font-family="Cambria Math,Cambria Math_MSFontService,sans-serif" font-weight="400" font-size="10.6752" transform="matrix(1 0 0 0.997736 368.177 81)">𝝓</text><path d="M78.227 3.00267C79.6139 3.36838 80.6789 4.15798 81.4222 5.37147 82.1655 6.58497 82.5372 8.049 82.5372 9.76356 82.5372 11.4829 82.1667 12.9469 81.4258 14.1556 80.6849 15.3644 79.6186 16.1516 78.227 16.5173L78.056 15.9688C79.1532 15.6031 79.9689 14.8811 80.5032 13.803 81.0375 12.7249 81.3047 11.3546 81.3047 9.69232 81.3047 8.08699 81.0387 6.75357 80.5068 5.69206 79.9748 4.63055 79.1508 3.91694 78.0347 3.55123ZM30.3794 3.00267 30.5718 3.55123C29.4604 3.91694 28.6375 4.63055 28.1032 5.69206 27.5689 6.75357 27.3017 8.08699 27.3017 9.69232 27.3017 11.3546 27.5689 12.7249 28.1032 13.803 28.6375 14.8811 29.4533 15.6031 30.5504 15.9688L30.3794 16.5173C28.9878 16.1516 27.9215 15.3644 27.1806 14.1556 26.4397 12.9469 26.0692 11.4829 26.0692 9.76356 26.0692 8.049 26.4409 6.58497 27.1842 5.37147 27.9275 4.15798 28.9925 3.36838 30.3794 3.00267Z" fill-rule="evenodd" transform="matrix(1.00227 0 0 1 352.101 64.102)"/><text font-family="Cambria Math,Cambria Math_MSFontService,sans-serif" font-weight="400" font-size="14.6235" transform="matrix(1 0 0 0.997736 383.026 78)">𝒛</text><text font-family="Cambria Math,Cambria Math_MSFontService,sans-serif" font-weight="400" font-size="10.6752" transform="matrix(1 0 0 0.997736 390.521 81)">𝑳</text><text font-family="Cambria Math,Cambria Math_MSFontService,sans-serif" font-weight="400" font-size="10.6752" transform="matrix(1 0 0 0.997736 396.517 81)">−</text><text font-family="Cambria Math,Cambria Math_MSFontService,sans-serif" font-weight="400" font-size="10.6752" transform="matrix(1 0 0 0.997736 404.345 81)">𝟏</text><text font-family="Cambria Math,Cambria Math_MSFontService,sans-serif" font-weight="400" font-size="14.6235" transform="matrix(1 0 0 0.997736 411.281 78)">|</text><text font-family="Cambria Math,Cambria Math_MSFontService,sans-serif" font-weight="400" font-size="14.6235" transform="matrix(1 0 0 0.997736 415.944 78)">𝒛</text><text font-family="Cambria Math,Cambria Math_MSFontService,sans-serif" font-weight="400" font-size="10.6752" transform="matrix(1 0 0 0.997736 423.439 81)">𝑳</text><text font-family="Yu Gothic,Yu Gothic_MSFontService,sans-serif" font-weight="700" font-size="14.6235" transform="matrix(1 0 0 0.997736 322.95 61)">･･･</text></g></svg>