<svg width="473" height="113" xmlns="http://www.w3.org/2000/svg" xmlns:xlink="http://www.w3.org/1999/xlink" overflow="hidden"><defs><clipPath id="clip0"><rect x="0" y="0" width="473" height="113"/></clipPath></defs><g clip-path="url(#clip0)"><rect x="0" y="0" width="473" height="112.549" fill="#FFFFFF"/><path d="M56.5 47.8083C56.5 45.333 58.5148 43.3263 61.0001 43.3263L106 43.3263C108.485 43.3263 110.5 45.333 110.5 47.8083L110.5 65.7362C110.5 68.2116 108.485 70.2183 106 70.2183L61.0001 70.2183C58.5148 70.2183 56.5 68.2116 56.5 65.7362Z" stroke="#172C51" stroke-width="1.33474" stroke-miterlimit="8" fill="#F2F2F2" fill-rule="evenodd"/><text font-family="Cambria Math,Cambria Math_MSFontService,sans-serif" font-weight="400" font-size="14.6235" transform="matrix(1 0 0 0.996005 76.9378 61)">𝒙</text><path d="M148.5 13.4461 196.5 32.7439 196.5 80.8007 148.5 100.099Z" stroke="#A6A6A6" stroke-width="1.32941" stroke-miterlimit="8" fill="#D9D9D9" fill-rule="evenodd"/><path d="M110.5 56.6056 142.129 56.6057 142.129 57.9351 110.5 57.935ZM140.795 53.2822 148.803 57.2704 140.795 61.2586Z"/><text font-family="Calibri,Calibri_MSFontService,sans-serif" font-weight="700" font-size="11.9647" transform="matrix(1 0 0 0.996005 154.984 53)">Encoder</text><text font-family="Cambria Math,Cambria Math_MSFontService,sans-serif" font-weight="400" font-size="11.9647" transform="matrix(1 0 0 0.996005 155.171 68)">𝒒</text><text font-family="Cambria Math,Cambria Math_MSFontService,sans-serif" font-weight="400" font-size="8.73423" transform="matrix(1 0 0 0.996005 162.512 70)">𝜽</text><path d="M37.2694 2.99896C38.4021 3.29766 39.272 3.94257 39.8791 4.93371 40.4862 5.92485 40.7898 7.12061 40.7898 8.521 40.7898 9.92527 40.4872 11.121 39.882 12.1083 39.2769 13.0955 38.406 13.7385 37.2694 14.0372L37.1297 13.5892C38.0258 13.2905 38.6921 12.7008 39.1285 11.8203 39.5649 10.9397 39.7831 9.82053 39.7831 8.46281 39.7831 7.15164 39.5659 6.06256 39.1314 5.19556 38.6969 4.32855 38.0239 3.74571 37.1123 3.44701ZM19.5436 2.99896 19.7007 3.44701C18.793 3.74571 18.1209 4.32855 17.6845 5.19556 17.2481 6.06256 17.0299 7.15164 17.0299 8.46281 17.0299 9.82053 17.2481 10.9397 17.6845 11.8203 18.1209 12.7008 18.7871 13.2905 19.6832 13.5892L19.5436 14.0372C18.407 13.7385 17.5361 13.0955 16.9309 12.1083 16.3258 11.121 16.0232 9.92527 16.0232 8.521 16.0232 7.12061 16.3268 5.92485 16.9338 4.93371 17.5409 3.94257 18.4109 3.29766 19.5436 2.99896Z" fill-rule="evenodd" transform="matrix(1.00401 0 0 1 153.483 55.7318)"/><text font-family="Cambria Math,Cambria Math_MSFontService,sans-serif" font-weight="400" font-size="11.9647" transform="matrix(1 0 0 0.996005 173.504 68)">𝒛</text><text font-family="Cambria Math,Cambria Math_MSFontService,sans-serif" font-weight="400" font-size="11.9647" transform="matrix(1 0 0 0.996005 179.677 68)">|</text><text font-family="Cambria Math,Cambria Math_MSFontService,sans-serif" font-weight="400" font-size="11.9647" transform="matrix(1 0 0 0.996005 183.514 68)">𝒙</text><path d="M195.5 56.6056 227.129 56.6057 227.129 57.9351 195.5 57.935ZM225.795 53.2822 233.803 57.2704 225.795 61.2586Z"/><path d="M233.5 47.8084C233.5 45.333 235.515 43.3263 238 43.3263L282 43.3263C284.485 43.3263 286.5 45.333 286.5 47.8084L286.5 65.7363C286.5 68.2117 284.485 70.2184 282 70.2184L238 70.2184C235.515 70.2184 233.5 68.2117 233.5 65.7363Z" stroke="#172C51" stroke-width="1.33474" stroke-miterlimit="8" fill="#F2F2F2" fill-rule="evenodd"/><text font-family="Cambria Math,Cambria Math_MSFontService,sans-serif" font-weight="400" font-size="14.6235" transform="matrix(1 0 0 0.996005 254.204 61)">𝒛</text><path d="M0 47.8083 19.2978 0 67.3546 0 86.6524 47.8083Z" stroke="#A6A6A6" stroke-width="1.32941" stroke-miterlimit="8" fill="#D9D9D9" fill-rule="evenodd" transform="matrix(1.84434e-16 1 1.00401 -1.83697e-16 321.5 13.4461)"/><path d="M286.5 56.6056 318.129 56.6057 318.129 57.9351 286.5 57.935ZM316.795 53.2822 324.803 57.2704 316.795 61.2586Z"/><text font-family="Calibri,Calibri_MSFontService,sans-serif" font-weight="700" font-size="11.9647" transform="matrix(1 0 0 0.996005 328.857 50)">Decoder</text><text font-family="Cambria Math,Cambria Math_MSFontService,sans-serif" font-weight="400" font-size="11.9647" transform="matrix(1 0 0 0.996005 328.963 65)">𝒑</text><text font-family="Cambria Math,Cambria Math_MSFontService,sans-serif" font-weight="400" font-size="8.73423" transform="matrix(1 0 0 0.996005 336.471 67)">𝝓</text><path d="M38.5988 2.99896C39.7315 3.29766 40.6014 3.94257 41.2085 4.93371 41.8156 5.92485 42.1192 7.12061 42.1192 8.521 42.1192 9.92527 41.8166 11.121 41.2114 12.1083 40.6063 13.0955 39.7354 13.7385 38.5988 14.0372L38.4592 13.5892C39.3553 13.2905 40.0215 12.7008 40.4579 11.8203 40.8943 10.9397 41.1125 9.82053 41.1125 8.46281 41.1125 7.15164 40.8953 6.06256 40.4608 5.19556 40.0264 4.32855 39.3533 3.74571 38.4417 3.44701ZM20.873 2.99896 21.0301 3.44701C20.1224 3.74571 19.4503 4.32855 19.0139 5.19556 18.5775 6.06256 18.3593 7.15164 18.3593 8.46281 18.3593 9.82053 18.5775 10.9397 19.0139 11.8203 19.4503 12.7008 20.1165 13.2905 21.0126 13.5892L20.873 14.0372C19.7364 13.7385 18.8655 13.0955 18.2603 12.1083 17.6552 11.121 17.3526 9.92527 17.3526 8.521 17.3526 7.12061 17.6562 5.92485 18.2633 4.93371 18.8704 3.94257 19.7403 3.29766 20.873 2.99896Z" fill-rule="evenodd" transform="matrix(1.00401 0 0 1 327.275 53.1174)"/><text font-family="Cambria Math,Cambria Math_MSFontService,sans-serif" font-weight="400" font-size="11.9647" transform="matrix(1 0 0 0.996005 348.631 65)">𝒙</text><text font-family="Cambria Math,Cambria Math_MSFontService,sans-serif" font-weight="400" font-size="11.9647" transform="matrix(1 0 0 0.996005 355.638 65)">|</text><text font-family="Cambria Math,Cambria Math_MSFontService,sans-serif" font-weight="400" font-size="11.9647" transform="matrix(1 0 0 0.996005 359.476 65)">𝒛</text><path d="M369.5 56.6056 401.129 56.6057 401.129 57.9351 369.5 57.935ZM399.795 53.2822 407.803 57.2704 399.795 61.2586Z"/><path d="M407.5 47.8083C407.5 45.333 409.515 43.3263 412 43.3263L457 43.3263C459.485 43.3263 461.5 45.333 461.5 47.8083L461.5 65.7362C461.5 68.2116 459.485 70.2183 457 70.2183L412 70.2183C409.515 70.2183 407.5 68.2116 407.5 65.7362Z" stroke="#172C51" stroke-width="1.33474" stroke-miterlimit="8" fill="#F2F2F2" fill-rule="evenodd"/><text font-family="Cambria Math,Cambria Math_MSFontService,sans-serif" font-weight="400" font-size="14.6235" transform="matrix(1 0 0 0.996005 428.283 61)">𝒙</text><text font-family="Calibri,Calibri_MSFontService,sans-serif" font-weight="700" font-size="14.6235" transform="matrix(1 0 0 0.996005 436.792 61)">'</text><text font-family="Calibri,Calibri_MSFontService,sans-serif" font-weight="700" font-size="14.6235" transform="matrix(1 0 0 0.996005 9.61016 61)">VAE</text></g></svg>