<svg width="558" height="520" xmlns="http://www.w3.org/2000/svg" xmlns:xlink="http://www.w3.org/1999/xlink" overflow="hidden"><g><rect x="0" y="0" width="558" height="519.867" fill="#FFFFFF"/><text font-family="Calibri,Calibri_MSFontService,sans-serif" font-weight="700" font-size="14.6761" transform="matrix(1 0 0 0.999745 9.89401 58)">EBM</text><path d="M56.5 43.9889C56.5 41.5041 58.5147 39.4899 61.0001 39.4899L106 39.4899C108.485 39.4899 110.5 41.5041 110.5 43.9889L110.5 61.9841C110.5 64.4688 108.485 66.483 106 66.483L61.0001 66.483C58.5147 66.483 56.5 64.4688 56.5 61.9841Z" stroke="#172C51" stroke-width="1.33453" stroke-miterlimit="8" fill="#F2F2F2" fill-rule="evenodd"/><text font-family="Cambria Math,Cambria Math_MSFontService,sans-serif" font-weight="400" font-size="14.6761" transform="matrix(1 0 0 0.999745 77.2108 58)">𝒙</text><path d="M148.5 9.49753 210.5 34.5175 210.5 71.4555 148.5 96.4754Z" stroke="#A6A6A6" stroke-width="1.33419" stroke-miterlimit="8" fill="#D9D9D9" fill-rule="evenodd"/><text font-family="Yu Gothic,Yu Gothic_MSFontService,sans-serif" font-weight="700" font-size="12.0077" transform="matrix(1 0 0 0.999745 148.283 47)">エネルギー</text><text font-family="Cambria Math,Cambria Math_MSFontService,sans-serif" font-weight="400" font-size="12.0077" transform="matrix(1 0 0 0.999745 162.316 62)">𝑬</text><text font-family="Cambria Math,Cambria Math_MSFontService,sans-serif" font-weight="400" font-size="8.76562" transform="matrix(1 0 0 0.999745 170.156 64)">𝝓</text><path d="M41.7409 3.02104C42.8819 3.32193 43.7582 3.9716 44.3698 4.97003 44.9814 5.96846 45.2871 7.17303 45.2871 8.58373 45.2871 9.99834 44.9823 11.2029 44.3727 12.1974 43.7631 13.192 42.8858 13.8397 41.7409 14.1406L41.6002 13.6892C42.5029 13.3883 43.174 12.7943 43.6136 11.9073 44.0533 11.0202 44.2731 9.89283 44.2731 8.52511 44.2731 7.20429 44.0542 6.10719 43.6166 5.2338 43.1789 4.36042 42.5009 3.77328 41.5826 3.47238ZM33.9735 3.02104 34.1318 3.47238C33.2174 3.77328 32.5404 4.36042 32.1008 5.2338 31.6611 6.10719 31.4413 7.20429 31.4413 8.52511 31.4413 9.89283 31.6611 11.0202 32.1008 11.9073 32.5404 12.7943 33.2115 13.3883 34.1142 13.6892L33.9735 14.1406C32.8286 13.8397 31.9513 13.192 31.3417 12.1974 30.7321 11.2029 30.4273 9.99834 30.4273 8.58373 30.4273 7.17303 30.733 5.96846 31.3446 4.97003 31.9562 3.9716 32.8325 3.32193 33.9735 3.02104Z" fill-rule="evenodd" transform="matrix(1.00026 0 0 1 147.949 49.9703)"/><text font-family="Cambria Math,Cambria Math_MSFontService,sans-serif" font-weight="400" font-size="12.0077" transform="matrix(1 0 0 0.999745 182.313 62)">𝒙</text><path d="M257.5 52.9865C257.5 45.5325 269.588 39.4899 284.5 39.4899 299.412 39.4899 311.5 45.5325 311.5 52.9865 311.5 60.4404 299.412 66.483 284.5 66.483 269.588 66.483 257.5 60.4404 257.5 52.9865Z" stroke="#A6A6A6" stroke-width="1.33453" stroke-miterlimit="8" fill="#F2F2F2" fill-rule="evenodd"/><text font-family="Yu Gothic,Yu Gothic_MSFontService,sans-serif" font-weight="700" font-size="13.3419" transform="matrix(1 0 0 0.999745 277.613 57)">値</text><path d="M110.5 52.8193 142.124 52.8194 142.124 54.1535 110.5 54.1535ZM140.79 49.4839 148.797 53.4865 140.79 57.489Z"/><path d="M210.519 50.82 251.324 51.9668 251.286 53.3004 210.481 52.1537ZM250.083 48.5951 257.975 52.8211 249.858 56.5971Z"/><path d="M56.5 114.138C56.5 111.561 58.5894 109.472 61.1667 109.472L105.833 109.472C108.411 109.472 110.5 111.561 110.5 114.138L110.5 132.799C110.5 135.376 108.411 137.465 105.833 137.465L61.1667 137.465C58.5894 137.465 56.5 135.376 56.5 132.799Z" stroke="#172C51" stroke-width="1.33453" stroke-miterlimit="8" fill="#F2F2F2" fill-rule="evenodd"/><text font-family="Cambria Math,Cambria Math_MSFontService,sans-serif" font-weight="400" font-size="14.6761" transform="matrix(1 0 0 0.999745 77.2108 128)">𝒙</text><path d="M131.5 114.138C131.5 111.561 133.589 109.472 136.167 109.472L180.833 109.472C183.411 109.472 185.5 111.561 185.5 114.138L185.5 132.799C185.5 135.376 183.411 137.465 180.833 137.465L136.167 137.465C133.589 137.465 131.5 135.376 131.5 132.799Z" stroke="#172C51" stroke-width="1.33453" stroke-miterlimit="8" fill="#F2F2F2" fill-rule="evenodd"/><text font-family="Cambria Math,Cambria Math_MSFontService,sans-serif" font-weight="400" font-size="14.6761" transform="matrix(1 0 0 0.999745 148.706 128)">𝒙</text><text font-family="Cambria Math,Cambria Math_MSFontService,sans-serif" font-weight="400" font-size="10.7135" transform="matrix(1 0 0 0.999745 157.214 131)">𝟎</text><path d="M110.5 122.801 125.197 122.801 125.197 124.136 110.5 124.136ZM123.862 119.466 131.869 123.469 123.862 127.471Z"/><path d="M206.5 114.138C206.5 111.561 208.589 109.472 211.167 109.472L255.833 109.472C258.411 109.472 260.5 111.561 260.5 114.138L260.5 132.799C260.5 135.376 258.411 137.465 255.833 137.465L211.167 137.465C208.589 137.465 206.5 135.376 206.5 132.799Z" stroke="#172C51" stroke-width="1.33453" stroke-miterlimit="8" fill="#F2F2F2" fill-rule="evenodd"/><text font-family="Cambria Math,Cambria Math_MSFontService,sans-serif" font-weight="400" font-size="14.6761" transform="matrix(1 0 0 0.999745 223.675 128)">𝒙</text><text font-family="Cambria Math,Cambria Math_MSFontService,sans-serif" font-weight="400" font-size="10.7135" transform="matrix(1 0 0 0.999745 232.183 131)">𝟏</text><path d="M185.5 122.801 200.197 122.801 200.197 124.136 185.5 124.136ZM198.862 119.466 206.869 123.469 198.862 127.471Z"/><path d="M281.5 114.138C281.5 111.561 283.589 109.472 286.167 109.472L330.833 109.472C333.411 109.472 335.5 111.561 335.5 114.138L335.5 132.799C335.5 135.376 333.411 137.465 330.833 137.465L286.167 137.465C283.589 137.465 281.5 135.376 281.5 132.799Z" stroke="#172C51" stroke-width="1.33453" stroke-miterlimit="8" fill="#F2F2F2" fill-rule="evenodd"/><text font-family="Cambria Math,Cambria Math_MSFontService,sans-serif" font-weight="400" font-size="14.6761" transform="matrix(1 0 0 0.999745 298.644 128)">𝒙</text><text font-family="Cambria Math,Cambria Math_MSFontService,sans-serif" font-weight="400" font-size="10.7135" transform="matrix(1 0 0 0.999745 307.152 131)">𝟐</text><path d="M260.5 122.801 275.197 122.801 275.197 124.136 260.5 124.136ZM273.862 119.466 281.869 123.469 273.862 127.471Z"/><path d="M335.5 122.801 350.197 122.801 350.197 124.136 335.5 124.136ZM348.862 119.466 356.869 123.469 348.862 127.471Z"/><path d="M417.5 114.138C417.5 111.561 419.589 109.472 422.167 109.472L466.833 109.472C469.411 109.472 471.5 111.561 471.5 114.138L471.5 132.799C471.5 135.376 469.411 137.465 466.833 137.465L422.167 137.465C419.589 137.465 417.5 135.376 417.5 132.799Z" stroke="#172C51" stroke-width="1.33453" stroke-miterlimit="8" fill="#F2F2F2" fill-rule="evenodd"/><text font-family="Cambria Math,Cambria Math_MSFontService,sans-serif" font-weight="400" font-size="14.6761" transform="matrix(1 0 0 0.999745 427.646 128)">𝒙</text><text font-family="Cambria Math,Cambria Math_MSFontService,sans-serif" font-weight="400" font-size="10.7135" transform="matrix(1 0 0 0.999745 436.154 131)">𝑳</text><text font-family="Cambria Math,Cambria Math_MSFontService,sans-serif" font-weight="400" font-size="10.7135" transform="matrix(1 0 0 0.999745 442.159 131)">−</text><text font-family="Cambria Math,Cambria Math_MSFontService,sans-serif" font-weight="400" font-size="10.7135" transform="matrix(1 0 0 0.999745 450 131)">𝟏</text><path d="M396.5 122.801 411.197 122.801 411.197 124.136 396.5 124.136ZM409.862 119.466 417.869 123.469 409.862 127.471Z"/><path d="M492.5 114.138C492.5 111.561 494.589 109.472 497.167 109.472L541.833 109.472C544.411 109.472 546.5 111.561 546.5 114.138L546.5 132.799C546.5 135.376 544.411 137.465 541.833 137.465L497.167 137.465C494.589 137.465 492.5 135.376 492.5 132.799Z" stroke="#172C51" stroke-width="1.33453" stroke-miterlimit="8" fill="#F2F2F2" fill-rule="evenodd"/><text font-family="Cambria Math,Cambria Math_MSFontService,sans-serif" font-weight="400" font-size="14.6761" transform="matrix(1 0 0 0.999745 509.705 128)">𝒙</text><text font-family="Cambria Math,Cambria Math_MSFontService,sans-serif" font-weight="400" font-size="10.7135" transform="matrix(1 0 0 0.999745 518.212 131)">𝑳</text><path d="M471.5 122.801 486.197 122.801 486.197 124.136 471.5 124.136ZM484.862 119.466 492.869 123.469 484.862 127.471Z"/><text font-family="Yu Gothic,Yu Gothic_MSFontService,sans-serif" font-weight="700" font-size="12.0077" transform="matrix(1 0 0 0.999745 368.57 128)">･･･</text><path d="M0.125305-0.65522 2.48054-0.204801 4.87406 1.13998 7.16692 3.25137 9.36725 6.06018 11.4753 9.51257 13.4832 13.5575 15.3783 18.1433 17.1459 23.2176 18.7698 28.7273 20.235 34.6248 22.6118 47.3303 24.1416 60.9196 24.683 74.949 24.1718 88.977 22.7271 102.564 20.4828 115.267 19.0994 121.163 17.566 126.671 15.8971 131.744 14.1077 136.329 12.2119 140.373 10.2009 143.86 7.44208 146.77 6.47383 145.852 9.17832 142.999 9.08456 143.125 11.042 139.731 11.0159 139.781 12.8903 135.783 12.8729 135.823 14.6476 131.276 14.6354 131.31 16.2938 126.269 16.2849 126.299 17.8104 120.818 17.8036 120.845 19.1797 114.98 19.1722 115.017 21.4093 102.354 21.4029 102.4 22.8426 88.859 22.8393 88.9053 23.3487 74.9254 23.3488 74.9754 22.8094 60.9955 22.8131 61.0444 21.2887 47.5037 21.2959 47.5518 18.9271 34.8894 18.9355 34.9275 17.4785 29.0629 17.486 29.0907 15.8707 23.6104 15.8806 23.6412 14.1246 18.6 14.1381 18.6354 12.2589 14.0883 12.2779 14.1301 10.2932 10.1319 10.3214 10.183 8.24881 6.78864 8.29301 6.85237 6.15003 4.11678 6.22329 4.19612 4.02755 2.17417 4.15267 2.26503 1.92175 1.0116 2.12321 1.08523-0.125305 0.65522ZM10.2356 148.968 1.33419 149.899 5.92982 142.219Z" transform="matrix(1.83744e-16 1 1.00026 -1.83697e-16 159.5 136.465)"/><path d="M0.152429-0.649446 3.0232 0.0243411 5.92054 2.02216 8.69276 5.15515 11.3592 9.33252 13.9197 14.4789 16.3625 20.5185 18.6707 27.3733 20.8251 34.9636 22.8053 43.2091 24.5906 52.0284 26.1599 61.3403 27.4926 71.0679 29.359 91.4137 30.0196 112.424 29.3891 133.433 27.6077 153.778 26.3357 163.504 24.8378 172.815 23.1338 181.634 21.2438 189.878 19.1877 197.468 16.9848 204.321 14.6534 210.36 12.2098 215.505 9.64103 219.721 7.39831 221.746 6.50427 220.755 8.67488 218.796 8.55221 218.944 11.0524 214.84 11.0194 214.901 13.4375 209.81 13.4178 209.856 15.7332 203.859 15.7204 203.895 17.9128 197.074 17.904 197.104 19.9527 189.542 19.9463 189.567 21.8308 181.347 21.8261 181.369 23.5259 172.572 23.5222 172.593 25.0168 163.302 25.014 163.322 26.2829 153.619 26.2798 153.647 28.0583 133.336 28.056 133.374 28.6854 112.404 28.6854 112.445 28.0261 91.4757 28.0286 91.5157 26.1654 71.2046 26.1688 71.2342 24.8395 61.5316 24.8426 61.5519 23.2768 52.2609 23.2808 52.2824 21.5 43.4855 21.5052 43.509 19.531 35.2885 19.5379 35.3148 17.3916 27.7531 17.4012 27.7838 15.1044 20.9631 15.1182 21.0004 12.6925 15.0031 12.7137 15.0501 10.1805 9.95864 10.2154 10.0204 7.59624 5.91702 7.65896 6.00016 4.97527 2.96723 5.09618 3.07435 2.36949 1.19421 2.59575 1.29446-0.152429 0.649446ZM10.2338 223.901 1.33419 224.849 5.91557 217.16Z" transform="matrix(1.83744e-16 1 1.00026 -1.83697e-16 84.5 136.465)"/><path d="M0.0634985-0.664065 2.37145-0.443377 4.71057 0.213735 6.99562 1.26583 9.22519 2.6889 13.37 6.46487 17.0729 11.3484 20.1915 17.1063 22.5924 23.5235 24.1374 30.3854 24.6844 37.4734 24.168 44.5588 22.7097 51.4164 20.4433 57.8305 17.4988 63.5868 14.0013 68.4708 10.0481 72.2841 7.90626 73.3112 7.32936 72.1082 9.37401 71.1277 9.19933 71.249 13.0312 67.5528 12.952 67.6445 16.3852 62.8504 16.3336 62.935 19.2352 57.2625 19.2001 57.3441 21.4373 51.0129 21.4137 51.0964 22.8535 44.326 22.8406 44.4163 23.3501 37.4263 23.3503 37.5262 22.8109 30.5362 22.8252 30.6314 21.3008 23.8611 21.3268 23.9483 18.9581 17.6171 18.9963 17.701 15.924 12.0286 15.979 12.1139 12.3439 7.3198 12.4262 7.40988 8.3689 3.71363 8.45924 3.78281 6.31627 2.41501 6.39618 2.45865 4.20044 1.44767 4.29902 1.48395 2.06809 0.857238 2.18501 0.87907-0.0634985 0.664065ZM10.2185 76.0318 1.33419 74.9497 7.53053 68.4915Z" transform="matrix(1.83744e-16 1 1.00026 -1.83697e-16 445.5 136.465)"/><path d="M0.08422-0.661757 3.34646-0.24658 6.63966 0.984731 9.84907 2.95148 12.9559 5.59075 15.943 8.84632 18.7919 12.6656 21.482 16.9974 23.9911 21.7911 26.2963 26.9958 28.3771 32.5694 31.7499 44.568 33.9199 57.3953 34.4929 64.0052 34.6892 70.6592 34.5006 77.3125 33.9502 83.9206 31.8657 96.7458 28.6257 108.742 26.6269 114.315 24.4124 119.519 22.002 124.312 19.4176 128.643 16.6804 132.463 13.8096 135.719 10.7961 138.384 7.95811 139.799 7.36259 138.605 10.1221 137.229 9.97797 137.326 12.8948 134.747 12.8363 134.806 15.6573 131.606 15.6155 131.658 18.3169 127.889 18.2862 127.936 20.8439 123.649 20.8208 123.691 23.211 118.938 23.1931 118.977 25.3917 113.81 25.3776 113.846 27.3607 108.317 27.3446 108.369 30.5687 96.431 30.5543 96.4979 32.6292 83.7322 32.6228 83.7839 33.1695 77.2199 33.1674 77.2564 33.355 70.6407 33.355 70.6792 33.1598 64.0635 33.162 64.1015 32.593 57.5375 32.5999 57.5912 30.4403 44.8256 30.4559 44.8948 27.1002 32.9572 27.1174 33.01 25.0534 27.4811 25.0684 27.5179 22.78 22.3513 22.799 22.3905 20.3113 17.6379 20.3356 17.6804 17.6735 13.3936 17.7055 13.4405 14.8939 9.67121 14.9371 9.72336 12.0008 6.52332 12.0605 6.58072 9.0246 4.00171 9.10794 4.0621 5.99731 2.15587 6.11224 2.21193 2.95176 1.03024 3.10117 1.06715-0.08422 0.661757ZM10.1957 142.575 1.33419 141.319 7.65547 134.983Z" transform="matrix(1.83744e-16 1 1.00026 -1.83697e-16 378.5 136.465)"/><text font-family="Calibri,Calibri_MSFontService,sans-serif" font-weight="700" font-size="14.6761" transform="matrix(1 0 0 0.999745 9.89401 130)">AR</text><path d="M56.5 213.945C56.5 211.461 58.5147 209.446 61.0001 209.446L106 209.446C108.485 209.446 110.5 211.461 110.5 213.945L110.5 231.941C110.5 234.425 108.485 236.44 106 236.44L61.0001 236.44C58.5147 236.44 56.5 234.425 56.5 231.941Z" stroke="#172C51" stroke-width="1.33453" stroke-miterlimit="8" fill="#F2F2F2" fill-rule="evenodd"/><text font-family="Cambria Math,Cambria Math_MSFontService,sans-serif" font-weight="400" font-size="14.6761" transform="matrix(1 0 0 0.999745 77.2108 227)">𝒙</text><path d="M148.5 179.454 196.5 198.824 196.5 247.062 148.5 266.432Z" stroke="#A6A6A6" stroke-width="1.33419" stroke-miterlimit="8" fill="#D9D9D9" fill-rule="evenodd"/><path d="M110.5 221.776 142.124 221.776 142.124 223.11 110.5 223.11ZM140.79 218.441 148.797 222.443 140.79 226.446Z"/><text font-family="Calibri,Calibri_MSFontService,sans-serif" font-weight="700" font-size="12.0077" transform="matrix(1 0 0 0.999745 154.048 219)">Encoder</text><text font-family="Cambria Math,Cambria Math_MSFontService,sans-serif" font-weight="400" font-size="12.0077" transform="matrix(1 0 0 0.999745 154.235 234)">𝒒</text><text font-family="Cambria Math,Cambria Math_MSFontService,sans-serif" font-weight="400" font-size="8.76562" transform="matrix(1 0 0 0.999745 161.575 236)">𝜽</text><path d="M37.4047 3.02104C38.5458 3.32193 39.4221 3.9716 40.0337 4.97003 40.6452 5.96846 40.951 7.17303 40.951 8.58373 40.951 9.99834 40.6462 11.2029 40.0366 12.1974 39.427 13.192 38.5497 13.8397 37.4047 14.1406L37.2641 13.6892C38.1668 13.3883 38.8379 12.7943 39.2775 11.9073 39.7172 11.0202 39.937 9.89283 39.937 8.52511 39.937 7.20429 39.7181 6.10719 39.2805 5.2338 38.8428 4.36042 38.1648 3.77328 37.2465 3.47238ZM19.631 3.02104 19.7893 3.47238C18.8749 3.77328 18.1978 4.36042 17.7582 5.2338 17.3186 6.10719 17.0988 7.20429 17.0988 8.52511 17.0988 9.89283 17.3186 11.0202 17.7582 11.9073 18.1978 12.7943 18.869 13.3883 19.7717 13.6892L19.631 14.1406C18.486 13.8397 17.6088 13.192 16.9991 12.1974 16.3895 11.2029 16.0847 9.99834 16.0847 8.58373 16.0847 7.17303 16.3905 5.96846 17.0021 4.97003 17.6136 3.9716 18.49 3.32193 19.631 3.02104Z" fill-rule="evenodd" transform="matrix(1.00026 0 0 1 152.547 221.552)"/><text font-family="Cambria Math,Cambria Math_MSFontService,sans-serif" font-weight="400" font-size="12.0077" transform="matrix(1 0 0 0.999745 172.565 234)">𝒛</text><text font-family="Cambria Math,Cambria Math_MSFontService,sans-serif" font-weight="400" font-size="12.0077" transform="matrix(1 0 0 0.999745 178.737 234)">|</text><text font-family="Cambria Math,Cambria Math_MSFontService,sans-serif" font-weight="400" font-size="12.0077" transform="matrix(1 0 0 0.999745 182.574 234)">𝒙</text><path d="M196.5 221.776 228.124 221.776 228.124 223.11 196.5 223.11ZM226.79 218.441 234.797 222.443 226.79 226.446Z"/><path d="M233.5 213.945C233.5 211.461 235.515 209.446 238 209.446L283 209.446C285.485 209.446 287.5 211.461 287.5 213.945L287.5 231.941C287.5 234.425 285.485 236.44 283 236.44L238 236.44C235.515 236.44 233.5 234.425 233.5 231.941Z" stroke="#172C51" stroke-width="1.33453" stroke-miterlimit="8" fill="#F2F2F2" fill-rule="evenodd"/><text font-family="Cambria Math,Cambria Math_MSFontService,sans-serif" font-weight="400" font-size="14.6761" transform="matrix(1 0 0 0.999745 254.448 227)">𝒛</text><path d="M0 46.988 18.9667 0 68.0112 0 86.9779 46.988Z" stroke="#A6A6A6" stroke-width="1.33419" stroke-miterlimit="8" fill="#D9D9D9" fill-rule="evenodd" transform="matrix(1.83744e-16 1 1.00026 -1.83697e-16 322.5 179.454)"/><path d="M287.5 221.776 319.124 221.776 319.124 223.11 287.5 223.11ZM317.79 218.441 325.797 222.443 317.79 226.446Z"/><text font-family="Calibri,Calibri_MSFontService,sans-serif" font-weight="700" font-size="12.0077" transform="matrix(1 0 0 0.999745 327.815 216)">Decoder</text><text font-family="Cambria Math,Cambria Math_MSFontService,sans-serif" font-weight="400" font-size="12.0077" transform="matrix(1 0 0 0.999745 327.922 231)">𝒑</text><text font-family="Cambria Math,Cambria Math_MSFontService,sans-serif" font-weight="400" font-size="8.76562" transform="matrix(1 0 0 0.999745 335.428 233)">𝝓</text><path d="M38.7389 3.02104C39.88 3.32193 40.7563 3.9716 41.3679 4.97003 41.9794 5.96846 42.2852 7.17303 42.2852 8.58373 42.2852 9.99834 41.9804 11.2029 41.3708 12.1974 40.7612 13.192 39.8839 13.8397 38.7389 14.1406L38.5982 13.6892C39.5009 13.3883 40.1721 12.7943 40.6117 11.9073 41.0513 11.0202 41.2712 9.89283 41.2712 8.52511 41.2712 7.20429 41.0523 6.10719 40.6147 5.2338 40.177 4.36042 39.499 3.77328 38.5807 3.47238ZM20.9652 3.02104 21.1235 3.47238C20.2091 3.77328 19.532 4.36042 19.0924 5.2338 18.6528 6.10719 18.433 7.20429 18.433 8.52511 18.433 9.89283 18.6528 11.0202 19.0924 11.9073 19.532 12.7943 20.2032 13.3883 21.1059 13.6892L20.9652 14.1406C19.8202 13.8397 18.9429 13.192 18.3333 12.1974 17.7237 11.2029 17.4189 9.99834 17.4189 8.58373 17.4189 7.17303 17.7247 5.96846 18.3363 4.97003 18.9478 3.9716 19.8241 3.32193 20.9652 3.02104Z" fill-rule="evenodd" transform="matrix(1.00026 0 0 1 326.234 218.919)"/><text font-family="Cambria Math,Cambria Math_MSFontService,sans-serif" font-weight="400" font-size="12.0077" transform="matrix(1 0 0 0.999745 347.586 231)">𝒙</text><text font-family="Cambria Math,Cambria Math_MSFontService,sans-serif" font-weight="400" font-size="12.0077" transform="matrix(1 0 0 0.999745 354.592 231)">|</text><text font-family="Cambria Math,Cambria Math_MSFontService,sans-serif" font-weight="400" font-size="12.0077" transform="matrix(1 0 0 0.999745 358.429 231)">𝒛</text><path d="M369.5 222.776 401.124 222.776 401.124 224.11 369.5 224.11ZM399.79 219.44 407.797 223.443 399.79 227.446Z"/><path d="M408.5 213.945C408.5 211.461 410.515 209.446 413 209.446L457 209.446C459.485 209.446 461.5 211.461 461.5 213.945L461.5 231.941C461.5 234.425 459.485 236.44 457 236.44L413 236.44C410.515 236.44 408.5 234.425 408.5 231.941Z" stroke="#172C51" stroke-width="1.33453" stroke-miterlimit="8" fill="#F2F2F2" fill-rule="evenodd"/><text font-family="Cambria Math,Cambria Math_MSFontService,sans-serif" font-weight="400" font-size="14.6761" transform="matrix(1 0 0 0.999745 428.5 227)">𝒙</text><text font-family="Calibri,Calibri_MSFontService,sans-serif" font-weight="700" font-size="14.6761" transform="matrix(1 0 0 0.999745 437.007 227)">'</text><text font-family="Calibri,Calibri_MSFontService,sans-serif" font-weight="700" font-size="14.6761" transform="matrix(1 0 0 0.999745 9.89401 227)">VAE</text><path d="M56.5 293.925C56.5 291.44 58.5147 289.426 61.0001 289.426L106 289.426C108.485 289.426 110.5 291.44 110.5 293.925L110.5 311.92C110.5 314.405 108.485 316.419 106 316.419L61.0001 316.419C58.5147 316.419 56.5 314.405 56.5 311.92Z" stroke="#172C51" stroke-width="1.33453" stroke-miterlimit="8" fill="#F2F2F2" fill-rule="evenodd"/><text font-family="Cambria Math,Cambria Math_MSFontService,sans-serif" font-weight="400" font-size="14.6761" transform="matrix(1 0 0 0.999745 77.2108 308)">𝒙</text><path d="M2.67633e-06-0.667094 19.5146-0.667016 19.5146 0.667173-2.67633e-06 0.667094ZM18.1804-4.00249 26.1855 0.000105054 18.1804 4.00264Z" transform="matrix(1.00026 0 0 -1 110.5 303.423)"/><path d="M205.5 302.755 227.853 302.756 227.853 304.09 205.5 304.09ZM226.518 299.42 234.526 303.423 226.518 307.425Z"/><path d="M233.5 293.925C233.5 291.44 235.515 289.426 238 289.426L283 289.426C285.485 289.426 287.5 291.44 287.5 293.925L287.5 311.92C287.5 314.405 285.485 316.419 283 316.419L238 316.419C235.515 316.419 233.5 314.405 233.5 311.92Z" stroke="#172C51" stroke-width="1.33453" stroke-miterlimit="8" fill="#F2F2F2" fill-rule="evenodd"/><text font-family="Cambria Math,Cambria Math_MSFontService,sans-serif" font-weight="400" font-size="14.6761" transform="matrix(1 0 0 0.999745 254.448 308)">𝒛</text><path d="M287.5 302.755 307.272 302.756 307.272 304.09 287.5 304.09ZM305.937 299.42 313.944 303.423 305.937 307.425Z"/><path d="M382.508 302.755 401.776 302.98 401.76 304.314 382.492 304.09ZM400.48 299.629 408.44 303.725 400.387 307.634Z"/><path d="M408.5 293.925C408.5 291.44 410.515 289.426 413 289.426L457 289.426C459.485 289.426 461.5 291.44 461.5 293.925L461.5 311.92C461.5 314.405 459.485 316.419 457 316.419L413 316.419C410.515 316.419 408.5 314.405 408.5 311.92Z" stroke="#172C51" stroke-width="1.33453" stroke-miterlimit="8" fill="#F2F2F2" fill-rule="evenodd"/><text font-family="Cambria Math,Cambria Math_MSFontService,sans-serif" font-weight="400" font-size="14.6761" transform="matrix(1 0 0 0.999745 428.5 308)">𝒙</text><text font-family="Calibri,Calibri_MSFontService,sans-serif" font-weight="700" font-size="14.6761" transform="matrix(1 0 0 0.999745 437.007 308)">'</text><text font-family="Calibri,Calibri_MSFontService,sans-serif" font-weight="700" font-size="14.6761" transform="matrix(1 0 0 0.999745 9.89401 308)">NF</text><path d="M136.5 289.926C136.5 286.337 139.41 283.428 143 283.428L199 283.428C202.59 283.428 205.5 286.337 205.5 289.926L205.5 315.919C205.5 319.508 202.59 322.418 199 322.418L143 322.418C139.41 322.418 136.5 319.508 136.5 315.919Z" stroke="#172C51" stroke-width="1.33453" stroke-miterlimit="8" fill="#D9D9D9" fill-rule="evenodd"/><text font-family="Calibri,Calibri_MSFontService,sans-serif" font-weight="700" font-size="14.6761" transform="matrix(1 0 0 0.999745 145.011 298)">Forward</text><text font-family="Cambria Math,Cambria Math_MSFontService,sans-serif" font-weight="400" font-size="14.6761" transform="matrix(1 0 0 0.999745 151.543 316)">𝒇</text><text font-family="Cambria Math,Cambria Math_MSFontService,sans-serif" font-weight="400" font-size="10.7135" transform="matrix(1 0 0 0.999745 159.884 319)">𝝓</text><path d="M36.0418 3.01953C37.4364 3.38729 38.5075 4.18132 39.255 5.40163 40.0024 6.62194 40.3762 8.09418 40.3762 9.81837 40.3762 11.5473 40.0036 13.0196 39.2585 14.2351 38.5135 15.4506 37.4412 16.2423 36.0418 16.6101L35.8699 16.0584C36.9732 15.6906 37.7935 14.9647 38.3308 13.8805 38.8681 12.7963 39.1368 11.4184 39.1368 9.74673 39.1368 8.13239 38.8693 6.79149 38.3344 5.72402 37.7994 4.65655 36.9708 3.93893 35.8484 3.57117ZM26.604 3.01953 26.7975 3.57117C25.6798 3.93893 24.8524 4.65655 24.3151 5.72402 23.7777 6.79149 23.5091 8.13239 23.5091 9.74673 23.5091 11.4184 23.7777 12.7963 24.3151 13.8805 24.8524 14.9647 25.6727 15.6906 26.776 16.0584L26.604 16.6101C25.2046 16.2423 24.1324 15.4506 23.3873 14.2351 22.6422 13.0196 22.2697 11.5473 22.2697 9.81837 22.2697 8.09418 22.6434 6.62194 23.3909 5.40163 24.1383 4.18132 25.2094 3.38729 26.604 3.01953Z" fill-rule="evenodd" transform="matrix(1.00026 0 0 1 147.68 302.056)"/><text font-family="Cambria Math,Cambria Math_MSFontService,sans-serif" font-weight="400" font-size="14.6761" transform="matrix(1 0 0 0.999745 174.757 316)">𝒙</text><path d="M313.5 289.926C313.5 286.337 316.41 283.428 320 283.428L376 283.428C379.59 283.428 382.5 286.337 382.5 289.926L382.5 315.919C382.5 319.508 379.59 322.418 376 322.418L320 322.418C316.41 322.418 313.5 319.508 313.5 315.919Z" stroke="#172C51" stroke-width="1.33453" stroke-miterlimit="8" fill="#D9D9D9" fill-rule="evenodd"/><text font-family="Calibri,Calibri_MSFontService,sans-serif" font-weight="700" font-size="14.6761" transform="matrix(1 0 0 0.999745 323.722 297)">Inverse</text><text font-family="Cambria Math,Cambria Math_MSFontService,sans-serif" font-weight="400" font-size="14.6761" transform="matrix(1 0 0 0.999745 324.002 316)">𝒇</text><text font-family="Cambria Math,Cambria Math_MSFontService,sans-serif" font-weight="400" font-size="10.7135" transform="matrix(1 0 0 0.999745 332.343 320)">𝝓</text><text font-family="Cambria Math,Cambria Math_MSFontService,sans-serif" font-weight="400" font-size="10.7135" transform="matrix(1 0 0 0.999745 332.343 310)">−</text><text font-family="Cambria Math,Cambria Math_MSFontService,sans-serif" font-weight="400" font-size="10.7135" transform="matrix(1 0 0 0.999745 340.183 310)">𝟏</text><path d="M39.0437 4.01991C40.4384 4.38768 41.5094 5.18171 42.2569 6.40202 43.0044 7.62232 43.3781 9.09457 43.3781 10.8188 43.3781 12.5477 43.0056 14.02 42.2605 15.2355 41.5154 16.451 40.4431 17.2427 39.0437 17.6104L38.8718 17.0588C39.9751 16.691 40.7954 15.9651 41.3327 14.8809 41.87 13.7967 42.1387 12.4188 42.1387 10.7471 42.1387 9.13278 41.8712 7.79187 41.3363 6.72441 40.8014 5.65694 39.9727 4.93932 38.8503 4.57156ZM29.606 4.01991 29.7994 4.57156C28.6818 4.93932 27.8543 5.65694 27.317 6.72441 26.7797 7.79187 26.511 9.13278 26.511 10.7471 26.511 12.4188 26.7797 13.7967 27.317 14.8809 27.8543 15.9651 28.6746 16.691 29.7779 17.0588L29.606 17.6104C28.2065 17.2427 27.1343 16.451 26.3892 15.2355 25.6441 14.02 25.2716 12.5477 25.2716 10.8188 25.2716 9.09457 25.6453 7.62232 26.3928 6.40202 27.1403 5.18171 28.2113 4.38768 29.606 4.01991Z" fill-rule="evenodd" transform="matrix(1.00026 0 0 1 323.141 301.072)"/><text font-family="Cambria Math,Cambria Math_MSFontService,sans-serif" font-weight="400" font-size="14.6761" transform="matrix(1 0 0 0.999745 353.221 316)">𝒙</text><path d="M57.5 415.061C57.5 412.484 59.5894 410.395 62.1668 410.395L106.833 410.395C109.411 410.395 111.5 412.484 111.5 415.061L111.5 433.723C111.5 436.299 109.411 438.388 106.833 438.388L62.1668 438.388C59.5894 438.388 57.5 436.299 57.5 433.723Z" stroke="#172C51" stroke-width="1.33453" stroke-miterlimit="8" fill="#F2F2F2" fill-rule="evenodd"/><text font-family="Cambria Math,Cambria Math_MSFontService,sans-serif" font-weight="400" font-size="14.6761" transform="matrix(1 0 0 0.999745 78.3785 429)">𝒛</text><path d="M0 46.988 18.9666 0 69.0109 0 87.9775 46.988Z" stroke="#A6A6A6" stroke-width="1.33419" stroke-miterlimit="8" fill="#D9D9D9" fill-rule="evenodd" transform="matrix(1.83744e-16 1 1.00026 -1.83697e-16 146.5 380.403)"/><path d="M111.5 423.725 143.124 423.725 143.124 425.059 111.5 425.059ZM141.79 420.389 149.797 424.392 141.79 428.394Z"/><text font-family="Yu Gothic,Yu Gothic_MSFontService,sans-serif" font-weight="700" font-size="12.0077" transform="matrix(1 0 0 0.999745 151.28 414)">生成器</text><text font-family="Cambria Math,Cambria Math_MSFontService,sans-serif" font-weight="400" font-size="12.0077" transform="matrix(1 0 0 0.999745 153.636 429)">𝑮</text><text font-family="Cambria Math,Cambria Math_MSFontService,sans-serif" font-weight="400" font-size="8.76562" transform="matrix(1 0 0 0.999745 161.643 431)">𝝓</text><path d="M29.8999 3.02104C31.041 3.32193 31.9173 3.9716 32.5289 4.97003 33.1404 5.96846 33.4462 7.17303 33.4462 8.58373 33.4462 9.99834 33.1414 11.2029 32.5318 12.1974 31.9222 13.192 31.0449 13.8397 29.8999 14.1406L29.7592 13.6892C30.6619 13.3883 31.3331 12.7943 31.7727 11.9073 32.2123 11.0202 32.4322 9.89283 32.4322 8.52511 32.4322 7.20429 32.2133 6.10719 31.7757 5.2338 31.338 4.36042 30.66 3.77328 29.7417 3.47238ZM22.9665 3.02104 23.1248 3.47238C22.2103 3.77328 21.5333 4.36042 21.0937 5.2338 20.6541 6.10719 20.4343 7.20429 20.4343 8.52511 20.4343 9.89283 20.6541 11.0202 21.0937 11.9073 21.5333 12.7943 22.2045 13.3883 23.1072 13.6892L22.9665 14.1406C21.8215 13.8397 20.9442 13.192 20.3346 12.1974 19.725 11.2029 19.4202 9.99834 19.4202 8.58373 19.4202 7.17303 19.726 5.96846 20.3375 4.97003 20.9491 3.9716 21.8254 3.32193 22.9665 3.02104Z" fill-rule="evenodd" transform="matrix(1.00026 0 0 1 150.446 416.543)"/><text font-family="Cambria Math,Cambria Math_MSFontService,sans-serif" font-weight="400" font-size="12.0077" transform="matrix(1 0 0 0.999745 173.801 429)">𝒛</text><path d="M193.5 423.725 225.124 423.725 225.124 425.059 193.5 425.059ZM223.79 420.389 231.797 424.392 223.79 428.394Z"/><path d="M232.5 415.061C232.5 412.484 234.589 410.395 237.167 410.395L280.833 410.395C283.411 410.395 285.5 412.484 285.5 415.061L285.5 433.723C285.5 436.299 283.411 438.388 280.833 438.388L237.167 438.388C234.589 438.388 232.5 436.299 232.5 433.723Z" stroke="#172C51" stroke-width="1.33453" stroke-miterlimit="8" fill="#F2F2F2" fill-rule="evenodd"/><text font-family="Cambria Math,Cambria Math_MSFontService,sans-serif" font-weight="400" font-size="14.6761" transform="matrix(1 0 0 0.999745 252.43 429)">𝒙</text><text font-family="Calibri,Calibri_MSFontService,sans-serif" font-weight="700" font-size="14.6761" transform="matrix(1 0 0 0.999745 260.937 429)">'</text><path d="M233.5 370.072C233.5 367.496 235.589 365.407 238.167 365.407L282.833 365.407C285.411 365.407 287.5 367.496 287.5 370.072L287.5 388.734C287.5 391.311 285.411 393.4 282.833 393.4L238.167 393.4C235.589 393.4 233.5 391.311 233.5 388.734Z" stroke="#172C51" stroke-width="1.33453" stroke-miterlimit="8" fill="#F2F2F2" fill-rule="evenodd"/><text font-family="Cambria Math,Cambria Math_MSFontService,sans-serif" font-weight="400" font-size="14.6761" transform="matrix(1 0 0 0.999745 254.321 384)">𝒙</text><path d="M325.5 336.414 387.5 361.434 387.5 398.372 325.5 423.392Z" stroke="#A6A6A6" stroke-width="1.33419" stroke-miterlimit="8" fill="#D9D9D9" fill-rule="evenodd"/><text font-family="Yu Gothic,Yu Gothic_MSFontService,sans-serif" font-weight="700" font-size="12.0077" transform="matrix(1 0 0 0.999745 337.404 373)">識別器</text><text font-family="Cambria Math,Cambria Math_MSFontService,sans-serif" font-weight="400" font-size="12.0077" transform="matrix(1 0 0 0.999745 348.414 388)">𝑫</text><text font-family="Cambria Math,Cambria Math_MSFontService,sans-serif" font-weight="400" font-size="8.76562" transform="matrix(1 0 0 0.999745 357.422 391)">𝜻</text><path d="M435.5 379.403C435.5 371.673 447.365 365.407 462 365.407 476.636 365.407 488.5 371.673 488.5 379.403 488.5 387.133 476.636 393.4 462 393.4 447.365 393.4 435.5 387.133 435.5 379.403Z" stroke="#A6A6A6" stroke-width="1.33453" stroke-miterlimit="8" fill="#F2F2F2" fill-rule="evenodd"/><text font-family="Calibri,Calibri_MSFontService,sans-serif" font-weight="700" font-size="13.3419" transform="matrix(1 0 0 0.999745 447.968 375)">real/</text><text font-family="Calibri,Calibri_MSFontService,sans-serif" font-weight="700" font-size="13.3419" transform="matrix(1 0 0 0.999745 449.556 391)">fake</text><path d="M287.5 378.736 319.124 378.736 319.124 380.07 287.5 380.07ZM317.79 375.401 325.797 379.403 317.79 383.406Z"/><path d="M387.519 377.737 428.324 378.883 428.286 380.217 387.481 379.07ZM427.083 375.512 434.975 379.738 426.858 383.514Z"/><path d="M0.309599-0.5909 36.1409 18.1827 35.5217 19.3645-0.309599 0.5909ZM36.507 14.609 41.7402 21.8696 32.7918 21.6998Z" transform="matrix(1.00026 0 0 -1 285.5 424.267)"/><text font-family="Calibri,Calibri_MSFontService,sans-serif" font-weight="700" font-size="14.6761" transform="matrix(1 0 0 0.999745 9.89401 432)">GAN</text><path d="M56.5 488.042C56.5 485.465 58.5894 483.377 61.1667 483.377L105.833 483.377C108.411 483.377 110.5 485.465 110.5 488.042L110.5 506.704C110.5 509.281 108.411 511.369 105.833 511.369L61.1667 511.369C58.5894 511.369 56.5 509.281 56.5 506.704Z" stroke="#172C51" stroke-width="1.33453" stroke-miterlimit="8" fill="#F2F2F2" fill-rule="evenodd"/><text font-family="Cambria Math,Cambria Math_MSFontService,sans-serif" font-weight="400" font-size="14.6761" transform="matrix(1 0 0 0.999745 77.2108 502)">𝒙</text><path d="M131.5 488.042C131.5 485.465 133.589 483.377 136.167 483.377L180.833 483.377C183.411 483.377 185.5 485.465 185.5 488.042L185.5 506.704C185.5 509.281 183.411 511.369 180.833 511.369L136.167 511.369C133.589 511.369 131.5 509.281 131.5 506.704Z" stroke="#172C51" stroke-width="1.33453" stroke-miterlimit="8" fill="#F2F2F2" fill-rule="evenodd"/><text font-family="Cambria Math,Cambria Math_MSFontService,sans-serif" font-weight="400" font-size="14.6761" transform="matrix(1 0 0 0.999745 148.706 502)">𝒙</text><text font-family="Cambria Math,Cambria Math_MSFontService,sans-serif" font-weight="400" font-size="10.7135" transform="matrix(1 0 0 0.999745 157.214 505)">𝟎</text><path d="M110.5 492.707 115.838 492.707 115.838 494.041 110.5 494.041ZM119.842 492.707 125.18 492.707 125.18 494.041 119.842 494.041ZM123.862 489.372 131.869 493.374 123.862 497.377Z"/><path d="M206.5 488.042C206.5 485.465 208.589 483.377 211.167 483.377L255.833 483.377C258.411 483.377 260.5 485.465 260.5 488.042L260.5 506.704C260.5 509.281 258.411 511.369 255.833 511.369L211.167 511.369C208.589 511.369 206.5 509.281 206.5 506.704Z" stroke="#172C51" stroke-width="1.33453" stroke-miterlimit="8" fill="#F2F2F2" fill-rule="evenodd"/><text font-family="Cambria Math,Cambria Math_MSFontService,sans-serif" font-weight="400" font-size="14.6761" transform="matrix(1 0 0 0.999745 223.675 502)">𝒙</text><text font-family="Cambria Math,Cambria Math_MSFontService,sans-serif" font-weight="400" font-size="10.7135" transform="matrix(1 0 0 0.999745 232.183 505)">𝟏</text><path d="M185.5 492.707 190.838 492.707 190.838 494.041 185.5 494.041ZM194.842 492.707 200.18 492.707 200.18 494.041 194.842 494.041ZM198.862 489.372 206.869 493.374 198.862 497.377Z"/><path d="M281.5 488.042C281.5 485.465 283.589 483.377 286.167 483.377L330.833 483.377C333.411 483.377 335.5 485.465 335.5 488.042L335.5 506.704C335.5 509.281 333.411 511.369 330.833 511.369L286.167 511.369C283.589 511.369 281.5 509.281 281.5 506.704Z" stroke="#172C51" stroke-width="1.33453" stroke-miterlimit="8" fill="#F2F2F2" fill-rule="evenodd"/><text font-family="Cambria Math,Cambria Math_MSFontService,sans-serif" font-weight="400" font-size="14.6761" transform="matrix(1 0 0 0.999745 298.644 502)">𝒙</text><text font-family="Cambria Math,Cambria Math_MSFontService,sans-serif" font-weight="400" font-size="10.7135" transform="matrix(1 0 0 0.999745 307.152 505)">𝟐</text><path d="M260.5 492.707 265.838 492.707 265.838 494.041 260.5 494.041ZM269.842 492.707 275.18 492.707 275.18 494.041 269.842 494.041ZM273.862 489.372 281.869 493.374 273.862 497.377Z"/><path d="M335.5 492.707 340.838 492.707 340.838 494.041 335.5 494.041ZM344.842 492.707 350.18 492.707 350.18 494.041 344.842 494.041ZM348.862 489.372 356.869 493.374 348.862 497.377Z"/><path d="M417.5 488.042C417.5 485.465 419.589 483.377 422.167 483.377L466.833 483.377C469.411 483.377 471.5 485.465 471.5 488.042L471.5 506.704C471.5 509.281 469.411 511.369 466.833 511.369L422.167 511.369C419.589 511.369 417.5 509.281 417.5 506.704Z" stroke="#172C51" stroke-width="1.33453" stroke-miterlimit="8" fill="#F2F2F2" fill-rule="evenodd"/><text font-family="Cambria Math,Cambria Math_MSFontService,sans-serif" font-weight="400" font-size="14.6761" transform="matrix(1 0 0 0.999745 427.646 502)">𝒙</text><text font-family="Cambria Math,Cambria Math_MSFontService,sans-serif" font-weight="400" font-size="10.7135" transform="matrix(1 0 0 0.999745 436.154 505)">𝑳</text><text font-family="Cambria Math,Cambria Math_MSFontService,sans-serif" font-weight="400" font-size="10.7135" transform="matrix(1 0 0 0.999745 442.159 505)">−</text><text font-family="Cambria Math,Cambria Math_MSFontService,sans-serif" font-weight="400" font-size="10.7135" transform="matrix(1 0 0 0.999745 450 505)">𝟏</text><path d="M396.5 492.707 401.838 492.707 401.838 494.041 396.5 494.041ZM405.842 492.707 411.18 492.707 411.18 494.041 405.842 494.041ZM409.862 489.372 417.869 493.374 409.862 497.377Z"/><path d="M492.5 488.042C492.5 485.465 494.589 483.377 497.167 483.377L541.833 483.377C544.411 483.377 546.5 485.465 546.5 488.042L546.5 506.704C546.5 509.281 544.411 511.369 541.833 511.369L497.167 511.369C494.589 511.369 492.5 509.281 492.5 506.704Z" stroke="#172C51" stroke-width="1.33453" stroke-miterlimit="8" fill="#F2F2F2" fill-rule="evenodd"/><text font-family="Cambria Math,Cambria Math_MSFontService,sans-serif" font-weight="400" font-size="14.6761" transform="matrix(1 0 0 0.999745 509.705 502)">𝒙</text><text font-family="Cambria Math,Cambria Math_MSFontService,sans-serif" font-weight="400" font-size="10.7135" transform="matrix(1 0 0 0.999745 518.212 505)">𝑳</text><path d="M471.5 492.707 476.838 492.707 476.838 494.041 471.5 494.041ZM480.842 492.707 486.18 492.707 486.18 494.041 480.842 494.041ZM484.862 489.372 492.869 493.374 484.862 497.377Z"/><text font-family="Yu Gothic,Yu Gothic_MSFontService,sans-serif" font-weight="700" font-size="12.0077" transform="matrix(1 0 0 0.999745 368.57 502)">･･･</text><path d="M116.173 502.704 130.87 502.704 130.869 504.039 116.173 504.039ZM117.507 507.374 109.5 503.371 117.507 499.369Z"/><path d="M191.173 502.704 205.87 502.704 205.87 504.039 191.173 504.039ZM192.507 507.374 184.5 503.371 192.507 499.369Z"/><path d="M266.173 502.704 280.87 502.704 280.87 504.039 266.173 504.039ZM267.507 507.374 259.5 503.371 267.507 499.369Z"/><path d="M341.173 502.704 355.87 502.704 355.87 504.039 341.173 504.039ZM342.507 507.374 334.5 503.371 342.507 499.369Z"/><path d="M402.173 502.704 416.87 502.704 416.869 504.039 402.173 504.039ZM403.507 507.374 395.5 503.371 403.507 499.369Z"/><path d="M477.173 502.704 491.87 502.704 491.87 504.039 477.173 504.039ZM478.507 507.374 470.5 503.371 478.507 499.369Z"/><text font-family="Calibri,Calibri_MSFontService,sans-serif" font-weight="700" font-size="14.6761" transform="matrix(1 0 0 0.999745 9.89401 503)">DM</text></g></svg>