<svg width="435" height="425" xmlns="http://www.w3.org/2000/svg" xmlns:xlink="http://www.w3.org/1999/xlink" overflow="hidden"><g><rect x="0" y="0" width="435" height="424.508" fill="#FFFFFF"/><path d="M127.416 227.516C125.876 226.734 125.041 223.272 123.133 221.079 120.054 220.656 116.749 218.344 116.196 214.591 112.407 215.463 106.703 215.048 104.204 213.807 101.706 212.567 101.533 209.46 101.204 207.148 97.0855 207.61 93.5721 206.117 91.8089 203.818 90.0456 201.519 89.414 195.864 90.6246 193.354 90.6509 190.606 91.7255 188.406 93.1467 186.767 94.5678 185.129 96.5833 183.702 99.1514 183.524 100.726 181.295 102.981 180.247 105.152 179.48 107.323 178.714 109.558 178.767 112.178 178.925 114.69 177.104 120.051 176.589 123.469 176.864 126.886 177.139 131.451 178.518 132.684 180.575 135.057 180.643 136.077 180.986 136.708 182.669 139.719 183.427 142.82 185.93 144.529 188.282 146.238 190.635 147.378 193.001 146.961 196.785 149.564 199.488 149.187 203.123 148.476 205.587 147.766 208.05 145.038 210.843 142.698 211.565 142.937 214.46 142.426 217.259 140.73 218.553 139.034 219.847 136.397 220.433 134.824 220.253 134.206 221.603 132.388 221.713 130.726 221.103 131.289 222.728 132.924 224.696 132.373 225.765 131.821 226.834 128.956 228.297 127.416 227.516Z" stroke="#FFFFFF" stroke-width="2.00153" stroke-miterlimit="8" fill="#BFBFBF" fill-rule="evenodd"/><path d="M130 220.744C128.545 218.128 126.945 215.729 126 212.753" stroke="#FFFFFF" stroke-width="2.00153" stroke-miterlimit="8" fill="none" fill-rule="evenodd"/><path d="M116.255 214.354C117.533 213.458 118.468 212.797 121.405 212.362 124.341 211.927 130.202 212.191 133.874 211.743 137.546 211.295 140.321 210.483 142.509 211.994" stroke="#FFFFFF" stroke-width="1.99929" stroke-miterlimit="8" fill="none" fill-rule="evenodd"/><path d="M142.235 207.817C140.024 210.677 137.886 210.742 135.101 211.492" stroke="#FFFFFF" stroke-width="1.99929" stroke-miterlimit="8" fill="none" fill-rule="evenodd"/><path d="M140.959 196.213C144.139 197.037 146.325 200.564 146.395 203.881" stroke="#FFFFFF" stroke-width="2.00139" stroke-miterlimit="8" fill="none" fill-rule="evenodd"/><path d="M141.174 192.254C141.723 196.182 140.704 197.336 139.847 198.277" stroke="#FFFFFF" stroke-width="1.99969" stroke-miterlimit="8" fill="none" fill-rule="evenodd"/><path d="M146.944 196.755C146.68 198.386 146.25 199.016 145.501 199.597" stroke="#FFFFFF" stroke-width="1.99969" stroke-miterlimit="8" fill="none" fill-rule="evenodd"/><path d="M135.872 186.294C143.568 187.107 144.869 190.21 146.613 192.906" stroke="#FFFFFF" stroke-width="2.00149" stroke-miterlimit="8" fill="none" fill-rule="evenodd"/><path d="M111.997 194.641C105.481 184.656 120.972 178.454 125.258 177.203" stroke="#FFFFFF" stroke-width="1.99989" stroke-miterlimit="8" fill="none" fill-rule="evenodd"/><path d="M101.965 188.322C108.429 188.089 109.323 189.074 110.62 189.889" stroke="#FFFFFF" stroke-width="2.00149" stroke-miterlimit="8" fill="none" fill-rule="evenodd"/><path d="M100.682 193.66C101.409 196.368 106.282 198.635 106.74 201.981" stroke="#FFFFFF" stroke-width="2.00015" stroke-miterlimit="8" fill="none" fill-rule="evenodd"/><path d="M101.458 207.668C103.084 205.205 106.362 202.224 109.28 200.686 112.197 199.148 115.037 198.572 118.961 198.443 122.885 198.314 128.312 198.691 131.081 194.342" stroke="#FFFFFF" stroke-width="1.99929" stroke-miterlimit="8" fill="none" fill-rule="evenodd"/><path d="M103.649 197.432C100.988 198.144 100.201 198.772 97.9789 197.101" stroke="#FFFFFF" stroke-width="2.0015" stroke-miterlimit="8" fill="none" fill-rule="evenodd"/><path d="M106.778 184.259C105.572 183.553 105.353 179.905 107.333 178.657" stroke="#FFFFFF" stroke-width="1.9993" stroke-miterlimit="8" fill="none" fill-rule="evenodd"/><path d="M94.751 192.666C94.0547 191.871 92.154 190.223 94.239 185.363" stroke="#FFFFFF" stroke-width="1.9993" stroke-miterlimit="8" fill="none" fill-rule="evenodd"/><path d="M118.997 198.195C119.367 193.744 117.557 185.273 129.663 187.234" stroke="#FFFFFF" stroke-width="1.99937" stroke-miterlimit="8" fill="none" fill-rule="evenodd"/><path d="M123.179 187.414C123.182 184.173 124.29 182.757 127.243 182.443" stroke="#FFFFFF" stroke-width="1.99923" stroke-miterlimit="8" fill="none" fill-rule="evenodd"/><path d="M108.773 209.245C110.167 209.161 111.044 204.613 114.91 204.468 116.859 205.947 118.346 205.573 120.002 204.603 122.124 204.736 125.251 204.71 127.988 202.131 130.608 203.208 135.141 203.492 136.944 201.141" stroke="#FFFFFF" stroke-width="1.99929" stroke-miterlimit="8" fill="none" fill-rule="evenodd"/><path d="M124.492 208.087C120.246 207.995 120.578 205.877 120.248 204.648" stroke="#FFFFFF" stroke-width="2.00151" stroke-miterlimit="8" fill="none" fill-rule="evenodd"/><path d="M324.853 92.3929 322.265 87.1651 323.522 84.6965 321.599 83.4621 321.007 80.9209 316.201 81.3565 314.5 77.5083 317.458 72.0628 316.792 69.3037 318.715 67.8515 316.571 65.3103 318.567 62.769 319.972 65.7459 321.673 64.5116 322.338 64.6568 325.444 62.406 323.596 61.0991 322.634 63.3499 320.564 63.6403 319.602 62.3334 321.599 60.5908 323.522 56.67 328.328 58.9208 331.138 55.4357C337.547 60.2762 341.22 68.021 340.382 78.0166 338.977 76.4676 337.276 73.9748 336.167 73.3697 335.057 72.7647 332.716 72.7767 332.543 73.1519L335.131 75.6205 332.321 78.3796 332.839 80.0496 330.103 82.8813 330.103 85.5677 328.55 88.5447 326.258 91.9572 324.853 92.3929Z" stroke="#172C51" stroke-width="1.33436" stroke-miterlimit="8" fill-rule="evenodd"/><path d="M318.5 49.6387 316.136 52.3814 315.511 55.6429 315.233 58.608 312.035 59.4234C310.934 60.0411 310.227 63.0432 308.628 62.3143 307.029 61.5854 309.938 57.8296 309.949 56.3842L308.698 53.6415 309.393 50.8247 307.029 53.0485 305.5 50.38C307.678 48.8728 313.402 47.2914 318.5 49.6387Z" stroke="#172C51" stroke-width="1.33436" stroke-miterlimit="8" fill-rule="evenodd"/><path d="M306.829 99.2599 304.308 95.2146 302.75 89.5961 298.672 85.5508 298.821 82.2546 294.52 79.6327 291.332 77.1605 291.332 75.5124 288.885 77.0107C286.611 69.7192 294.866 54.1122 301.861 52.4392L303.937 54.3869 307.199 54.8364 307.718 58.5071 306.68 60.6796 304.53 60.3051 304.975 59.3312 305.197 57.4584 302.899 59.6308 300.6 60.6047 299.266 61.9532 301.045 64.4253 301.787 63.6762 302.454 61.204 305.049 61.8782 307.199 64.4253 306.903 67.8713 306.087 68.3208 304.975 66.5978 303.714 68.2459 299.636 71.3922 298.376 74.9881 300.081 77.1605 302.75 77.9846 300.823 78.9585 298.969 77.9846 296.522 74.164 294.298 74.6135 294.075 77.3104 296.448 77.1605 297.783 80.0821 299.71 80.3069 302.083 80.0072 305.939 81.7302 308.163 83.9776 311.5 84.8017 310.61 86.8243 311.055 89.4463 309.053 90.7198 309.201 93.4916 307.57 95.2895 308.979 100.384 306.829 99.2599Z" stroke="#172C51" stroke-width="1.33436" stroke-miterlimit="8" fill-rule="evenodd"/><path d="M288 73.9143C288 59.5716 299.641 47.9445 314 47.9445 328.359 47.9445 340 59.5716 340 73.9143 340 88.2571 328.359 99.8842 314 99.8842 299.641 99.8842 288 88.2571 288 73.9143Z" stroke="#172C51" stroke-width="4.00307" stroke-miterlimit="8" fill="none" fill-rule="evenodd"/><path d="M329.5 89.3963 329.822 87.9321C330.48 87.2814 333.083 84.9108 333.445 85.4918 333.807 86.0728 332.277 87.4441 331.996 88.0716L331.754 89.2569 329.5 89.3963Z" stroke="#172C51" stroke-width="1.33436" stroke-miterlimit="8" fill-rule="evenodd"/><path d="M170 334.113C170 310.116 189.923 290.663 214.5 290.663 239.077 290.663 259 310.116 259 334.113 259 358.109 239.077 377.562 214.5 377.562 189.923 377.562 170 358.109 170 334.113Z" fill="#00B0F0" fill-rule="evenodd" fill-opacity="0.301961"/><path d="M232.52 365.576 228.14 356.534 230.267 352.264 227.014 350.129 226.013 345.733 217.878 346.486 215 339.83 220.006 330.411 218.879 325.638 222.133 323.126 218.504 318.731 221.883 314.335 224.261 319.484 227.139 317.349 228.265 317.6 233.521 313.707 230.393 311.446 228.766 315.34 225.262 315.842 223.635 313.581 227.014 310.567 230.267 303.785 238.402 307.679 243.157 301.65C254.003 310.023 260.218 323.419 258.8 340.709 256.422 338.03 253.544 333.718 251.667 332.671 249.79 331.625 245.827 331.646 245.535 332.295L249.915 336.565 245.159 341.337 246.035 344.226 241.405 349.124 241.405 353.771 238.777 358.92 234.898 364.823 232.52 365.576Z" fill="#00B050" fill-rule="evenodd"/><path d="M223 292.626 218.636 297.132 217.481 302.49 216.968 307.361 211.064 308.701C209.032 309.716 207.727 314.648 204.775 313.45 201.824 312.253 207.193 306.083 207.214 303.708L204.904 299.202 206.187 294.574 201.824 298.228 199 293.844C203.021 291.368 213.588 288.77 223 292.626Z" fill="#00B050" fill-rule="evenodd"/><path d="M201.079 375.689 196.804 368.947 194.164 359.583 187.249 352.841 187.5 347.347 180.208 342.977 174.801 338.857 174.801 336.11 170.652 338.607C166.797 326.455 180.795 300.443 192.655 297.655L196.176 300.901 201.708 301.65 202.588 307.768 200.828 311.389 197.181 310.765 197.936 309.142 198.313 306.02 194.415 309.641 190.518 311.264 188.255 313.512 191.272 317.632 192.529 316.383 193.661 312.263 198.062 313.387 201.708 317.632 201.205 323.375 199.822 324.124 197.936 321.253 195.798 323.999 188.883 329.243 186.746 335.236 189.638 338.857 194.164 340.231 190.895 341.854 187.752 340.231 183.603 333.863 179.831 334.612 179.453 339.107 183.477 338.857 185.74 343.727 189.009 344.101 193.032 343.602 199.57 346.473 203.342 350.219 209 351.592 207.491 354.964 208.246 359.333 204.851 361.456 205.102 366.076 202.336 369.072 204.725 377.562 201.079 375.689Z" fill="#00B050" fill-rule="evenodd"/><path d="M241 359.583 241.483 357.021C242.469 355.882 246.374 351.733 246.917 352.75 247.461 353.767 245.166 356.167 244.744 357.265L244.381 359.339 241 359.583Z" fill="#00B050" fill-rule="evenodd"/><path d="M243.104 131.104C241.76 129.762 241.76 127.586 243.104 126.244 244.447 124.902 246.626 124.902 247.969 126.244 249.313 127.586 249.313 129.762 247.969 131.104 246.626 132.446 244.447 132.446 243.104 131.104Z" stroke="#172C51" stroke-width="1.33358" stroke-miterlimit="8" fill-rule="evenodd"/><path d="M239.044 135.159C235.458 131.578 235.458 125.771 239.044 122.189 242.63 118.608 248.443 118.608 252.029 122.189 255.615 125.771 255.615 131.578 252.029 135.159 248.443 138.741 242.63 138.741 239.044 135.159Z" stroke="#172C51" stroke-width="2.00038" stroke-miterlimit="8" fill="none" fill-rule="evenodd"/><path d="M234.297 139.901C228.089 133.701 228.089 123.648 234.297 117.447 240.504 111.247 250.569 111.247 256.776 117.447 262.984 123.648 262.984 133.701 256.776 139.901 250.569 146.102 240.504 146.102 234.297 139.901Z" stroke="#172C51" stroke-width="2.00038" stroke-miterlimit="8" fill="none" fill-rule="evenodd"/><path d="M245.479 129.084 266.002 108.584" stroke="#172C51" stroke-width="2.00038" stroke-miterlimit="8" fill="none" fill-rule="evenodd"/><path d="M259.941 114.719 259.431 107.676 266.773 100.342 267.284 107.385Z" stroke="#172C51" stroke-width="2.00038" stroke-miterlimit="8" fill="none" fill-rule="evenodd"/><path d="M0 5.34402 4.62204 0 14.9998 0 10.3777 5.34402Z" stroke="#172C51" stroke-width="2.00037" stroke-miterlimit="8" fill="none" fill-rule="evenodd" transform="matrix(0.707517 -0.706697 -0.707517 -0.706697 263.804 118.253)"/><path d="M100 210.756 100 222.742 109 218.746" stroke="#172C51" stroke-width="4.00307" stroke-miterlimit="8" fill="none" fill-rule="evenodd"/><path d="M84 222.242C84 213.692 91.1634 206.76 100 206.76 108.837 206.76 116 213.692 116 222.242 116 230.793 108.837 237.724 100 237.724 91.1634 237.724 84 230.793 84 222.242Z" stroke="#172C51" stroke-width="4.00307" stroke-miterlimit="8" fill="none" fill-rule="evenodd"/><path d="M139.253 147.421 145.447 149.079 137.804 177.573 131.61 175.915Z" fill="#BFBFBF" fill-rule="evenodd"/><path d="M149.714 152.349 152.92 157.896 127.343 172.645 124.137 167.098Z" fill="#BFBFBF" fill-rule="evenodd"/><path d="M128.368 151.325 133.922 148.122 148.688 173.669 143.135 176.872Z" fill="#BFBFBF" fill-rule="evenodd"/><path d="M153.622 163.221 151.962 169.408 123.435 161.773 125.095 155.586Z" fill="#BFBFBF" fill-rule="evenodd"/><path d="M127.151 159.452C128.834 153.175 135.293 149.45 141.577 151.132 147.861 152.814 151.59 159.265 149.906 165.542 148.223 171.818 141.764 175.543 135.48 173.861 129.196 172.18 125.467 165.728 127.151 159.452Z" fill="#BFBFBF" fill-rule="evenodd"/><path d="M130.784 160.344C131.965 155.94 136.497 153.327 140.906 154.507 145.315 155.687 147.932 160.214 146.75 164.618 145.569 169.021 141.037 171.635 136.628 170.455 132.219 169.275 129.602 164.748 130.784 160.344Z" fill="#FFFFFF" fill-rule="evenodd"/><path d="M162.146 167.79 168.34 169.447 160.696 197.941 154.502 196.283Z" fill="#BFBFBF" fill-rule="evenodd"/><path d="M172.606 172.717 175.812 178.264 150.236 193.014 147.029 187.467Z" fill="#BFBFBF" fill-rule="evenodd"/><path d="M151.261 171.693 156.814 168.491 171.581 194.038 166.028 197.24Z" fill="#BFBFBF" fill-rule="evenodd"/><path d="M176.514 183.59 174.855 189.776 146.328 182.141 147.987 175.955Z" fill="#BFBFBF" fill-rule="evenodd"/><path d="M150.043 179.82C151.727 173.544 158.186 169.819 164.47 171.501 170.753 173.183 174.482 179.634 172.799 185.911 171.115 192.187 164.656 195.912 158.372 194.23 152.088 192.548 148.359 186.097 150.043 179.82Z" fill="#BFBFBF" fill-rule="evenodd"/><path d="M153.676 180.713C154.858 176.309 159.39 173.696 163.799 174.876 168.208 176.056 170.824 180.582 169.643 184.986 168.461 189.39 163.929 192.004 159.52 190.824 155.111 189.643 152.495 185.117 153.676 180.713Z" fill="#FFFFFF" fill-rule="evenodd"/><path d="M83.5 80.7397C83.5 78.3493 96.9314 76.4114 113.5 76.4114 130.069 76.4114 143.5 78.3493 143.5 80.7397L143.5 98.053C143.5 100.443 130.069 102.381 113.5 102.381 96.9314 102.381 83.5 100.443 83.5 98.053Z" fill="#FFFFFF" fill-rule="evenodd"/><path d="M143.5 80.7397C143.5 83.1302 130.069 85.068 113.5 85.068 96.9314 85.068 83.5 83.1302 83.5 80.7397" stroke="#172C51" stroke-width="1.33436" stroke-miterlimit="8" fill="none" fill-rule="evenodd"/><path d="M83.5 80.7397C83.5 78.3493 96.9314 76.4114 113.5 76.4114 130.069 76.4114 143.5 78.3493 143.5 80.7397L143.5 98.053C143.5 100.443 130.069 102.381 113.5 102.381 96.9314 102.381 83.5 100.443 83.5 98.053Z" stroke="#172C51" stroke-width="1.33436" stroke-miterlimit="8" fill="none" fill-rule="evenodd"/><path d="M83.5 63.7594C83.5 61.3689 96.9314 59.4311 113.5 59.4311 130.069 59.4311 143.5 61.3689 143.5 63.7594L143.5 81.0726C143.5 83.4631 130.069 85.4009 113.5 85.4009 96.9314 85.4009 83.5 83.4631 83.5 81.0726Z" fill="#FFFFFF" fill-rule="evenodd"/><path d="M143.5 63.7594C143.5 66.1498 130.069 68.0877 113.5 68.0877 96.9314 68.0877 83.5 66.1498 83.5 63.7594" stroke="#172C51" stroke-width="1.33436" stroke-miterlimit="8" fill="none" fill-rule="evenodd"/><path d="M83.5 63.7594C83.5 61.3689 96.9314 59.4311 113.5 59.4311 130.069 59.4311 143.5 61.3689 143.5 63.7594L143.5 81.0726C143.5 83.4631 130.069 85.4009 113.5 85.4009 96.9314 85.4009 83.5 83.4631 83.5 81.0726Z" stroke="#172C51" stroke-width="1.33436" stroke-miterlimit="8" fill="none" fill-rule="evenodd"/><path d="M83.5 46.7791C83.5 44.3886 96.9314 42.4508 113.5 42.4508 130.069 42.4508 143.5 44.3886 143.5 46.7791L143.5 64.0924C143.5 66.4829 130.069 68.4207 113.5 68.4207 96.9314 68.4207 83.5 66.4829 83.5 64.0924Z" fill="#FFFFFF" fill-rule="evenodd"/><path d="M143.5 46.7791C143.5 49.1696 130.069 51.1074 113.5 51.1074 96.9314 51.1074 83.5 49.1696 83.5 46.7791" stroke="#172C51" stroke-width="1.33436" stroke-miterlimit="8" fill="none" fill-rule="evenodd"/><path d="M83.5 46.7791C83.5 44.3886 96.9314 42.4508 113.5 42.4508 130.069 42.4508 143.5 44.3886 143.5 46.7791L143.5 64.0924C143.5 66.4829 130.069 68.4207 113.5 68.4207 96.9314 68.4207 83.5 66.4829 83.5 64.0924Z" stroke="#172C51" stroke-width="1.33436" stroke-miterlimit="8" fill="none" fill-rule="evenodd"/><text font-family="Yu Gothic,Yu Gothic_MSFontService,sans-serif" font-weight="700" font-size="14.6609" transform="matrix(1 0 0 0.998842 49.343 78)">経験</text><text font-family="Yu Gothic,Yu Gothic_MSFontService,sans-serif" font-weight="700" font-size="14.6609" transform="matrix(1 0 0 0.998842 264.481 145)">目標</text><text font-family="Calibri,Calibri_MSFontService,sans-serif" font-weight="700" font-size="14.6609" transform="matrix(1 0 0 0.998842 297.173 145)">g</text><text font-family="Yu Gothic,Yu Gothic_MSFontService,sans-serif" font-weight="700" font-size="14.6609" transform="matrix(1 0 0 0.998842 296.766 212)">ポリシー</text><text font-family="Cambria Math,Cambria Math_MSFontService,sans-serif" font-weight="400" font-size="14.6609" transform="matrix(1 0 0 0.998842 301.623 229)">𝒑</text><path d="M57.3291 2.01523C58.7211 2.38228 59.7901 3.17478 60.5361 4.39273 61.2821 5.61067 61.6551 7.08007 61.6551 8.80092 61.6551 10.5265 61.2833 11.9959 60.5396 13.2091 59.796 14.4223 58.7258 15.2124 57.3291 15.5795L57.1575 15.0289C58.2587 14.6618 59.0774 13.9373 59.6137 12.8552 60.15 11.7731 60.4181 10.3978 60.4181 8.72942 60.4181 7.11821 60.1511 5.7799 59.6173 4.71449 59.0834 3.64909 58.2563 2.93286 57.1361 2.56581ZM19.6275 2.01523 19.8206 2.56581C18.7051 2.93286 17.8793 3.64909 17.343 4.71449 16.8067 5.7799 16.5386 7.11821 16.5386 8.72942 16.5386 10.3978 16.8067 11.7731 17.343 12.8552 17.8793 13.9373 18.698 14.6618 19.7991 15.0289L19.6275 15.5795C18.2308 15.2124 17.1607 14.4223 16.417 13.2091 15.6734 11.9959 15.3016 10.5265 15.3016 8.80092 15.3016 7.08007 15.6746 5.61067 16.4206 4.39273 17.1666 3.17478 18.2356 2.38228 19.6275 2.01523Z" fill-rule="evenodd" transform="matrix(1.00116 0 0 1 296.766 216.046)"/><text font-family="Cambria Math,Cambria Math_MSFontService,sans-serif" font-weight="400" font-size="14.6609" transform="matrix(1 0 0 0.998842 316.888 229)">𝒂</text><text font-family="Cambria Math,Cambria Math_MSFontService,sans-serif" font-weight="400" font-size="14.6609" transform="matrix(1 0 0 0.998842 326.062 229)">|</text><text font-family="Cambria Math,Cambria Math_MSFontService,sans-serif" font-weight="400" font-size="14.6609" transform="matrix(1 0 0 0.998842 330.732 229)">𝒛</text><text font-family="Cambria Math,Cambria Math_MSFontService,sans-serif" font-weight="400" font-size="14.6609" transform="matrix(1 0 0 0.998842 338.238 229)">,</text><text font-family="Cambria Math,Cambria Math_MSFontService,sans-serif" font-weight="400" font-size="14.6609" transform="matrix(1 0 0 0.998842 343.689 229)">𝒈</text><text font-family="Yu Gothic,Yu Gothic_MSFontService,sans-serif" font-weight="700" font-size="14.6609" transform="matrix(1 0 0 0.998842 344.982 75)">世界モデル</text><text font-family="Cambria Math,Cambria Math_MSFontService,sans-serif" font-weight="400" font-size="14.6609" transform="matrix(1 0 0 0.998842 352.541 92)">𝒑</text><path d="M61.9673 2.01523C63.3593 2.38228 64.4282 3.17478 65.1743 4.39273 65.9203 5.61067 66.2933 7.08007 66.2933 8.80092 66.2933 10.5265 65.9215 11.9959 65.1778 13.2091 64.4342 14.4223 63.364 15.2124 61.9673 15.5795L61.7957 15.0289C62.8969 14.6618 63.7156 13.9373 64.2519 12.8552 64.7881 11.7731 65.0563 10.3978 65.0563 8.72942 65.0563 7.11821 64.7893 5.7799 64.2554 4.71449 63.7215 3.64909 62.8945 2.93286 61.7743 2.56581ZM22.3265 2.01523 22.5195 2.56581C21.4041 2.93286 20.5782 3.64909 20.0419 4.71449 19.5057 5.7799 19.2375 7.11821 19.2375 8.72942 19.2375 10.3978 19.5057 11.7731 20.0419 12.8552 20.5782 13.9373 21.3969 14.6618 22.4981 15.0289L22.3265 15.5795C20.9298 15.2124 19.8596 14.4223 19.116 13.2091 18.3723 11.9959 18.0005 10.5265 18.0005 8.80092 18.0005 7.08007 18.3735 5.61067 19.1195 4.39273 19.8656 3.17478 20.9345 2.38228 22.3265 2.01523Z" fill-rule="evenodd" transform="matrix(1.00116 0 0 1 344.982 78.6489)"/><text font-family="Cambria Math,Cambria Math_MSFontService,sans-serif" font-weight="400" font-size="14.6609" transform="matrix(1 0 0 0.998842 367.807 92)">𝒛</text><text font-family="Cambria Math,Cambria Math_MSFontService,sans-serif" font-weight="400" font-size="10.7025" transform="matrix(1 0 0 0.998842 375.312 86)">′</text><text font-family="Cambria Math,Cambria Math_MSFontService,sans-serif" font-weight="400" font-size="14.6609" transform="matrix(1 0 0 0.998842 379.756 92)">|</text><text font-family="Cambria Math,Cambria Math_MSFontService,sans-serif" font-weight="400" font-size="14.6609" transform="matrix(1 0 0 0.998842 384.426 92)">𝒛</text><text font-family="Cambria Math,Cambria Math_MSFontService,sans-serif" font-weight="400" font-size="14.6609" transform="matrix(1 0 0 0.998842 391.932 92)">,</text><text font-family="Cambria Math,Cambria Math_MSFontService,sans-serif" font-weight="400" font-size="14.6609" transform="matrix(1 0 0 0.998842 397.383 92)">𝒂</text><path d="M150.5 211.587 286.179 211.587 286.179 212.92 150.5 212.92ZM278.509 207.013 287.503 212.254 278.509 217.494C278.191 217.68 277.782 217.572 277.597 217.255 277.411 216.937 277.518 216.529 277.837 216.343L285.843 211.678 285.843 212.829 277.837 208.165C277.518 207.979 277.411 207.571 277.597 207.253 277.782 206.935 278.191 206.828 278.509 207.013Z" fill="#172C51"/><path d="M0-0.666405 121.538-0.666405 121.538 0.666405 0 0.666405ZM113.877-5.24046 122.861 0 113.877 5.24046C113.559 5.42591 113.151 5.31853 112.966 5.00062 112.78 4.68271 112.888 4.27466 113.205 4.08921L121.202-0.575627 121.202 0.575627 113.205-4.08921C112.888-4.27466 112.78-4.68271 112.966-5.00062 113.151-5.31853 113.559-5.42591 113.877-5.24046Z" fill="#172C51" transform="matrix(1.00116 0 0 -1 155.5 75.4125)"/><path d="M112.833 171.301 112.833 110.693 114.167 110.693 114.167 171.301ZM108.253 118.354 113.5 109.37 118.747 118.354C118.932 118.672 118.825 119.08 118.506 119.265 118.188 119.451 117.78 119.343 117.594 119.025L112.924 111.028 114.076 111.028 109.406 119.025C109.22 119.343 108.812 119.451 108.494 119.265 108.175 119.08 108.068 118.672 108.253 118.354Z" fill="#172C51"/><path d="M317.167 106.377 317.167 189.959 315.833 189.959 315.833 106.377ZM321.747 182.298 316.5 191.281 311.253 182.298C311.068 181.98 311.175 181.572 311.494 181.386 311.812 181.201 312.22 181.308 312.406 181.626L317.076 189.623 315.924 189.623 320.594 181.626C320.78 181.308 321.188 181.201 321.506 181.386 321.825 181.572 321.932 181.98 321.747 182.298Z" fill="#172C51"/><path d="M150.868 102.824 288.766 193.989 288.029 195.101 150.132 103.936ZM284.898 185.947 289.503 195.275 279.107 194.687C278.739 194.666 278.458 194.351 278.478 193.984 278.499 193.617 278.814 193.336 279.182 193.356L288.436 193.88 287.8 194.84 283.701 186.536C283.538 186.206 283.674 185.807 284.005 185.644 284.335 185.481 284.735 185.617 284.898 185.947Z" fill="#172C51"/><path d="M277.034 153.921 300.241 184.829 299.174 185.628 275.966 154.721ZM299.303 175.955 300.502 186.286 290.908 182.244C290.569 182.101 290.41 181.71 290.553 181.371 290.696 181.032 291.087 180.873 291.427 181.016L299.967 184.614 299.045 185.305 297.977 176.109C297.935 175.743 298.197 175.412 298.563 175.37 298.929 175.328 299.26 175.59 299.303 175.955Z" fill="#172C51"/><text font-family="Yu Gothic,Yu Gothic_MSFontService,sans-serif" font-weight="700" font-size="14.6609" transform="matrix(1 0 0 0.998842 22.5222 187)">記憶状態</text><text font-family="Cambria Math,Cambria Math_MSFontService,sans-serif" font-weight="400" font-size="14.6609" transform="matrix(1 0 0 0.998842 14.1625 204)">𝒛</text><text font-family="Cambria Math,Cambria Math_MSFontService,sans-serif" font-weight="400" font-size="10.7025" transform="matrix(1 0 0 0.998842 21.6683 198)">′</text><text font-family="Cambria Math,Cambria Math_MSFontService,sans-serif" font-weight="400" font-size="14.6609" transform="matrix(1 0 0 0.998842 30.1881 204)">=</text><text font-family="Cambria Math,Cambria Math_MSFontService,sans-serif" font-weight="400" font-size="14.6609" transform="matrix(1 0 0 0.998842 45.273 204)">𝑼</text><path d="M71.7835 2.01523C73.1754 2.38228 74.2444 3.17478 74.9904 4.39273 75.7364 5.61067 76.1094 7.08007 76.1094 8.80092 76.1094 10.5265 75.7376 11.9959 74.994 13.2091 74.2503 14.4223 73.1802 15.2124 71.7835 15.5795L71.6119 15.0289C72.713 14.6618 73.5317 13.9373 74.068 12.8552 74.6043 11.7731 74.8724 10.3978 74.8724 8.72942 74.8724 7.11821 74.6055 5.7799 74.0716 4.71449 73.5377 3.64909 72.7106 2.93286 71.5904 2.56581ZM49.4092 2.01523 49.6022 2.56581C48.4868 2.93286 47.6609 3.64909 47.1246 4.71449 46.5884 5.7799 46.3202 7.11821 46.3202 8.72942 46.3202 10.3978 46.5884 11.7731 47.1246 12.8552 47.6609 13.9373 48.4796 14.6618 49.5808 15.0289L49.4092 15.5795C48.0125 15.2124 46.9423 14.4223 46.1987 13.2091 45.455 11.9959 45.0832 10.5265 45.0832 8.80092 45.0832 7.08007 45.4562 5.61067 46.2023 4.39273 46.9483 3.17478 48.0173 2.38228 49.4092 2.01523Z" fill-rule="evenodd" transform="matrix(1.00116 0 0 1 12.1009 190.845)"/><text font-family="Cambria Math,Cambria Math_MSFontService,sans-serif" font-weight="400" font-size="14.6609" transform="matrix(1 0 0 0.998842 62.0392 204)">𝒛</text><text font-family="Cambria Math,Cambria Math_MSFontService,sans-serif" font-weight="400" font-size="14.6609" transform="matrix(1 0 0 0.998842 69.5449 204)">,</text><text font-family="Cambria Math,Cambria Math_MSFontService,sans-serif" font-weight="400" font-size="14.6609" transform="matrix(1 0 0 0.998842 74.9958 204)">𝒐</text><text font-family="Yu Gothic,Yu Gothic_MSFontService,sans-serif" font-weight="700" font-size="14.6609" transform="matrix(1 0 0 0.998842 186.111 24)">エージェント</text><rect x="6.49999" y="28.4669" width="423" height="232.73" stroke="#172C51" stroke-width="1.33436" stroke-miterlimit="8" fill="none"/><path d="M163.5 337.776 112.833 337.776 112.833 240.542 114.167 240.542 114.167 337.109 113.5 336.443 163.5 336.443ZM108.253 248.203 113.5 239.22 118.747 248.203C118.932 248.521 118.825 248.929 118.506 249.115 118.188 249.3 117.78 249.193 117.594 248.875L112.924 240.878 114.076 240.878 109.406 248.875C109.22 249.193 108.812 249.3 108.494 249.115 108.175 248.929 108.068 248.521 108.253 248.203Z" fill="#172C51"/><text font-family="Yu Gothic,Yu Gothic_MSFontService,sans-serif" font-weight="700" font-size="14.6609" transform="matrix(1 0 0 0.998842 79.3176 306)">観測</text><text font-family="Cambria Math,Cambria Math_MSFontService,sans-serif" font-weight="400" font-size="14.6609" transform="matrix(1 0 0 0.998842 89.739 323)">𝒐</text><path d="M317.167 240.221 317.167 338.774 269.821 338.774 269.821 337.442 316.5 337.442 315.833 338.108 315.833 240.221ZM277.491 343.349 268.497 338.108 277.491 332.868C277.809 332.682 278.218 332.789 278.403 333.107 278.589 333.425 278.482 333.833 278.163 334.019L270.157 338.684 270.157 337.532 278.163 342.197C278.482 342.383 278.589 342.791 278.403 343.109 278.218 343.427 277.809 343.534 277.491 343.349Z" fill="#172C51"/><text font-family="Yu Gothic,Yu Gothic_MSFontService,sans-serif" font-weight="700" font-size="14.6609" transform="matrix(1 0 0 0.998842 319.699 306)">行動</text><text font-family="Cambria Math,Cambria Math_MSFontService,sans-serif" font-weight="400" font-size="14.6609" transform="matrix(1 0 0 0.998842 329.787 323)">𝒂</text><path d="M228.195 380.727 229.951 382.625 231.954 385.922 233.253 389.485 233.84 393.202 233.71 396.963 232.856 400.657 231.27 404.173 228.947 407.397 226.027 410.092 222.726 412.093 219.159 413.39 215.438 413.977 211.672 413.847 207.974 412.994 204.454 411.409 201.227 409.089 198.528 406.172 196.525 402.876 195.226 399.313 194.639 395.596 194.769 391.835 195.623 388.14 197.209 384.625 199.493 381.456 200.576 382.234 198.331 385.349 198.398 385.233 196.867 388.628 196.909 388.504 196.083 392.072 196.1 391.945 195.974 395.578 195.967 395.451 196.534 399.041 196.502 398.917 197.756 402.358 197.7 402.24 199.634 405.423 199.554 405.317 202.161 408.135 202.061 408.047 205.179 410.288 205.063 410.222 208.462 411.751 208.338 411.71 211.91 412.534 211.783 412.517 215.42 412.643 215.293 412.65 218.887 412.083 218.763 412.116 222.208 410.863 222.09 410.919 225.277 408.987 225.17 409.068 227.992 406.463 227.903 406.563 230.148 403.449 230.081 403.564 231.612 400.17 231.57 400.293 232.396 396.726 232.379 396.853 232.505 393.22 232.512 393.347 231.945 389.756 231.977 389.88 230.723 386.44 230.779 386.557 228.845 383.374 228.925 383.481 227.215 381.631ZM229.057 390.362 226.806 380.208 236.763 383.249C237.116 383.357 237.314 383.729 237.206 384.081 237.098 384.433 236.725 384.631 236.373 384.524L227.509 381.816 228.356 381.035 230.36 390.074C230.439 390.434 230.212 390.789 229.853 390.869 229.493 390.948 229.137 390.722 229.057 390.362Z" fill="#172C51"/><text font-family="Yu Gothic,Yu Gothic_MSFontService,sans-serif" font-weight="700" font-size="14.6609" transform="matrix(1 0 0 0.998842 202.176 283)">環境</text></g></svg>